%TF.GenerationSoftware,KiCad,Pcbnew,10.0.3*%
%TF.CreationDate,2026-07-29T20:20:23+08:00*%
%TF.ProjectId,skilleye_2.0,736b696c-6c65-4796-955f-322e302e6b69,rev?*%
%TF.SameCoordinates,Original*%
%TF.FileFunction,Legend,Bot*%
%TF.FilePolarity,Positive*%
%FSLAX46Y46*%
G04 Gerber Fmt 4.6, Leading zero omitted, Abs format (unit mm)*
G04 Created by KiCad (PCBNEW 10.0.3) date 2026-07-29 20:20:23*
%MOMM*%
%LPD*%
G01*
G04 APERTURE LIST*
%ADD10C,0.300000*%
%ADD11C,0.200000*%
%ADD12C,0.150000*%
%ADD13C,0.100000*%
%ADD14C,0.127000*%
%ADD15C,0.000000*%
G04 APERTURE END LIST*
D10*
G36*
X166012151Y-130096929D02*
G01*
X165602922Y-130096929D01*
X165621242Y-130143176D01*
X165625819Y-130169561D01*
X165617354Y-130212045D01*
X165591656Y-130248421D01*
X165554142Y-130273116D01*
X165509407Y-130281393D01*
X165466283Y-130273607D01*
X165403803Y-130244849D01*
X165348207Y-130213158D01*
X165245010Y-130163672D01*
X165148380Y-130135679D01*
X165056581Y-130126696D01*
X164956427Y-130136028D01*
X164866174Y-130163254D01*
X164783753Y-130208315D01*
X164707711Y-130272601D01*
X164644996Y-130349840D01*
X164600818Y-130433842D01*
X164574029Y-130526082D01*
X164564829Y-130628615D01*
X164576431Y-130728345D01*
X164612364Y-130830299D01*
X165023791Y-130830299D01*
X164990266Y-130767767D01*
X164981018Y-130721855D01*
X164988918Y-130672359D01*
X165011610Y-130633195D01*
X165046214Y-130606565D01*
X165088271Y-130597749D01*
X165125871Y-130607704D01*
X165221811Y-130655726D01*
X165334960Y-130708779D01*
X165444787Y-130739353D01*
X165552913Y-130749332D01*
X165650079Y-130740351D01*
X165738732Y-130714021D01*
X165820727Y-130670254D01*
X165897387Y-130607641D01*
X165961489Y-130532109D01*
X166006116Y-130451458D01*
X166032888Y-130364366D01*
X166042009Y-130268937D01*
X166034625Y-130183124D01*
X166012151Y-130096929D01*
G37*
G36*
X166006838Y-129531629D02*
G01*
X164600000Y-129531629D01*
X164600000Y-129920799D01*
X166006838Y-129920799D01*
X166006838Y-129531629D01*
G37*
G36*
X165625819Y-128942698D02*
G01*
X165251395Y-129131742D01*
X164600000Y-128851748D01*
X164600000Y-129282501D01*
X165269072Y-129523477D01*
X165625819Y-129347897D01*
X165625819Y-128942698D01*
G37*
G36*
X165625819Y-128400296D02*
G01*
X164600000Y-128400296D01*
X164600000Y-128789467D01*
X165625819Y-128789467D01*
X165625819Y-128400296D01*
G37*
G36*
X166083042Y-128593828D02*
G01*
X166076783Y-128543383D01*
X166058341Y-128498291D01*
X166026988Y-128457083D01*
X165986782Y-128424604D01*
X165943097Y-128405678D01*
X165894456Y-128399289D01*
X165842267Y-128405602D01*
X165798171Y-128423766D01*
X165760275Y-128453968D01*
X165731513Y-128493176D01*
X165714008Y-128539152D01*
X165707885Y-128593828D01*
X165714008Y-128648504D01*
X165731513Y-128694480D01*
X165760275Y-128733688D01*
X165798171Y-128763890D01*
X165842267Y-128782054D01*
X165894456Y-128788367D01*
X165943103Y-128781986D01*
X165986789Y-128763089D01*
X166026988Y-128730665D01*
X166058344Y-128689400D01*
X166076784Y-128644276D01*
X166083042Y-128593828D01*
G37*
G36*
X166006838Y-127792131D02*
G01*
X164600000Y-127792131D01*
X164600000Y-128181302D01*
X166006838Y-128181302D01*
X166006838Y-127792131D01*
G37*
G36*
X166006838Y-127185432D02*
G01*
X164600000Y-127185432D01*
X164600000Y-127574603D01*
X166006838Y-127574603D01*
X166006838Y-127185432D01*
G37*
G36*
X165461688Y-126187364D02*
G01*
X165145150Y-126187364D01*
X165145150Y-126461771D01*
X165140542Y-126511632D01*
X165129762Y-126538250D01*
X165110147Y-126554331D01*
X165077739Y-126560323D01*
X165041618Y-126553930D01*
X165023242Y-126537792D01*
X165014468Y-126508958D01*
X165010327Y-126443361D01*
X165010327Y-126160711D01*
X164600000Y-126160711D01*
X164600000Y-126490531D01*
X164608072Y-126607062D01*
X164630496Y-126702654D01*
X164665382Y-126781007D01*
X164712015Y-126845080D01*
X164771819Y-126897148D01*
X164843848Y-126935223D01*
X164930613Y-126959307D01*
X165035515Y-126967903D01*
X165579200Y-126967903D01*
X165680150Y-126959818D01*
X165764479Y-126937084D01*
X165835219Y-126901055D01*
X165894639Y-126851766D01*
X165941948Y-126790734D01*
X165976816Y-126717702D01*
X165998944Y-126630271D01*
X166006838Y-126525335D01*
X166006838Y-126160711D01*
X165596510Y-126160711D01*
X165596510Y-126428982D01*
X165591021Y-126480703D01*
X165577460Y-126511311D01*
X165557847Y-126527949D01*
X165530656Y-126533670D01*
X165496654Y-126527019D01*
X165476709Y-126509124D01*
X165466297Y-126479221D01*
X165461688Y-126419822D01*
X165461688Y-126187364D01*
G37*
G36*
X164150196Y-125824480D02*
G01*
X164491830Y-125824480D01*
X164461955Y-125744900D01*
X164453454Y-125685262D01*
X164461767Y-125616486D01*
X164485320Y-125560559D01*
X164524017Y-125514476D01*
X164580339Y-125476847D01*
X164658984Y-125448133D01*
X164625535Y-125513311D01*
X164606289Y-125576979D01*
X164600000Y-125640199D01*
X164606912Y-125709827D01*
X164626980Y-125771477D01*
X164660149Y-125826847D01*
X164707619Y-125877054D01*
X164763805Y-125916972D01*
X164827212Y-125945848D01*
X164899168Y-125963764D01*
X164981385Y-125970019D01*
X165625819Y-125970019D01*
X165625819Y-125580940D01*
X165074533Y-125580940D01*
X165023267Y-125571716D01*
X164996382Y-125548138D01*
X164986880Y-125508033D01*
X164992549Y-125478355D01*
X165008572Y-125457615D01*
X165036995Y-125443746D01*
X165083784Y-125438241D01*
X165625819Y-125438241D01*
X165625819Y-125049162D01*
X164712382Y-125049162D01*
X164584581Y-125058986D01*
X164474497Y-125086941D01*
X164379112Y-125131715D01*
X164296100Y-125193326D01*
X164226853Y-125266737D01*
X164174522Y-125344145D01*
X164137558Y-125426278D01*
X164115218Y-125514234D01*
X164107606Y-125609425D01*
X164118049Y-125715730D01*
X164150196Y-125824480D01*
G37*
G36*
X165051360Y-123821475D02*
G01*
X165051360Y-124407292D01*
X165097128Y-124418108D01*
X165135441Y-124421397D01*
X165186843Y-124416616D01*
X165238939Y-124401980D01*
X165238939Y-124208814D01*
X165286627Y-124224717D01*
X165318244Y-124249912D01*
X165337465Y-124284975D01*
X165344452Y-124333378D01*
X165337742Y-124377237D01*
X165317973Y-124414882D01*
X165283635Y-124448050D01*
X165241064Y-124471934D01*
X165189631Y-124487001D01*
X165127198Y-124492380D01*
X165061914Y-124487100D01*
X165009013Y-124472448D01*
X164966089Y-124449515D01*
X164931430Y-124417231D01*
X164911553Y-124380474D01*
X164904815Y-124337500D01*
X164911211Y-124302860D01*
X164931915Y-124266490D01*
X164971310Y-124226766D01*
X164702398Y-124004474D01*
X164646418Y-124085960D01*
X164607491Y-124169627D01*
X164584334Y-124256471D01*
X164576552Y-124347758D01*
X164586517Y-124459384D01*
X164615455Y-124559200D01*
X164663040Y-124649514D01*
X164730425Y-124731982D01*
X164812171Y-124800222D01*
X164901688Y-124848321D01*
X165000636Y-124877538D01*
X165111352Y-124887595D01*
X165221434Y-124877504D01*
X165320382Y-124848110D01*
X165410465Y-124799574D01*
X165493287Y-124730517D01*
X165561725Y-124647166D01*
X165609946Y-124556267D01*
X165639208Y-124456186D01*
X165649267Y-124344644D01*
X165639478Y-124235516D01*
X165611052Y-124137959D01*
X165564294Y-124049702D01*
X165498050Y-123969120D01*
X165417795Y-123902394D01*
X165330147Y-123855401D01*
X165233512Y-123826885D01*
X165125641Y-123817079D01*
X165051360Y-123821475D01*
G37*
D11*
G36*
X165449340Y-96768335D02*
G01*
X164785000Y-96768335D01*
X164785000Y-97049581D01*
X165449340Y-97049581D01*
X165449340Y-97262011D01*
X165722892Y-97262011D01*
X165722892Y-96556577D01*
X165449340Y-96556577D01*
X165449340Y-96768335D01*
G37*
G36*
X165359459Y-95956777D02*
G01*
X165148433Y-95956777D01*
X165148433Y-96139715D01*
X165145361Y-96172955D01*
X165138175Y-96190701D01*
X165125098Y-96201422D01*
X165103492Y-96205416D01*
X165079412Y-96201154D01*
X165067161Y-96190395D01*
X165061312Y-96171173D01*
X165058551Y-96127442D01*
X165058551Y-95939009D01*
X164785000Y-95939009D01*
X164785000Y-96158888D01*
X164790381Y-96236576D01*
X164805330Y-96300303D01*
X164828588Y-96352539D01*
X164859677Y-96395254D01*
X164899546Y-96429966D01*
X164947565Y-96455349D01*
X165005409Y-96471406D01*
X165075343Y-96477137D01*
X165437800Y-96477137D01*
X165505100Y-96471746D01*
X165561319Y-96456591D01*
X165608479Y-96432571D01*
X165648093Y-96399712D01*
X165679632Y-96359023D01*
X165702877Y-96310336D01*
X165717629Y-96252048D01*
X165722892Y-96182091D01*
X165722892Y-95939009D01*
X165449340Y-95939009D01*
X165449340Y-96117855D01*
X165445681Y-96152337D01*
X165436640Y-96172741D01*
X165423565Y-96183834D01*
X165405437Y-96187648D01*
X165382769Y-96183214D01*
X165369473Y-96171283D01*
X165362531Y-96151349D01*
X165359459Y-96111749D01*
X165359459Y-95956777D01*
G37*
G36*
X165257854Y-95441791D02*
G01*
X165007749Y-95441791D01*
X165007749Y-95521720D01*
X164785000Y-95521720D01*
X164785000Y-95803026D01*
X165379670Y-95803026D01*
X165466321Y-95796400D01*
X165538643Y-95777803D01*
X165599191Y-95748441D01*
X165649924Y-95708504D01*
X165690803Y-95658499D01*
X165720724Y-95598966D01*
X165739618Y-95528001D01*
X165746339Y-95443073D01*
X165739983Y-95360493D01*
X165722456Y-95294314D01*
X165695269Y-95241352D01*
X165658778Y-95199197D01*
X165613363Y-95166893D01*
X165555328Y-95142198D01*
X165481771Y-95125993D01*
X165389134Y-95120062D01*
X164785000Y-95120062D01*
X164785000Y-95401308D01*
X165370877Y-95401308D01*
X165422043Y-95405173D01*
X165447752Y-95413886D01*
X165463187Y-95430516D01*
X165468879Y-95458766D01*
X165463466Y-95484880D01*
X165447794Y-95503623D01*
X165419127Y-95516516D01*
X165370877Y-95521720D01*
X165257854Y-95521720D01*
X165257854Y-95441791D01*
G37*
G36*
X164785000Y-94974555D02*
G01*
X165458072Y-94974555D01*
X165520716Y-94969441D01*
X165575323Y-94954788D01*
X165623310Y-94931103D01*
X165665739Y-94898168D01*
X165700778Y-94857463D01*
X165725704Y-94811623D01*
X165741013Y-94759624D01*
X165746339Y-94700026D01*
X165740953Y-94644291D01*
X165725406Y-94595521D01*
X165699888Y-94552293D01*
X165663609Y-94513657D01*
X165614876Y-94479230D01*
X165658866Y-94446195D01*
X165691804Y-94412908D01*
X165715382Y-94379213D01*
X165732045Y-94341736D01*
X165742593Y-94297479D01*
X165746339Y-94245062D01*
X165740797Y-94182744D01*
X165725185Y-94130881D01*
X165700263Y-94087443D01*
X165665739Y-94051011D01*
X165624143Y-94023105D01*
X165573062Y-94002054D01*
X165510541Y-93988450D01*
X165434197Y-93983539D01*
X164785000Y-93983539D01*
X164785000Y-94264785D01*
X165392615Y-94264785D01*
X165435534Y-94266991D01*
X165454225Y-94271624D01*
X165464956Y-94281393D01*
X165468879Y-94299040D01*
X165462487Y-94318884D01*
X165441855Y-94332268D01*
X165397377Y-94338058D01*
X164785000Y-94338058D01*
X164785000Y-94619303D01*
X165392615Y-94619303D01*
X165434920Y-94621589D01*
X165453859Y-94626447D01*
X165464892Y-94636545D01*
X165468879Y-94654230D01*
X165462268Y-94673824D01*
X165440463Y-94687326D01*
X165392615Y-94693248D01*
X164785000Y-94693248D01*
X164785000Y-94974555D01*
G37*
G36*
X165093722Y-93647156D02*
G01*
X165088242Y-93603993D01*
X165072106Y-93565594D01*
X165044630Y-93530652D01*
X165009526Y-93503382D01*
X164971038Y-93487363D01*
X164927882Y-93481925D01*
X164884760Y-93487369D01*
X164846847Y-93503317D01*
X164812782Y-93530347D01*
X164786417Y-93564951D01*
X164770798Y-93603444D01*
X164765460Y-93647156D01*
X164770786Y-93692672D01*
X164786091Y-93731196D01*
X164811439Y-93764331D01*
X164844536Y-93789677D01*
X164883039Y-93804982D01*
X164928553Y-93810310D01*
X164972673Y-93804912D01*
X165011250Y-93789158D01*
X165045668Y-93762622D01*
X165072490Y-93728357D01*
X165088322Y-93690314D01*
X165093722Y-93647156D01*
G37*
G36*
X165484511Y-93647156D02*
G01*
X165479031Y-93603993D01*
X165462894Y-93565594D01*
X165435418Y-93530652D01*
X165400314Y-93503382D01*
X165361827Y-93487363D01*
X165318670Y-93481925D01*
X165275548Y-93487369D01*
X165237635Y-93503317D01*
X165203571Y-93530347D01*
X165177205Y-93564951D01*
X165161586Y-93603444D01*
X165156249Y-93647156D01*
X165161575Y-93692672D01*
X165176880Y-93731196D01*
X165202227Y-93764331D01*
X165235325Y-93789677D01*
X165273828Y-93804982D01*
X165319342Y-93810310D01*
X165363462Y-93804912D01*
X165402039Y-93789158D01*
X165436456Y-93762622D01*
X165463278Y-93728357D01*
X165479110Y-93690314D01*
X165484511Y-93647156D01*
G37*
G36*
X165106973Y-92636601D02*
G01*
X165355001Y-92636601D01*
X165359825Y-92596160D01*
X165372009Y-92571506D01*
X165390312Y-92557540D01*
X165416612Y-92552581D01*
X165441640Y-92556639D01*
X165458268Y-92567619D01*
X165468766Y-92585962D01*
X165472787Y-92614802D01*
X165467980Y-92642257D01*
X165454713Y-92660927D01*
X165431922Y-92673037D01*
X165395301Y-92677756D01*
X164785000Y-92677756D01*
X164785000Y-92959063D01*
X165366664Y-92959063D01*
X165453528Y-92954022D01*
X165516263Y-92940867D01*
X165572161Y-92916554D01*
X165625256Y-92878646D01*
X165659647Y-92843327D01*
X165689126Y-92802322D01*
X165713794Y-92754998D01*
X165731954Y-92704760D01*
X165742741Y-92653866D01*
X165746339Y-92601857D01*
X165740081Y-92532121D01*
X165721902Y-92469758D01*
X165691996Y-92413319D01*
X165649619Y-92361767D01*
X165598300Y-92319144D01*
X165542040Y-92289073D01*
X165479789Y-92270793D01*
X165410078Y-92264497D01*
X165341891Y-92270325D01*
X165282658Y-92287020D01*
X165230741Y-92314060D01*
X165184947Y-92351814D01*
X165151970Y-92393817D01*
X165127233Y-92446271D01*
X165111242Y-92511469D01*
X165105446Y-92592332D01*
X165106973Y-92636601D01*
G37*
G36*
X165461064Y-92172601D02*
G01*
X165461064Y-91913154D01*
X165074183Y-91913154D01*
X165042296Y-91907319D01*
X165025461Y-91892320D01*
X165019473Y-91866625D01*
X165025423Y-91841366D01*
X165042223Y-91826553D01*
X165074183Y-91820769D01*
X165461064Y-91820769D01*
X165461064Y-91561383D01*
X165078946Y-91561383D01*
X165013685Y-91567122D01*
X164955158Y-91583802D01*
X164902062Y-91611231D01*
X164853449Y-91650043D01*
X164812945Y-91697302D01*
X164784571Y-91748596D01*
X164767430Y-91804843D01*
X164761552Y-91867358D01*
X164768520Y-91938458D01*
X164788591Y-92000306D01*
X164821500Y-92054796D01*
X164868286Y-92103175D01*
X164911398Y-92132174D01*
X164963115Y-92153815D01*
X165025115Y-92167651D01*
X165099462Y-92172601D01*
X165461064Y-92172601D01*
G37*
G36*
X165475474Y-91038825D02*
G01*
X165197953Y-91038825D01*
X165208037Y-91067241D01*
X165210959Y-91089261D01*
X165205246Y-91117590D01*
X165188843Y-91137738D01*
X165159148Y-91151467D01*
X165109537Y-91156978D01*
X164785000Y-91156978D01*
X164785000Y-91416425D01*
X165158630Y-91416425D01*
X165232543Y-91410834D01*
X165295556Y-91395002D01*
X165349531Y-91369787D01*
X165395912Y-91335275D01*
X165434259Y-91291894D01*
X165461660Y-91242238D01*
X165478587Y-91185068D01*
X165484511Y-91118632D01*
X165475474Y-91038825D01*
G37*
G36*
X165468879Y-90708548D02*
G01*
X164785000Y-90708548D01*
X164785000Y-90967995D01*
X165468879Y-90967995D01*
X165468879Y-90708548D01*
G37*
G36*
X165773695Y-90837569D02*
G01*
X165769522Y-90803939D01*
X165757227Y-90773878D01*
X165736325Y-90746406D01*
X165709521Y-90724753D01*
X165680398Y-90712136D01*
X165647971Y-90707876D01*
X165613178Y-90712085D01*
X165583780Y-90724194D01*
X165558517Y-90744330D01*
X165539342Y-90770468D01*
X165527672Y-90801118D01*
X165523590Y-90837569D01*
X165527672Y-90874020D01*
X165539342Y-90904671D01*
X165558517Y-90930809D01*
X165583780Y-90950944D01*
X165613178Y-90963053D01*
X165647971Y-90967262D01*
X165680402Y-90963008D01*
X165709526Y-90950410D01*
X165736325Y-90928794D01*
X165757229Y-90901284D01*
X165769523Y-90871201D01*
X165773695Y-90837569D01*
G37*
G36*
X165722892Y-90331132D02*
G01*
X165461064Y-90331132D01*
X165461064Y-90216399D01*
X165187512Y-90216399D01*
X165187512Y-90331132D01*
X165135081Y-90327574D01*
X165100426Y-90318599D01*
X165078518Y-90306036D01*
X165063076Y-90286886D01*
X165052491Y-90256879D01*
X165048354Y-90211575D01*
X164775535Y-90211575D01*
X164773276Y-90242899D01*
X164777818Y-90300069D01*
X164791335Y-90354691D01*
X164814003Y-90407458D01*
X164844707Y-90455949D01*
X164881445Y-90497063D01*
X164924584Y-90531472D01*
X164969886Y-90556054D01*
X165023347Y-90574514D01*
X165086397Y-90586315D01*
X165160706Y-90590518D01*
X165722892Y-90590518D01*
X165722892Y-90331132D01*
G37*
G36*
X165457156Y-89349337D02*
G01*
X165450720Y-89297424D01*
X165431874Y-89251736D01*
X165400003Y-89210668D01*
X165359044Y-89178717D01*
X165313498Y-89159838D01*
X165261762Y-89153393D01*
X165210023Y-89159836D01*
X165164456Y-89178715D01*
X165123459Y-89210668D01*
X165091625Y-89251732D01*
X165072798Y-89297420D01*
X165066367Y-89349337D01*
X165072799Y-89401293D01*
X165091628Y-89447001D01*
X165123459Y-89488066D01*
X165164456Y-89520020D01*
X165210023Y-89538898D01*
X165261762Y-89545341D01*
X165313498Y-89538896D01*
X165359044Y-89520017D01*
X165400003Y-89488066D01*
X165431871Y-89446997D01*
X165450718Y-89401289D01*
X165457156Y-89349337D01*
G37*
G36*
X165464972Y-88161645D02*
G01*
X164785000Y-88161645D01*
X164785000Y-88442890D01*
X165722892Y-88442890D01*
X165722892Y-88085074D01*
X165717101Y-88003180D01*
X165700919Y-87935171D01*
X165675564Y-87878639D01*
X165641437Y-87831673D01*
X165592557Y-87787579D01*
X165538535Y-87756597D01*
X165478283Y-87737781D01*
X165410200Y-87731289D01*
X165354980Y-87736191D01*
X165304199Y-87750593D01*
X165256894Y-87774538D01*
X165212353Y-87808735D01*
X165170170Y-87854509D01*
X164785000Y-87694103D01*
X164785000Y-87989331D01*
X165086517Y-88124581D01*
X165328196Y-88124581D01*
X165328196Y-88100767D01*
X165333542Y-88060710D01*
X165347365Y-88035540D01*
X165368932Y-88020705D01*
X165400980Y-88015282D01*
X165427551Y-88020772D01*
X165446602Y-88036651D01*
X165459692Y-88065661D01*
X165464972Y-88114445D01*
X165464972Y-88161645D01*
G37*
G36*
X165468879Y-87365352D02*
G01*
X164785000Y-87365352D01*
X164785000Y-87624799D01*
X165468879Y-87624799D01*
X165468879Y-87365352D01*
G37*
G36*
X165773695Y-87494373D02*
G01*
X165769522Y-87460743D01*
X165757227Y-87430682D01*
X165736325Y-87403210D01*
X165709521Y-87381557D01*
X165680398Y-87368940D01*
X165647971Y-87364680D01*
X165613178Y-87368889D01*
X165583780Y-87380998D01*
X165558517Y-87401133D01*
X165539342Y-87427271D01*
X165527672Y-87457922D01*
X165523590Y-87494373D01*
X165527672Y-87530824D01*
X165539342Y-87561475D01*
X165558517Y-87587613D01*
X165583780Y-87607748D01*
X165613178Y-87619857D01*
X165647971Y-87624066D01*
X165680402Y-87619812D01*
X165709526Y-87607214D01*
X165736325Y-87585598D01*
X165757229Y-87558088D01*
X165769523Y-87528005D01*
X165773695Y-87494373D01*
G37*
G36*
X165468879Y-86645873D02*
G01*
X165058551Y-86854884D01*
X165058551Y-86615648D01*
X164785000Y-86615648D01*
X164785000Y-87277241D01*
X165195327Y-87069574D01*
X165195327Y-87284202D01*
X165468879Y-87284202D01*
X165468879Y-86645873D01*
G37*
G36*
X165045423Y-86144321D02*
G01*
X164776451Y-86144321D01*
X164769368Y-86203672D01*
X164776021Y-86279238D01*
X164795280Y-86346355D01*
X164826828Y-86406630D01*
X164871339Y-86461226D01*
X164925504Y-86506244D01*
X164985307Y-86538099D01*
X165051910Y-86557526D01*
X165126939Y-86564235D01*
X165199714Y-86557566D01*
X165265316Y-86538118D01*
X165325217Y-86505968D01*
X165380464Y-86460188D01*
X165426270Y-86404906D01*
X165458418Y-86345058D01*
X165477851Y-86279606D01*
X165484511Y-86207091D01*
X165477812Y-86124870D01*
X165458850Y-86055208D01*
X165428574Y-85995840D01*
X165386875Y-85945080D01*
X165335430Y-85904267D01*
X165275124Y-85874513D01*
X165204230Y-85855826D01*
X165120467Y-85849214D01*
X164785000Y-85849214D01*
X164785000Y-86108600D01*
X165102088Y-86108600D01*
X165136887Y-86111765D01*
X165164758Y-86120543D01*
X165187145Y-86134368D01*
X165204662Y-86153437D01*
X165215127Y-86176150D01*
X165218775Y-86203672D01*
X165211654Y-86240379D01*
X165190076Y-86271999D01*
X165158570Y-86293626D01*
X165121994Y-86300758D01*
X165083817Y-86294064D01*
X165053911Y-86274685D01*
X165034074Y-86245409D01*
X165027288Y-86208435D01*
X165031719Y-86176316D01*
X165045423Y-86144321D01*
G37*
G36*
X165722892Y-85444626D02*
G01*
X164785000Y-85444626D01*
X164785000Y-85704073D01*
X165722892Y-85704073D01*
X165722892Y-85444626D01*
G37*
G36*
X165457156Y-84554361D02*
G01*
X165450720Y-84502449D01*
X165431874Y-84456760D01*
X165400003Y-84415692D01*
X165359044Y-84383741D01*
X165313498Y-84364862D01*
X165261762Y-84358417D01*
X165210023Y-84364861D01*
X165164456Y-84383739D01*
X165123459Y-84415692D01*
X165091625Y-84456756D01*
X165072798Y-84502445D01*
X165066367Y-84554361D01*
X165072799Y-84606318D01*
X165091628Y-84652026D01*
X165123459Y-84693091D01*
X165164456Y-84725044D01*
X165210023Y-84743922D01*
X165261762Y-84750366D01*
X165313498Y-84743921D01*
X165359044Y-84725042D01*
X165400003Y-84693091D01*
X165431871Y-84652021D01*
X165450718Y-84606314D01*
X165457156Y-84554361D01*
G37*
G36*
X165464972Y-83366669D02*
G01*
X164785000Y-83366669D01*
X164785000Y-83647915D01*
X165722892Y-83647915D01*
X165722892Y-83290099D01*
X165717101Y-83208205D01*
X165700919Y-83140195D01*
X165675564Y-83083664D01*
X165641437Y-83036697D01*
X165592557Y-82992603D01*
X165538535Y-82961622D01*
X165478283Y-82942806D01*
X165410200Y-82936313D01*
X165354980Y-82941216D01*
X165304199Y-82955617D01*
X165256894Y-82979563D01*
X165212353Y-83013760D01*
X165170170Y-83059534D01*
X164785000Y-82899127D01*
X164785000Y-83194356D01*
X165086517Y-83329605D01*
X165328196Y-83329605D01*
X165328196Y-83305791D01*
X165333542Y-83265734D01*
X165347365Y-83240565D01*
X165368932Y-83225730D01*
X165400980Y-83220307D01*
X165427551Y-83225797D01*
X165446602Y-83241675D01*
X165459692Y-83270685D01*
X165464972Y-83319469D01*
X165464972Y-83366669D01*
G37*
G36*
X165045423Y-82447461D02*
G01*
X164776451Y-82447461D01*
X164769368Y-82506812D01*
X164776021Y-82582378D01*
X164795280Y-82649495D01*
X164826828Y-82709771D01*
X164871339Y-82764366D01*
X164925504Y-82809384D01*
X164985307Y-82841239D01*
X165051910Y-82860666D01*
X165126939Y-82867376D01*
X165199714Y-82860707D01*
X165265316Y-82841258D01*
X165325217Y-82809108D01*
X165380464Y-82763328D01*
X165426270Y-82708046D01*
X165458418Y-82648198D01*
X165477851Y-82582747D01*
X165484511Y-82510231D01*
X165477812Y-82428011D01*
X165458850Y-82358348D01*
X165428574Y-82298980D01*
X165386875Y-82248220D01*
X165335430Y-82207407D01*
X165275124Y-82177653D01*
X165204230Y-82158966D01*
X165120467Y-82152355D01*
X164785000Y-82152355D01*
X164785000Y-82411741D01*
X165102088Y-82411741D01*
X165136887Y-82414905D01*
X165164758Y-82423683D01*
X165187145Y-82437508D01*
X165204662Y-82456578D01*
X165215127Y-82479290D01*
X165218775Y-82506812D01*
X165211654Y-82543519D01*
X165190076Y-82575139D01*
X165158570Y-82596766D01*
X165121994Y-82603899D01*
X165083817Y-82597204D01*
X165053911Y-82577826D01*
X165034074Y-82548549D01*
X165027288Y-82511575D01*
X165031719Y-82479457D01*
X165045423Y-82447461D01*
G37*
G36*
X165101905Y-81588581D02*
G01*
X165111552Y-81331577D01*
X165037834Y-81343124D01*
X164973092Y-81365514D01*
X164915851Y-81398451D01*
X164865050Y-81442402D01*
X164823094Y-81495049D01*
X164793498Y-81552285D01*
X164775537Y-81615104D01*
X164769368Y-81684874D01*
X164776132Y-81758421D01*
X164795835Y-81824526D01*
X164828379Y-81884710D01*
X164874698Y-81940047D01*
X164930533Y-81985706D01*
X164991358Y-82017874D01*
X165058257Y-82037388D01*
X165132740Y-82044094D01*
X165203231Y-82037431D01*
X165267275Y-82017918D01*
X165326287Y-81985479D01*
X165381257Y-81939009D01*
X165426810Y-81883276D01*
X165458711Y-81823404D01*
X165477940Y-81758403D01*
X165484511Y-81686889D01*
X165479337Y-81624011D01*
X165464139Y-81565879D01*
X165438943Y-81511533D01*
X165403178Y-81460231D01*
X165359474Y-81415637D01*
X165310466Y-81380664D01*
X165255493Y-81354669D01*
X165193557Y-81337561D01*
X165183909Y-81599694D01*
X165208024Y-81624458D01*
X165221903Y-81651998D01*
X165226591Y-81683469D01*
X165219470Y-81723003D01*
X165198808Y-81753872D01*
X165167749Y-81774288D01*
X165128649Y-81781289D01*
X165101116Y-81777964D01*
X165077339Y-81768317D01*
X165056414Y-81752163D01*
X165040288Y-81731227D01*
X165030627Y-81707276D01*
X165027288Y-81679378D01*
X165031744Y-81650506D01*
X165044748Y-81626414D01*
X165067235Y-81605835D01*
X165101905Y-81588581D01*
G37*
G36*
X165722892Y-80965212D02*
G01*
X165437433Y-80965212D01*
X165464281Y-80921912D01*
X165479544Y-80879604D01*
X165484511Y-80837351D01*
X165479766Y-80789143D01*
X165466157Y-80747663D01*
X165443929Y-80711539D01*
X165412398Y-80679876D01*
X165375180Y-80655408D01*
X165331264Y-80637254D01*
X165279397Y-80625723D01*
X165218042Y-80621624D01*
X164785000Y-80621624D01*
X164785000Y-80881010D01*
X165146357Y-80881010D01*
X165186109Y-80883790D01*
X165204303Y-80889802D01*
X165214733Y-80901813D01*
X165218775Y-80924118D01*
X165212697Y-80945801D01*
X165194256Y-80959527D01*
X165156615Y-80965212D01*
X164785000Y-80965212D01*
X164785000Y-81224659D01*
X165722892Y-81224659D01*
X165722892Y-80965212D01*
G37*
G36*
X165085907Y-79803105D02*
G01*
X165085907Y-80193649D01*
X165116418Y-80200860D01*
X165141960Y-80203052D01*
X165176228Y-80199865D01*
X165210959Y-80190108D01*
X165210959Y-80061331D01*
X165242751Y-80071933D01*
X165263829Y-80088729D01*
X165276643Y-80112104D01*
X165281301Y-80144373D01*
X165276828Y-80173613D01*
X165263648Y-80198709D01*
X165240757Y-80220821D01*
X165212376Y-80236744D01*
X165178087Y-80246789D01*
X165136465Y-80250375D01*
X165092942Y-80246855D01*
X165057675Y-80237087D01*
X165029059Y-80221798D01*
X165005953Y-80200275D01*
X164992702Y-80175770D01*
X164988210Y-80147121D01*
X164992474Y-80124028D01*
X165006276Y-80099781D01*
X165032540Y-80073298D01*
X164853265Y-79925104D01*
X164815945Y-79979428D01*
X164789994Y-80035206D01*
X164774556Y-80093102D01*
X164769368Y-80153960D01*
X164776011Y-80228377D01*
X164795303Y-80294921D01*
X164827026Y-80355130D01*
X164871950Y-80410109D01*
X164926447Y-80455603D01*
X164986125Y-80487669D01*
X165052090Y-80507147D01*
X165125901Y-80513852D01*
X165199289Y-80507124D01*
X165265255Y-80487528D01*
X165325310Y-80455170D01*
X165380525Y-80409132D01*
X165426150Y-80353565D01*
X165458297Y-80292966D01*
X165477805Y-80226246D01*
X165484511Y-80151884D01*
X165477985Y-80079132D01*
X165459034Y-80014094D01*
X165427863Y-79955256D01*
X165383700Y-79901535D01*
X165330196Y-79857051D01*
X165271765Y-79825722D01*
X165207341Y-79806711D01*
X165135427Y-79800174D01*
X165085907Y-79803105D01*
G37*
G36*
X165722892Y-79441137D02*
G01*
X164785000Y-79441137D01*
X164785000Y-79700584D01*
X165722892Y-79700584D01*
X165722892Y-79441137D01*
G37*
G36*
X165457156Y-78550872D02*
G01*
X165450720Y-78498959D01*
X165431874Y-78453271D01*
X165400003Y-78412203D01*
X165359044Y-78380252D01*
X165313498Y-78361373D01*
X165261762Y-78354928D01*
X165210023Y-78361372D01*
X165164456Y-78380250D01*
X165123459Y-78412203D01*
X165091625Y-78453267D01*
X165072798Y-78498955D01*
X165066367Y-78550872D01*
X165072799Y-78602829D01*
X165091628Y-78648536D01*
X165123459Y-78689602D01*
X165164456Y-78721555D01*
X165210023Y-78740433D01*
X165261762Y-78746877D01*
X165313498Y-78740432D01*
X165359044Y-78721553D01*
X165400003Y-78689602D01*
X165431871Y-78648532D01*
X165450718Y-78602824D01*
X165457156Y-78550872D01*
G37*
G36*
X165722892Y-77374110D02*
G01*
X165090425Y-77374110D01*
X165019855Y-77379550D01*
X164957945Y-77395154D01*
X164903239Y-77420352D01*
X164854609Y-77455259D01*
X164813560Y-77498970D01*
X164784875Y-77547102D01*
X164767525Y-77600618D01*
X164761552Y-77660973D01*
X164765268Y-77698790D01*
X164777978Y-77747618D01*
X165050675Y-77747618D01*
X165041599Y-77725105D01*
X165039012Y-77708051D01*
X165043690Y-77686506D01*
X165057426Y-77670802D01*
X165082998Y-77659825D01*
X165126573Y-77655355D01*
X165722892Y-77655355D01*
X165722892Y-77374110D01*
G37*
G36*
X165085907Y-76565422D02*
G01*
X165085907Y-76955966D01*
X165116418Y-76963177D01*
X165141960Y-76965369D01*
X165176228Y-76962182D01*
X165210959Y-76952424D01*
X165210959Y-76823647D01*
X165242751Y-76834249D01*
X165263829Y-76851046D01*
X165276643Y-76874421D01*
X165281301Y-76906690D01*
X165276828Y-76935929D01*
X165263648Y-76961026D01*
X165240757Y-76983138D01*
X165212376Y-76999061D01*
X165178087Y-77009106D01*
X165136465Y-77012691D01*
X165092942Y-77009172D01*
X165057675Y-76999404D01*
X165029059Y-76984115D01*
X165005953Y-76962592D01*
X164992702Y-76938087D01*
X164988210Y-76909438D01*
X164992474Y-76886345D01*
X165006276Y-76862098D01*
X165032540Y-76835615D01*
X164853265Y-76687421D01*
X164815945Y-76741744D01*
X164789994Y-76797522D01*
X164774556Y-76855419D01*
X164769368Y-76916276D01*
X164776011Y-76990694D01*
X164795303Y-77057238D01*
X164827026Y-77117447D01*
X164871950Y-77172426D01*
X164926447Y-77217920D01*
X164986125Y-77249985D01*
X165052090Y-77269463D01*
X165125901Y-77276168D01*
X165199289Y-77269441D01*
X165265255Y-77249845D01*
X165325310Y-77217487D01*
X165380525Y-77171449D01*
X165426150Y-77115882D01*
X165458297Y-77055282D01*
X165477805Y-76988562D01*
X165484511Y-76914200D01*
X165477985Y-76841448D01*
X165459034Y-76776410D01*
X165427863Y-76717573D01*
X165383700Y-76663852D01*
X165330196Y-76619368D01*
X165271765Y-76588039D01*
X165207341Y-76569028D01*
X165135427Y-76562491D01*
X165085907Y-76565422D01*
G37*
G36*
X165461064Y-76031995D02*
G01*
X165186352Y-76031995D01*
X165180492Y-76081665D01*
X165166751Y-76106734D01*
X165141248Y-76121479D01*
X165088349Y-76131768D01*
X165008997Y-76144759D01*
X164943286Y-76167148D01*
X164888952Y-76198058D01*
X164844264Y-76237377D01*
X164808142Y-76285764D01*
X164785929Y-76335840D01*
X164771026Y-76402562D01*
X164765460Y-76490317D01*
X164765460Y-76527747D01*
X165039012Y-76527747D01*
X165039012Y-76514192D01*
X165042399Y-76474407D01*
X165051222Y-76446667D01*
X165064230Y-76427791D01*
X165082904Y-76414253D01*
X165111410Y-76403936D01*
X165153318Y-76397993D01*
X165250865Y-76389277D01*
X165301695Y-76378393D01*
X165342895Y-76358032D01*
X165386936Y-76320873D01*
X165418361Y-76280995D01*
X165441379Y-76233792D01*
X165455905Y-76177821D01*
X165461064Y-76111191D01*
X165461064Y-76031995D01*
G37*
G36*
X165722892Y-75693475D02*
G01*
X164785000Y-75693475D01*
X164785000Y-75952922D01*
X165722892Y-75952922D01*
X165722892Y-75693475D01*
G37*
G36*
X165468879Y-75289009D02*
G01*
X164785000Y-75289009D01*
X164785000Y-75548455D01*
X165468879Y-75548455D01*
X165468879Y-75289009D01*
G37*
G36*
X165773695Y-75418030D02*
G01*
X165769522Y-75384400D01*
X165757227Y-75354338D01*
X165736325Y-75326866D01*
X165709521Y-75305214D01*
X165680398Y-75292596D01*
X165647971Y-75288337D01*
X165613178Y-75292546D01*
X165583780Y-75304655D01*
X165558517Y-75324790D01*
X165539342Y-75350928D01*
X165527672Y-75381579D01*
X165523590Y-75418030D01*
X165527672Y-75454481D01*
X165539342Y-75485131D01*
X165558517Y-75511270D01*
X165583780Y-75531405D01*
X165613178Y-75543514D01*
X165647971Y-75547723D01*
X165680402Y-75543469D01*
X165709526Y-75530870D01*
X165736325Y-75509255D01*
X165757229Y-75481745D01*
X165769523Y-75451662D01*
X165773695Y-75418030D01*
G37*
G36*
X164785000Y-74531795D02*
G01*
X164785000Y-74791181D01*
X165170964Y-74791181D01*
X165203470Y-74797054D01*
X165220546Y-74812089D01*
X165226591Y-74837709D01*
X165220584Y-74862894D01*
X165203544Y-74877743D01*
X165170964Y-74883565D01*
X164785000Y-74883565D01*
X164785000Y-75143012D01*
X165166140Y-75143012D01*
X165231824Y-75137261D01*
X165290622Y-75120561D01*
X165343858Y-75093128D01*
X165392493Y-75054352D01*
X165433055Y-75007086D01*
X165461466Y-74955789D01*
X165478627Y-74899545D01*
X165484511Y-74837037D01*
X165477515Y-74765582D01*
X165457391Y-74703644D01*
X165424445Y-74649282D01*
X165377655Y-74601221D01*
X165334581Y-74572252D01*
X165282778Y-74550609D01*
X165220534Y-74536756D01*
X165145746Y-74531795D01*
X164785000Y-74531795D01*
G37*
G36*
X165457156Y-73641591D02*
G01*
X165450720Y-73589678D01*
X165431874Y-73543990D01*
X165400003Y-73502922D01*
X165359044Y-73470971D01*
X165313498Y-73452092D01*
X165261762Y-73445647D01*
X165210023Y-73452091D01*
X165164456Y-73470969D01*
X165123459Y-73502922D01*
X165091625Y-73543986D01*
X165072798Y-73589674D01*
X165066367Y-73641591D01*
X165072799Y-73693547D01*
X165091628Y-73739255D01*
X165123459Y-73780320D01*
X165164456Y-73812274D01*
X165210023Y-73831152D01*
X165261762Y-73837595D01*
X165313498Y-73831150D01*
X165359044Y-73812271D01*
X165400003Y-73780320D01*
X165431871Y-73739251D01*
X165450718Y-73693543D01*
X165457156Y-73641591D01*
G37*
G36*
X165722892Y-72072513D02*
G01*
X165303344Y-72337761D01*
X164785000Y-72337761D01*
X164785000Y-72619007D01*
X165303344Y-72619007D01*
X165722892Y-72886331D01*
X165722892Y-72600261D01*
X165530551Y-72481071D01*
X165722892Y-72353087D01*
X165722892Y-72072513D01*
G37*
G36*
X165461064Y-72050898D02*
G01*
X165461064Y-71791451D01*
X165074183Y-71791451D01*
X165042296Y-71785617D01*
X165025461Y-71770617D01*
X165019473Y-71744923D01*
X165025423Y-71719664D01*
X165042223Y-71704850D01*
X165074183Y-71699066D01*
X165461064Y-71699066D01*
X165461064Y-71439680D01*
X165078946Y-71439680D01*
X165013685Y-71445420D01*
X164955158Y-71462099D01*
X164902062Y-71489528D01*
X164853449Y-71528340D01*
X164812945Y-71575599D01*
X164784571Y-71626894D01*
X164767430Y-71683141D01*
X164761552Y-71745655D01*
X164768520Y-71816755D01*
X164788591Y-71878603D01*
X164821500Y-71933094D01*
X164868286Y-71981472D01*
X164911398Y-72010471D01*
X164963115Y-72032112D01*
X165025115Y-72045948D01*
X165099462Y-72050898D01*
X165461064Y-72050898D01*
G37*
G36*
X165243871Y-70644853D02*
G01*
X165236238Y-70350601D01*
X165144089Y-70367412D01*
X165064327Y-70392015D01*
X164995383Y-70423741D01*
X164935924Y-70462257D01*
X164884895Y-70507588D01*
X164841208Y-70560831D01*
X164807130Y-70619871D01*
X164782313Y-70685522D01*
X164766908Y-70758870D01*
X164761552Y-70841224D01*
X164767429Y-70923900D01*
X164784526Y-70999184D01*
X164812460Y-71068260D01*
X164851410Y-71132085D01*
X164902114Y-71191346D01*
X164961242Y-71242224D01*
X165024872Y-71281279D01*
X165093683Y-71309269D01*
X165168630Y-71326391D01*
X165250893Y-71332274D01*
X165333565Y-71326304D01*
X165409096Y-71308903D01*
X165478660Y-71280410D01*
X165543204Y-71240580D01*
X165603396Y-71188599D01*
X165655066Y-71128146D01*
X165694693Y-71063302D01*
X165723060Y-70993395D01*
X165740391Y-70917478D01*
X165746339Y-70834385D01*
X165740451Y-70752559D01*
X165723327Y-70678152D01*
X165695350Y-70609964D01*
X165656321Y-70547028D01*
X165605472Y-70488660D01*
X165554711Y-70446141D01*
X165493338Y-70409047D01*
X165419786Y-70377598D01*
X165332165Y-70352372D01*
X165312076Y-70653401D01*
X165372264Y-70678929D01*
X165415391Y-70710136D01*
X165444892Y-70746794D01*
X165462676Y-70789837D01*
X165468879Y-70841224D01*
X165461840Y-70897158D01*
X165441459Y-70944873D01*
X165407269Y-70986365D01*
X165363281Y-71017702D01*
X165311719Y-71036824D01*
X165250465Y-71043518D01*
X165191548Y-71036977D01*
X165141677Y-71018236D01*
X165098852Y-70987404D01*
X165065651Y-70946721D01*
X165045850Y-70900002D01*
X165039012Y-70845315D01*
X165045250Y-70789238D01*
X165062829Y-70743675D01*
X165091341Y-70706280D01*
X165129326Y-70677728D01*
X165179143Y-70656936D01*
X165243871Y-70644853D01*
G37*
G36*
X165722892Y-69983077D02*
G01*
X165437433Y-69983077D01*
X165464281Y-69939776D01*
X165479544Y-69897468D01*
X165484511Y-69855216D01*
X165479766Y-69807008D01*
X165466157Y-69765528D01*
X165443929Y-69729403D01*
X165412398Y-69697740D01*
X165375180Y-69673272D01*
X165331264Y-69655118D01*
X165279397Y-69643588D01*
X165218042Y-69639488D01*
X164785000Y-69639488D01*
X164785000Y-69898874D01*
X165146357Y-69898874D01*
X165186109Y-69901654D01*
X165204303Y-69907667D01*
X165214733Y-69919678D01*
X165218775Y-69941983D01*
X165212697Y-69963665D01*
X165194256Y-69977392D01*
X165156615Y-69983077D01*
X164785000Y-69983077D01*
X164785000Y-70242524D01*
X165722892Y-70242524D01*
X165722892Y-69983077D01*
G37*
G36*
X165468879Y-69234717D02*
G01*
X164785000Y-69234717D01*
X164785000Y-69494164D01*
X165468879Y-69494164D01*
X165468879Y-69234717D01*
G37*
G36*
X165773695Y-69363738D02*
G01*
X165769522Y-69330108D01*
X165757227Y-69300047D01*
X165736325Y-69272574D01*
X165709521Y-69250922D01*
X165680398Y-69238305D01*
X165647971Y-69234045D01*
X165613178Y-69238254D01*
X165583780Y-69250363D01*
X165558517Y-69270498D01*
X165539342Y-69296636D01*
X165527672Y-69327287D01*
X165523590Y-69363738D01*
X165527672Y-69400189D01*
X165539342Y-69430840D01*
X165558517Y-69456978D01*
X165583780Y-69477113D01*
X165613178Y-69489222D01*
X165647971Y-69493431D01*
X165680402Y-69489177D01*
X165709526Y-69476579D01*
X165736325Y-69454963D01*
X165757229Y-69427453D01*
X165769523Y-69397370D01*
X165773695Y-69363738D01*
G37*
G36*
X164785000Y-68477503D02*
G01*
X164785000Y-68736889D01*
X165170964Y-68736889D01*
X165203470Y-68742762D01*
X165220546Y-68757797D01*
X165226591Y-68783417D01*
X165220584Y-68808603D01*
X165203544Y-68823451D01*
X165170964Y-68829274D01*
X164785000Y-68829274D01*
X164785000Y-69088721D01*
X165166140Y-69088721D01*
X165231824Y-69082969D01*
X165290622Y-69066270D01*
X165343858Y-69038837D01*
X165392493Y-69000061D01*
X165433055Y-68952794D01*
X165461466Y-68901498D01*
X165478627Y-68845254D01*
X165484511Y-68782745D01*
X165477515Y-68711290D01*
X165457391Y-68649352D01*
X165424445Y-68594990D01*
X165377655Y-68546929D01*
X165334581Y-68517961D01*
X165282778Y-68496317D01*
X165220534Y-68482464D01*
X165145746Y-68477503D01*
X164785000Y-68477503D01*
G37*
G36*
X165070275Y-67965204D02*
G01*
X164831955Y-67965204D01*
X164817049Y-68021793D01*
X164812355Y-68073037D01*
X164818303Y-68133246D01*
X164835712Y-68187644D01*
X164864699Y-68237541D01*
X164906388Y-68283818D01*
X164955846Y-68321463D01*
X165009941Y-68348186D01*
X165069622Y-68364483D01*
X165136160Y-68370097D01*
X165207551Y-68363444D01*
X165271679Y-68344061D01*
X165330044Y-68312021D01*
X165383700Y-68266355D01*
X165427842Y-68211469D01*
X165459026Y-68151492D01*
X165477986Y-68085349D01*
X165484511Y-68011549D01*
X165480903Y-67958656D01*
X165470147Y-67907543D01*
X165452149Y-67857737D01*
X165427376Y-67811043D01*
X165398461Y-67772893D01*
X165365382Y-67742210D01*
X165319190Y-67713462D01*
X165261868Y-67691553D01*
X165191095Y-67677286D01*
X165104103Y-67672112D01*
X164880437Y-67672112D01*
X164789736Y-67679162D01*
X164711216Y-67699273D01*
X164642799Y-67731577D01*
X164582889Y-67776160D01*
X164541756Y-67820213D01*
X164510116Y-67868587D01*
X164487338Y-67921890D01*
X164473314Y-67981015D01*
X164468461Y-68047086D01*
X164473732Y-68100833D01*
X164492519Y-68176779D01*
X164731083Y-68176779D01*
X164709696Y-68123830D01*
X164702934Y-68073708D01*
X164708263Y-68030416D01*
X164723236Y-67996072D01*
X164747691Y-67968562D01*
X164779601Y-67948966D01*
X164821532Y-67936203D01*
X164876346Y-67931498D01*
X165132069Y-67931498D01*
X165182442Y-67937904D01*
X165213679Y-67954297D01*
X165231778Y-67979457D01*
X165238314Y-68016311D01*
X165231522Y-68049917D01*
X165210654Y-68079570D01*
X165180626Y-68099987D01*
X165147090Y-68106620D01*
X165112072Y-68100107D01*
X165083831Y-68080914D01*
X165064960Y-68052285D01*
X165058551Y-68017044D01*
X165061395Y-67991710D01*
X165070275Y-67965204D01*
G37*
D12*
X122014285Y-110044580D02*
X122061904Y-110092200D01*
X122061904Y-110092200D02*
X122204761Y-110139819D01*
X122204761Y-110139819D02*
X122299999Y-110139819D01*
X122299999Y-110139819D02*
X122442856Y-110092200D01*
X122442856Y-110092200D02*
X122538094Y-109996961D01*
X122538094Y-109996961D02*
X122585713Y-109901723D01*
X122585713Y-109901723D02*
X122633332Y-109711247D01*
X122633332Y-109711247D02*
X122633332Y-109568390D01*
X122633332Y-109568390D02*
X122585713Y-109377914D01*
X122585713Y-109377914D02*
X122538094Y-109282676D01*
X122538094Y-109282676D02*
X122442856Y-109187438D01*
X122442856Y-109187438D02*
X122299999Y-109139819D01*
X122299999Y-109139819D02*
X122204761Y-109139819D01*
X122204761Y-109139819D02*
X122061904Y-109187438D01*
X122061904Y-109187438D02*
X122014285Y-109235057D01*
X121585713Y-110139819D02*
X121585713Y-109139819D01*
X121585713Y-109616009D02*
X121014285Y-109616009D01*
X121014285Y-110139819D02*
X121014285Y-109139819D01*
X119966666Y-110139819D02*
X120299999Y-109663628D01*
X120538094Y-110139819D02*
X120538094Y-109139819D01*
X120538094Y-109139819D02*
X120157142Y-109139819D01*
X120157142Y-109139819D02*
X120061904Y-109187438D01*
X120061904Y-109187438D02*
X120014285Y-109235057D01*
X120014285Y-109235057D02*
X119966666Y-109330295D01*
X119966666Y-109330295D02*
X119966666Y-109473152D01*
X119966666Y-109473152D02*
X120014285Y-109568390D01*
X120014285Y-109568390D02*
X120061904Y-109616009D01*
X120061904Y-109616009D02*
X120157142Y-109663628D01*
X120157142Y-109663628D02*
X120538094Y-109663628D01*
X119014285Y-109187438D02*
X119109523Y-109139819D01*
X119109523Y-109139819D02*
X119252380Y-109139819D01*
X119252380Y-109139819D02*
X119395237Y-109187438D01*
X119395237Y-109187438D02*
X119490475Y-109282676D01*
X119490475Y-109282676D02*
X119538094Y-109377914D01*
X119538094Y-109377914D02*
X119585713Y-109568390D01*
X119585713Y-109568390D02*
X119585713Y-109711247D01*
X119585713Y-109711247D02*
X119538094Y-109901723D01*
X119538094Y-109901723D02*
X119490475Y-109996961D01*
X119490475Y-109996961D02*
X119395237Y-110092200D01*
X119395237Y-110092200D02*
X119252380Y-110139819D01*
X119252380Y-110139819D02*
X119157142Y-110139819D01*
X119157142Y-110139819D02*
X119014285Y-110092200D01*
X119014285Y-110092200D02*
X118966666Y-110044580D01*
X118966666Y-110044580D02*
X118966666Y-109711247D01*
X118966666Y-109711247D02*
X119157142Y-109711247D01*
X126579887Y-112267481D02*
X126437030Y-112315100D01*
X126437030Y-112315100D02*
X126389411Y-112362719D01*
X126389411Y-112362719D02*
X126341792Y-112457957D01*
X126341792Y-112457957D02*
X126341792Y-112600814D01*
X126341792Y-112600814D02*
X126389411Y-112696052D01*
X126389411Y-112696052D02*
X126437030Y-112743672D01*
X126437030Y-112743672D02*
X126532268Y-112791291D01*
X126532268Y-112791291D02*
X126913220Y-112791291D01*
X126913220Y-112791291D02*
X126913220Y-111791291D01*
X126913220Y-111791291D02*
X126579887Y-111791291D01*
X126579887Y-111791291D02*
X126484649Y-111838910D01*
X126484649Y-111838910D02*
X126437030Y-111886529D01*
X126437030Y-111886529D02*
X126389411Y-111981767D01*
X126389411Y-111981767D02*
X126389411Y-112077005D01*
X126389411Y-112077005D02*
X126437030Y-112172243D01*
X126437030Y-112172243D02*
X126484649Y-112219862D01*
X126484649Y-112219862D02*
X126579887Y-112267481D01*
X126579887Y-112267481D02*
X126913220Y-112267481D01*
X125913220Y-112410338D02*
X125151316Y-112410338D01*
X125532268Y-112791291D02*
X125532268Y-112029386D01*
X126579887Y-86097481D02*
X126437030Y-86145100D01*
X126437030Y-86145100D02*
X126389411Y-86192719D01*
X126389411Y-86192719D02*
X126341792Y-86287957D01*
X126341792Y-86287957D02*
X126341792Y-86430814D01*
X126341792Y-86430814D02*
X126389411Y-86526052D01*
X126389411Y-86526052D02*
X126437030Y-86573672D01*
X126437030Y-86573672D02*
X126532268Y-86621291D01*
X126532268Y-86621291D02*
X126913220Y-86621291D01*
X126913220Y-86621291D02*
X126913220Y-85621291D01*
X126913220Y-85621291D02*
X126579887Y-85621291D01*
X126579887Y-85621291D02*
X126484649Y-85668910D01*
X126484649Y-85668910D02*
X126437030Y-85716529D01*
X126437030Y-85716529D02*
X126389411Y-85811767D01*
X126389411Y-85811767D02*
X126389411Y-85907005D01*
X126389411Y-85907005D02*
X126437030Y-86002243D01*
X126437030Y-86002243D02*
X126484649Y-86049862D01*
X126484649Y-86049862D02*
X126579887Y-86097481D01*
X126579887Y-86097481D02*
X126913220Y-86097481D01*
X125913220Y-86240338D02*
X125151316Y-86240338D01*
X144045180Y-106833333D02*
X143330895Y-106833333D01*
X143330895Y-106833333D02*
X143188038Y-106880952D01*
X143188038Y-106880952D02*
X143092800Y-106976190D01*
X143092800Y-106976190D02*
X143045180Y-107119047D01*
X143045180Y-107119047D02*
X143045180Y-107214285D01*
X143045180Y-105833333D02*
X143045180Y-106404761D01*
X143045180Y-106119047D02*
X144045180Y-106119047D01*
X144045180Y-106119047D02*
X143902323Y-106214285D01*
X143902323Y-106214285D02*
X143807085Y-106309523D01*
X143807085Y-106309523D02*
X143759466Y-106404761D01*
X117745180Y-100261904D02*
X116935657Y-100261904D01*
X116935657Y-100261904D02*
X116840419Y-100214285D01*
X116840419Y-100214285D02*
X116792800Y-100166666D01*
X116792800Y-100166666D02*
X116745180Y-100071428D01*
X116745180Y-100071428D02*
X116745180Y-99880952D01*
X116745180Y-99880952D02*
X116792800Y-99785714D01*
X116792800Y-99785714D02*
X116840419Y-99738095D01*
X116840419Y-99738095D02*
X116935657Y-99690476D01*
X116935657Y-99690476D02*
X117745180Y-99690476D01*
X116792800Y-99261904D02*
X116745180Y-99119047D01*
X116745180Y-99119047D02*
X116745180Y-98880952D01*
X116745180Y-98880952D02*
X116792800Y-98785714D01*
X116792800Y-98785714D02*
X116840419Y-98738095D01*
X116840419Y-98738095D02*
X116935657Y-98690476D01*
X116935657Y-98690476D02*
X117030895Y-98690476D01*
X117030895Y-98690476D02*
X117126133Y-98738095D01*
X117126133Y-98738095D02*
X117173752Y-98785714D01*
X117173752Y-98785714D02*
X117221371Y-98880952D01*
X117221371Y-98880952D02*
X117268990Y-99071428D01*
X117268990Y-99071428D02*
X117316609Y-99166666D01*
X117316609Y-99166666D02*
X117364228Y-99214285D01*
X117364228Y-99214285D02*
X117459466Y-99261904D01*
X117459466Y-99261904D02*
X117554704Y-99261904D01*
X117554704Y-99261904D02*
X117649942Y-99214285D01*
X117649942Y-99214285D02*
X117697561Y-99166666D01*
X117697561Y-99166666D02*
X117745180Y-99071428D01*
X117745180Y-99071428D02*
X117745180Y-98833333D01*
X117745180Y-98833333D02*
X117697561Y-98690476D01*
X117268990Y-97928571D02*
X117221371Y-97785714D01*
X117221371Y-97785714D02*
X117173752Y-97738095D01*
X117173752Y-97738095D02*
X117078514Y-97690476D01*
X117078514Y-97690476D02*
X116935657Y-97690476D01*
X116935657Y-97690476D02*
X116840419Y-97738095D01*
X116840419Y-97738095D02*
X116792800Y-97785714D01*
X116792800Y-97785714D02*
X116745180Y-97880952D01*
X116745180Y-97880952D02*
X116745180Y-98261904D01*
X116745180Y-98261904D02*
X117745180Y-98261904D01*
X117745180Y-98261904D02*
X117745180Y-97928571D01*
X117745180Y-97928571D02*
X117697561Y-97833333D01*
X117697561Y-97833333D02*
X117649942Y-97785714D01*
X117649942Y-97785714D02*
X117554704Y-97738095D01*
X117554704Y-97738095D02*
X117459466Y-97738095D01*
X117459466Y-97738095D02*
X117364228Y-97785714D01*
X117364228Y-97785714D02*
X117316609Y-97833333D01*
X117316609Y-97833333D02*
X117268990Y-97928571D01*
X117268990Y-97928571D02*
X117268990Y-98261904D01*
X121163220Y-92704819D02*
X121163220Y-91704819D01*
X120687030Y-92704819D02*
X120687030Y-91704819D01*
X120687030Y-91704819D02*
X120115602Y-92704819D01*
X120115602Y-92704819D02*
X120115602Y-91704819D01*
X119639411Y-92323866D02*
X118877507Y-92323866D01*
X121163220Y-106604819D02*
X121163220Y-105604819D01*
X120687030Y-106604819D02*
X120687030Y-105604819D01*
X120687030Y-105604819D02*
X120115602Y-106604819D01*
X120115602Y-106604819D02*
X120115602Y-105604819D01*
X119639411Y-106223866D02*
X118877507Y-106223866D01*
X119258459Y-106604819D02*
X119258459Y-105842914D01*
X137265350Y-91704819D02*
X137074874Y-91704819D01*
X137074874Y-91704819D02*
X136979636Y-91752438D01*
X136979636Y-91752438D02*
X136884398Y-91847676D01*
X136884398Y-91847676D02*
X136836779Y-92038152D01*
X136836779Y-92038152D02*
X136836779Y-92371485D01*
X136836779Y-92371485D02*
X136884398Y-92561961D01*
X136884398Y-92561961D02*
X136979636Y-92657200D01*
X136979636Y-92657200D02*
X137074874Y-92704819D01*
X137074874Y-92704819D02*
X137265350Y-92704819D01*
X137265350Y-92704819D02*
X137360588Y-92657200D01*
X137360588Y-92657200D02*
X137455826Y-92561961D01*
X137455826Y-92561961D02*
X137503445Y-92371485D01*
X137503445Y-92371485D02*
X137503445Y-92038152D01*
X137503445Y-92038152D02*
X137455826Y-91847676D01*
X137455826Y-91847676D02*
X137360588Y-91752438D01*
X137360588Y-91752438D02*
X137265350Y-91704819D01*
X136408207Y-91704819D02*
X136408207Y-92514342D01*
X136408207Y-92514342D02*
X136360588Y-92609580D01*
X136360588Y-92609580D02*
X136312969Y-92657200D01*
X136312969Y-92657200D02*
X136217731Y-92704819D01*
X136217731Y-92704819D02*
X136027255Y-92704819D01*
X136027255Y-92704819D02*
X135932017Y-92657200D01*
X135932017Y-92657200D02*
X135884398Y-92609580D01*
X135884398Y-92609580D02*
X135836779Y-92514342D01*
X135836779Y-92514342D02*
X135836779Y-91704819D01*
X135503445Y-91704819D02*
X134932017Y-91704819D01*
X135217731Y-92704819D02*
X135217731Y-91704819D01*
X134598683Y-92323866D02*
X133836779Y-92323866D01*
X137265350Y-105454819D02*
X137074874Y-105454819D01*
X137074874Y-105454819D02*
X136979636Y-105502438D01*
X136979636Y-105502438D02*
X136884398Y-105597676D01*
X136884398Y-105597676D02*
X136836779Y-105788152D01*
X136836779Y-105788152D02*
X136836779Y-106121485D01*
X136836779Y-106121485D02*
X136884398Y-106311961D01*
X136884398Y-106311961D02*
X136979636Y-106407200D01*
X136979636Y-106407200D02*
X137074874Y-106454819D01*
X137074874Y-106454819D02*
X137265350Y-106454819D01*
X137265350Y-106454819D02*
X137360588Y-106407200D01*
X137360588Y-106407200D02*
X137455826Y-106311961D01*
X137455826Y-106311961D02*
X137503445Y-106121485D01*
X137503445Y-106121485D02*
X137503445Y-105788152D01*
X137503445Y-105788152D02*
X137455826Y-105597676D01*
X137455826Y-105597676D02*
X137360588Y-105502438D01*
X137360588Y-105502438D02*
X137265350Y-105454819D01*
X136408207Y-105454819D02*
X136408207Y-106264342D01*
X136408207Y-106264342D02*
X136360588Y-106359580D01*
X136360588Y-106359580D02*
X136312969Y-106407200D01*
X136312969Y-106407200D02*
X136217731Y-106454819D01*
X136217731Y-106454819D02*
X136027255Y-106454819D01*
X136027255Y-106454819D02*
X135932017Y-106407200D01*
X135932017Y-106407200D02*
X135884398Y-106359580D01*
X135884398Y-106359580D02*
X135836779Y-106264342D01*
X135836779Y-106264342D02*
X135836779Y-105454819D01*
X135503445Y-105454819D02*
X134932017Y-105454819D01*
X135217731Y-106454819D02*
X135217731Y-105454819D01*
X134598683Y-106073866D02*
X133836779Y-106073866D01*
X134217731Y-106454819D02*
X134217731Y-105692914D01*
X139697618Y-97246009D02*
X139554761Y-97293628D01*
X139554761Y-97293628D02*
X139507142Y-97341247D01*
X139507142Y-97341247D02*
X139459523Y-97436485D01*
X139459523Y-97436485D02*
X139459523Y-97579342D01*
X139459523Y-97579342D02*
X139507142Y-97674580D01*
X139507142Y-97674580D02*
X139554761Y-97722200D01*
X139554761Y-97722200D02*
X139649999Y-97769819D01*
X139649999Y-97769819D02*
X140030951Y-97769819D01*
X140030951Y-97769819D02*
X140030951Y-96769819D01*
X140030951Y-96769819D02*
X139697618Y-96769819D01*
X139697618Y-96769819D02*
X139602380Y-96817438D01*
X139602380Y-96817438D02*
X139554761Y-96865057D01*
X139554761Y-96865057D02*
X139507142Y-96960295D01*
X139507142Y-96960295D02*
X139507142Y-97055533D01*
X139507142Y-97055533D02*
X139554761Y-97150771D01*
X139554761Y-97150771D02*
X139602380Y-97198390D01*
X139602380Y-97198390D02*
X139697618Y-97246009D01*
X139697618Y-97246009D02*
X140030951Y-97246009D01*
X139030951Y-97388866D02*
X138269047Y-97388866D01*
X139722618Y-101016009D02*
X139579761Y-101063628D01*
X139579761Y-101063628D02*
X139532142Y-101111247D01*
X139532142Y-101111247D02*
X139484523Y-101206485D01*
X139484523Y-101206485D02*
X139484523Y-101349342D01*
X139484523Y-101349342D02*
X139532142Y-101444580D01*
X139532142Y-101444580D02*
X139579761Y-101492200D01*
X139579761Y-101492200D02*
X139674999Y-101539819D01*
X139674999Y-101539819D02*
X140055951Y-101539819D01*
X140055951Y-101539819D02*
X140055951Y-100539819D01*
X140055951Y-100539819D02*
X139722618Y-100539819D01*
X139722618Y-100539819D02*
X139627380Y-100587438D01*
X139627380Y-100587438D02*
X139579761Y-100635057D01*
X139579761Y-100635057D02*
X139532142Y-100730295D01*
X139532142Y-100730295D02*
X139532142Y-100825533D01*
X139532142Y-100825533D02*
X139579761Y-100920771D01*
X139579761Y-100920771D02*
X139627380Y-100968390D01*
X139627380Y-100968390D02*
X139722618Y-101016009D01*
X139722618Y-101016009D02*
X140055951Y-101016009D01*
X139055951Y-101158866D02*
X138294047Y-101158866D01*
X138674999Y-101539819D02*
X138674999Y-100777914D01*
X147375180Y-91141904D02*
X146565657Y-91141904D01*
X146565657Y-91141904D02*
X146470419Y-91094285D01*
X146470419Y-91094285D02*
X146422800Y-91046666D01*
X146422800Y-91046666D02*
X146375180Y-90951428D01*
X146375180Y-90951428D02*
X146375180Y-90760952D01*
X146375180Y-90760952D02*
X146422800Y-90665714D01*
X146422800Y-90665714D02*
X146470419Y-90618095D01*
X146470419Y-90618095D02*
X146565657Y-90570476D01*
X146565657Y-90570476D02*
X147375180Y-90570476D01*
X147279942Y-90141904D02*
X147327561Y-90094285D01*
X147327561Y-90094285D02*
X147375180Y-89999047D01*
X147375180Y-89999047D02*
X147375180Y-89760952D01*
X147375180Y-89760952D02*
X147327561Y-89665714D01*
X147327561Y-89665714D02*
X147279942Y-89618095D01*
X147279942Y-89618095D02*
X147184704Y-89570476D01*
X147184704Y-89570476D02*
X147089466Y-89570476D01*
X147089466Y-89570476D02*
X146946609Y-89618095D01*
X146946609Y-89618095D02*
X146375180Y-90189523D01*
X146375180Y-90189523D02*
X146375180Y-89570476D01*
%TO.C,J1*%
D13*
X115400000Y-90500000D02*
X115400000Y-94450000D01*
X115400000Y-90500000D02*
X142700000Y-90500000D01*
X115400000Y-107900000D02*
X115400000Y-103850000D01*
X115400000Y-107900000D02*
X115400000Y-105800000D01*
X115400000Y-107900000D02*
X142700000Y-107900000D01*
X140900000Y-105000000D02*
X140900000Y-93400000D01*
X142700000Y-90500000D02*
X142700000Y-93400000D01*
X142700000Y-93400000D02*
X140900000Y-93400000D01*
X142700000Y-105000000D02*
X140900000Y-105000000D01*
X142700000Y-107900000D02*
X142700000Y-105000000D01*
X113600000Y-94450000D02*
X120800000Y-94450000D01*
X120800000Y-103950000D01*
X113600000Y-103950000D01*
X113600000Y-94450000D01*
%TO.C,U2*%
D14*
X147980000Y-89101472D02*
X147980000Y-109401472D01*
X150772500Y-109401472D02*
X163680000Y-109401472D01*
X163680000Y-89101472D02*
X150772500Y-89101472D01*
X163680000Y-109401472D02*
X163680000Y-89101472D01*
D15*
%TO.C,G\u002A\u002A\u002A*%
G36*
X150170241Y-83285783D02*
G01*
X150170241Y-84479277D01*
X149833615Y-84479277D01*
X149496988Y-84479277D01*
X149496988Y-83285783D01*
X149496988Y-82092289D01*
X149833615Y-82092289D01*
X150170241Y-82092289D01*
X150170241Y-83285783D01*
G37*
G36*
X160592678Y-84633438D02*
G01*
X160957591Y-84634587D01*
X161080000Y-84740091D01*
X161202410Y-84845595D01*
X160819880Y-84845582D01*
X160761166Y-84845567D01*
X160614360Y-84844453D01*
X160512285Y-84839312D01*
X160442475Y-84827029D01*
X160392461Y-84804489D01*
X160349777Y-84768578D01*
X160301955Y-84716180D01*
X160227765Y-84632289D01*
X160592678Y-84633438D01*
G37*
G36*
X161790050Y-85403352D02*
G01*
X161819720Y-85433201D01*
X161870770Y-85491470D01*
X161890964Y-85525762D01*
X161886209Y-85529376D01*
X161836017Y-85537647D01*
X161739763Y-85544306D01*
X161608268Y-85548746D01*
X161452351Y-85550361D01*
X161013738Y-85550361D01*
X160915367Y-85427952D01*
X160816996Y-85305542D01*
X161253065Y-85305542D01*
X161689135Y-85305542D01*
X161790050Y-85403352D01*
G37*
G36*
X155978286Y-85527409D02*
G01*
X155969398Y-85779879D01*
X155793434Y-85789057D01*
X155617470Y-85798235D01*
X155617470Y-86561768D01*
X155617470Y-87325301D01*
X155357350Y-87325301D01*
X155097229Y-87325301D01*
X155097229Y-86561768D01*
X155097229Y-85798235D01*
X154921266Y-85789057D01*
X154745302Y-85779879D01*
X154736413Y-85527409D01*
X154727525Y-85274939D01*
X155357350Y-85274939D01*
X155987175Y-85274939D01*
X155978286Y-85527409D01*
G37*
G36*
X159656988Y-82398313D02*
G01*
X159656988Y-82704337D01*
X159381567Y-82704337D01*
X159106145Y-82704337D01*
X159106145Y-83591807D01*
X159106145Y-84479277D01*
X158815422Y-84479277D01*
X158524699Y-84479277D01*
X158524699Y-83591807D01*
X158524699Y-82704337D01*
X158233976Y-82704337D01*
X157943253Y-82704337D01*
X157943253Y-82398313D01*
X157943253Y-82092289D01*
X158800121Y-82092289D01*
X159656988Y-82092289D01*
X159656988Y-82398313D01*
G37*
G36*
X157596744Y-84939343D02*
G01*
X157697064Y-84945909D01*
X157774295Y-84962823D01*
X157848968Y-84994883D01*
X157941614Y-85046887D01*
X157948235Y-85050777D01*
X158038483Y-85105717D01*
X158102524Y-85148194D01*
X158126868Y-85169297D01*
X158114869Y-85173161D01*
X158054092Y-85178299D01*
X157953569Y-85181824D01*
X157826371Y-85183132D01*
X157525874Y-85183132D01*
X157361808Y-85060723D01*
X157197742Y-84938313D01*
X157477051Y-84938313D01*
X157596744Y-84939343D01*
G37*
G36*
X158311316Y-85310046D02*
G01*
X158393101Y-85317547D01*
X158460335Y-85334938D01*
X158529357Y-85365151D01*
X158616506Y-85411114D01*
X158815422Y-85518369D01*
X158425701Y-85519064D01*
X158402657Y-85519103D01*
X158248069Y-85518701D01*
X158138878Y-85515235D01*
X158061023Y-85506183D01*
X158000443Y-85489024D01*
X157943075Y-85461237D01*
X157874858Y-85420301D01*
X157713735Y-85320843D01*
X158065663Y-85312351D01*
X158198637Y-85309507D01*
X158311316Y-85310046D01*
G37*
G36*
X155219639Y-83280682D02*
G01*
X155219629Y-83315931D01*
X155218941Y-83574226D01*
X155217257Y-83812274D01*
X155214701Y-84023247D01*
X155211397Y-84200320D01*
X155207468Y-84336667D01*
X155203039Y-84425462D01*
X155198234Y-84459878D01*
X155179374Y-84465611D01*
X155109029Y-84471748D01*
X155000948Y-84474270D01*
X154869258Y-84472629D01*
X154561687Y-84463976D01*
X154553673Y-83293433D01*
X154545659Y-82122891D01*
X154882649Y-82122891D01*
X155219639Y-82122891D01*
X155219639Y-83280682D01*
G37*
G36*
X160566013Y-84321393D02*
G01*
X160586612Y-84336990D01*
X160672884Y-84405453D01*
X160733805Y-84458922D01*
X160757278Y-84486927D01*
X160737677Y-84494759D01*
X160668130Y-84502589D01*
X160560040Y-84507914D01*
X160425756Y-84509879D01*
X160343521Y-84509731D01*
X160219945Y-84507292D01*
X160132556Y-84499175D01*
X160064784Y-84481993D01*
X160000057Y-84452360D01*
X159921807Y-84406890D01*
X159750776Y-84303901D01*
X160063461Y-84241355D01*
X160376145Y-84178810D01*
X160566013Y-84321393D01*
G37*
G36*
X159008935Y-85648247D02*
G01*
X159100373Y-85655751D01*
X159177889Y-85670909D01*
X159256436Y-85695592D01*
X159350964Y-85731673D01*
X159580482Y-85822204D01*
X159062930Y-85823993D01*
X159056452Y-85824016D01*
X158868541Y-85824346D01*
X158730533Y-85822933D01*
X158631455Y-85818402D01*
X158560334Y-85809379D01*
X158506197Y-85794492D01*
X158458069Y-85772365D01*
X158404978Y-85741626D01*
X158264579Y-85657470D01*
X158693012Y-85649306D01*
X158724488Y-85648715D01*
X158888624Y-85646526D01*
X159008935Y-85648247D01*
G37*
G36*
X161558714Y-85674464D02*
G01*
X162059278Y-85676157D01*
X162130461Y-85766271D01*
X162201644Y-85856385D01*
X161648473Y-85856385D01*
X161456013Y-85855724D01*
X161306028Y-85853225D01*
X161202512Y-85848293D01*
X161137918Y-85840338D01*
X161104698Y-85828765D01*
X161095302Y-85812985D01*
X161093555Y-85790115D01*
X161076726Y-85721177D01*
X161075447Y-85717429D01*
X161077275Y-85700421D01*
X161099787Y-85688399D01*
X161151084Y-85680578D01*
X161239269Y-85676172D01*
X161372445Y-85674396D01*
X161558714Y-85674464D01*
G37*
G36*
X157014431Y-84571561D02*
G01*
X157114973Y-84582742D01*
X157205901Y-84615593D01*
X157315310Y-84679133D01*
X157398427Y-84734174D01*
X157460494Y-84779050D01*
X157484217Y-84801542D01*
X157483987Y-84802208D01*
X157451357Y-84809133D01*
X157374291Y-84814040D01*
X157268206Y-84815903D01*
X157261567Y-84815900D01*
X157144782Y-84812944D01*
X157065750Y-84800094D01*
X157002130Y-84770915D01*
X156931579Y-84718974D01*
X156888984Y-84683093D01*
X156832918Y-84628821D01*
X156810964Y-84596565D01*
X156825765Y-84586128D01*
X156886685Y-84575288D01*
X156978683Y-84571084D01*
X157014431Y-84571561D01*
G37*
G36*
X161245628Y-85003612D02*
G01*
X161327376Y-85008351D01*
X161381277Y-85019226D01*
X161418928Y-85037675D01*
X161451927Y-85065136D01*
X161454505Y-85067574D01*
X161503488Y-85121300D01*
X161523735Y-85157864D01*
X161522723Y-85159673D01*
X161484055Y-85168849D01*
X161397649Y-85176301D01*
X161274885Y-85181304D01*
X161127143Y-85183132D01*
X161094051Y-85183129D01*
X160941387Y-85182487D01*
X160836051Y-85179276D01*
X160766266Y-85171407D01*
X160720254Y-85156792D01*
X160686238Y-85133345D01*
X160652441Y-85098976D01*
X160574331Y-85014819D01*
X160977225Y-85006247D01*
X161124434Y-85003570D01*
X161245628Y-85003612D01*
G37*
G36*
X149956025Y-85642168D02*
G01*
X149956025Y-86040000D01*
X150337640Y-86040000D01*
X150719256Y-86040000D01*
X150727821Y-85649819D01*
X150736386Y-85259638D01*
X150981205Y-85259638D01*
X151226025Y-85259638D01*
X151234082Y-86292470D01*
X151242140Y-87325301D01*
X150981612Y-87325301D01*
X150721085Y-87325301D01*
X150721085Y-86881566D01*
X150721085Y-86437831D01*
X150338555Y-86437831D01*
X149956025Y-86437831D01*
X149956025Y-86881566D01*
X149956025Y-87325301D01*
X149726506Y-87325301D01*
X149496988Y-87325301D01*
X149496988Y-86284819D01*
X149496988Y-85244337D01*
X149726506Y-85244337D01*
X149956025Y-85244337D01*
X149956025Y-85642168D01*
G37*
G36*
X154454579Y-86300120D02*
G01*
X154454579Y-87325301D01*
X153902448Y-87325301D01*
X153350317Y-87325301D01*
X153359255Y-87088132D01*
X153368193Y-86850964D01*
X153712470Y-86842311D01*
X154056747Y-86833658D01*
X154056747Y-86651046D01*
X154056747Y-86468433D01*
X153750723Y-86468433D01*
X153444699Y-86468433D01*
X153444699Y-86238915D01*
X153444699Y-86009397D01*
X153750723Y-86009397D01*
X154056747Y-86009397D01*
X154056747Y-85856385D01*
X154056747Y-85703373D01*
X153720121Y-85703373D01*
X153383494Y-85703373D01*
X153383494Y-85489156D01*
X153383494Y-85274939D01*
X153919037Y-85274939D01*
X154454579Y-85274939D01*
X154454579Y-86300120D01*
G37*
G36*
X161749252Y-86286540D02*
G01*
X161960291Y-86287731D01*
X162127786Y-86290318D01*
X162256759Y-86294713D01*
X162352236Y-86301327D01*
X162419240Y-86310572D01*
X162462796Y-86322858D01*
X162487927Y-86338598D01*
X162499657Y-86358201D01*
X162503011Y-86382081D01*
X162503012Y-86410648D01*
X162502663Y-86411453D01*
X162466243Y-86418295D01*
X162372169Y-86423873D01*
X162223636Y-86428137D01*
X162023842Y-86431040D01*
X161775983Y-86432533D01*
X161483256Y-86432568D01*
X161148856Y-86431097D01*
X161075850Y-86430633D01*
X160764421Y-86428530D01*
X160507090Y-86426376D01*
X160297987Y-86423875D01*
X160131243Y-86420730D01*
X160000987Y-86416647D01*
X159901349Y-86411328D01*
X159826460Y-86404477D01*
X159770449Y-86395799D01*
X159727447Y-86384996D01*
X159691584Y-86371774D01*
X159656988Y-86355836D01*
X159519278Y-86289142D01*
X160992570Y-86286981D01*
X161176442Y-86286702D01*
X161489643Y-86286334D01*
X161749252Y-86286540D01*
G37*
G36*
X151975784Y-83280682D02*
G01*
X151975774Y-83316008D01*
X151975099Y-83574274D01*
X151973449Y-83812272D01*
X151970945Y-84023180D01*
X151967707Y-84200173D01*
X151963858Y-84336430D01*
X151959519Y-84425129D01*
X151954812Y-84459446D01*
X151946237Y-84462125D01*
X151886776Y-84467302D01*
X151779199Y-84471064D01*
X151632588Y-84473245D01*
X151456029Y-84473678D01*
X151258607Y-84472197D01*
X150583374Y-84463976D01*
X150574532Y-84196205D01*
X150565690Y-83928433D01*
X151010616Y-83928433D01*
X151455543Y-83928433D01*
X151455543Y-83698915D01*
X151455543Y-83469397D01*
X151057711Y-83469397D01*
X150659880Y-83469397D01*
X150659880Y-83224578D01*
X150659880Y-82979759D01*
X151057711Y-82979759D01*
X151455543Y-82979759D01*
X151455543Y-82796144D01*
X151455543Y-82612530D01*
X151027109Y-82612530D01*
X150598675Y-82612530D01*
X150598675Y-82367711D01*
X150598675Y-82122891D01*
X151287229Y-82122891D01*
X151975784Y-82122891D01*
X151975784Y-83280682D01*
G37*
G36*
X161661807Y-86560479D02*
G01*
X161904374Y-86561390D01*
X162096558Y-86563198D01*
X162243921Y-86566128D01*
X162352021Y-86570404D01*
X162426420Y-86576248D01*
X162472678Y-86583887D01*
X162496356Y-86593542D01*
X162503012Y-86605439D01*
X162496806Y-86632356D01*
X162442560Y-86688127D01*
X162339393Y-86735584D01*
X162195729Y-86770212D01*
X162139186Y-86779201D01*
X162028532Y-86793121D01*
X161921674Y-86799339D01*
X161802477Y-86797899D01*
X161654807Y-86788845D01*
X161462531Y-86772221D01*
X161350683Y-86760172D01*
X161197053Y-86740359D01*
X161026718Y-86715886D01*
X160850731Y-86688591D01*
X160680141Y-86660314D01*
X160525999Y-86632894D01*
X160399356Y-86608171D01*
X160311262Y-86587985D01*
X160272769Y-86574174D01*
X160272684Y-86574026D01*
X160301531Y-86570871D01*
X160384627Y-86567971D01*
X160515316Y-86565412D01*
X160686945Y-86563275D01*
X160892859Y-86561645D01*
X161126404Y-86560606D01*
X161380924Y-86560241D01*
X161661807Y-86560479D01*
G37*
G36*
X159380577Y-85946452D02*
G01*
X159565157Y-85949260D01*
X159753689Y-85954544D01*
X159936294Y-85962139D01*
X160103092Y-85971881D01*
X160244205Y-85983606D01*
X160349753Y-85997150D01*
X160497431Y-86018186D01*
X160660024Y-86030163D01*
X160781977Y-86025228D01*
X160799286Y-86023127D01*
X160890016Y-86016065D01*
X161026889Y-86008713D01*
X161198479Y-86001565D01*
X161393359Y-85995115D01*
X161600101Y-85989858D01*
X161816541Y-85985369D01*
X161983808Y-85982787D01*
X162106047Y-85982779D01*
X162191404Y-85985925D01*
X162248023Y-85992808D01*
X162284049Y-86004007D01*
X162307630Y-86020102D01*
X162326909Y-86041675D01*
X162363042Y-86093426D01*
X162380603Y-86135197D01*
X162379604Y-86136223D01*
X162339290Y-86141660D01*
X162243694Y-86146650D01*
X162097829Y-86151108D01*
X161906710Y-86154948D01*
X161675349Y-86158084D01*
X161408760Y-86160430D01*
X161111958Y-86161900D01*
X160789956Y-86162409D01*
X159199308Y-86162409D01*
X159030317Y-86079528D01*
X158952447Y-86038594D01*
X158886624Y-85997539D01*
X158861326Y-85972420D01*
X158879374Y-85963257D01*
X158949349Y-85954522D01*
X159062794Y-85948919D01*
X159209830Y-85946283D01*
X159380577Y-85946452D01*
G37*
G36*
X154117952Y-83282775D02*
G01*
X154117952Y-84481347D01*
X153788976Y-84472662D01*
X153460000Y-84463976D01*
X153451533Y-84031789D01*
X153443066Y-83599601D01*
X153108917Y-83585834D01*
X153103468Y-83585609D01*
X152952251Y-83577879D01*
X152845405Y-83567200D01*
X152766596Y-83550058D01*
X152699487Y-83522939D01*
X152627745Y-83482330D01*
X152577585Y-83449178D01*
X152476429Y-83354555D01*
X152394219Y-83224429D01*
X152368484Y-83172975D01*
X152336300Y-83094924D01*
X152319805Y-83018842D01*
X152315399Y-82923736D01*
X152318178Y-82831771D01*
X152965161Y-82831771D01*
X152976298Y-82944320D01*
X153029613Y-83036824D01*
X153059077Y-83055104D01*
X153144865Y-83080598D01*
X153260158Y-83096176D01*
X153444699Y-83109525D01*
X153444699Y-82861027D01*
X153444699Y-82612530D01*
X153263306Y-82612530D01*
X153190421Y-82613665D01*
X153111956Y-82623245D01*
X153060650Y-82648561D01*
X153015723Y-82696677D01*
X152997235Y-82724444D01*
X152965161Y-82831771D01*
X152318178Y-82831771D01*
X152319482Y-82788614D01*
X152321772Y-82740483D01*
X152331249Y-82618504D01*
X152347727Y-82532433D01*
X152376157Y-82462961D01*
X152421491Y-82390782D01*
X152516169Y-82285377D01*
X152661420Y-82186317D01*
X152686966Y-82173915D01*
X152738656Y-82152022D01*
X152794219Y-82135567D01*
X152863209Y-82123499D01*
X152955181Y-82114770D01*
X153079689Y-82108329D01*
X153246287Y-82103128D01*
X153464530Y-82098117D01*
X154117952Y-82084203D01*
X154117952Y-82861027D01*
X154117952Y-83282775D01*
G37*
G36*
X152254698Y-85281560D02*
G01*
X152360474Y-85298926D01*
X152471593Y-85334823D01*
X152562608Y-85375476D01*
X152752320Y-85501107D01*
X152916428Y-85664662D01*
X153037423Y-85850193D01*
X153047635Y-85871320D01*
X153086818Y-85963867D01*
X153109666Y-86051520D01*
X153120368Y-86156273D01*
X153123113Y-86300120D01*
X153123042Y-86337726D01*
X153119177Y-86470096D01*
X153106434Y-86568333D01*
X153080655Y-86654349D01*
X153037676Y-86750056D01*
X152975549Y-86856164D01*
X152835695Y-87023861D01*
X152666730Y-87164396D01*
X152486783Y-87260956D01*
X152357531Y-87298623D01*
X152140637Y-87323772D01*
X151918435Y-87311541D01*
X151716811Y-87261897D01*
X151547350Y-87198494D01*
X151547350Y-86891432D01*
X151547350Y-86584370D01*
X151635566Y-86678806D01*
X151665968Y-86709567D01*
X151768838Y-86784553D01*
X151890254Y-86824118D01*
X152049756Y-86835662D01*
X152100826Y-86833747D01*
X152260806Y-86795083D01*
X152388784Y-86704974D01*
X152488374Y-86561160D01*
X152510971Y-86511256D01*
X152552182Y-86340989D01*
X152542772Y-86176174D01*
X152487689Y-86026812D01*
X152391877Y-85902905D01*
X152260282Y-85814454D01*
X152097851Y-85771461D01*
X151951957Y-85772271D01*
X151782907Y-85821330D01*
X151641092Y-85925134D01*
X151547350Y-86021016D01*
X151547350Y-85712505D01*
X151547350Y-85403995D01*
X151677410Y-85350306D01*
X151683637Y-85347827D01*
X151783335Y-85319842D01*
X151915146Y-85296563D01*
X152052290Y-85282812D01*
X152127740Y-85279432D01*
X152254698Y-85281560D01*
G37*
G36*
X153138494Y-79691216D02*
G01*
X153361255Y-79719499D01*
X153589026Y-79761917D01*
X153811882Y-79817959D01*
X153927130Y-79853289D01*
X154230886Y-79961615D01*
X154573187Y-80101960D01*
X154946952Y-80270710D01*
X155345097Y-80464247D01*
X155760538Y-80678957D01*
X156186194Y-80911221D01*
X156614981Y-81157426D01*
X157039815Y-81413953D01*
X157453615Y-81677188D01*
X157496258Y-81705158D01*
X157615861Y-81784692D01*
X157710113Y-81849004D01*
X157770328Y-81892097D01*
X157787821Y-81907973D01*
X157781633Y-81905722D01*
X157730582Y-81881956D01*
X157633191Y-81834600D01*
X157495300Y-81766553D01*
X157322750Y-81680718D01*
X157121378Y-81579994D01*
X156897026Y-81467283D01*
X156655532Y-81345485D01*
X156249615Y-81142454D01*
X155880569Y-80962669D01*
X155553935Y-80809319D01*
X155264446Y-80680128D01*
X155006835Y-80572822D01*
X154775835Y-80485126D01*
X154566180Y-80414766D01*
X154372604Y-80359466D01*
X154304659Y-80342701D01*
X154104642Y-80303066D01*
X153921946Y-80280744D01*
X153766769Y-80276212D01*
X153649306Y-80289945D01*
X153579755Y-80322421D01*
X153559427Y-80344725D01*
X153546108Y-80379159D01*
X153557888Y-80429021D01*
X153596461Y-80513682D01*
X153608808Y-80536743D01*
X153683227Y-80641341D01*
X153797295Y-80770155D01*
X153943139Y-80914093D01*
X154221906Y-81174217D01*
X153884464Y-81174217D01*
X153547021Y-81174217D01*
X153258691Y-80934506D01*
X153115499Y-80811410D01*
X152938979Y-80648665D01*
X152777425Y-80487906D01*
X152639247Y-80337935D01*
X152532857Y-80207555D01*
X152466664Y-80105566D01*
X152461231Y-80094713D01*
X152412124Y-79953268D01*
X152414429Y-79836521D01*
X152468129Y-79748755D01*
X152496020Y-79729660D01*
X152599505Y-79696291D01*
X152747695Y-79679101D01*
X152930666Y-79677580D01*
X153138494Y-79691216D01*
G37*
G36*
X157597945Y-83570594D02*
G01*
X157675813Y-83800220D01*
X157693170Y-83851927D01*
X157718182Y-83926441D01*
X157744335Y-84004352D01*
X157801366Y-84176523D01*
X157844759Y-84310270D01*
X157872369Y-84399127D01*
X157882049Y-84436630D01*
X157881074Y-84443196D01*
X157860494Y-84460800D01*
X157806235Y-84471873D01*
X157709143Y-84477628D01*
X157560067Y-84479277D01*
X157542160Y-84479286D01*
X157398892Y-84478681D01*
X157303135Y-84471186D01*
X157242502Y-84448760D01*
X157204603Y-84403365D01*
X157177050Y-84326960D01*
X157147456Y-84211506D01*
X157114629Y-84081445D01*
X156789522Y-84081445D01*
X156648011Y-84080258D01*
X156540010Y-84074630D01*
X156462042Y-84061813D01*
X156397973Y-84039067D01*
X156331665Y-84003649D01*
X156272196Y-83969431D01*
X156212066Y-83937778D01*
X156198156Y-83935779D01*
X156227389Y-83960950D01*
X156296689Y-84010805D01*
X156402983Y-84082857D01*
X156543193Y-84174621D01*
X156570986Y-84192585D01*
X156697822Y-84275170D01*
X156804713Y-84345727D01*
X156881129Y-84397258D01*
X156916543Y-84422764D01*
X156918066Y-84431793D01*
X156880152Y-84443975D01*
X156801100Y-84448674D01*
X156755836Y-84447700D01*
X156677397Y-84434755D01*
X156608365Y-84397948D01*
X156523786Y-84326265D01*
X156463233Y-84273298D01*
X156397561Y-84223203D01*
X156359789Y-84203855D01*
X156348397Y-84210674D01*
X156320523Y-84260080D01*
X156293916Y-84341566D01*
X156259240Y-84479277D01*
X155924860Y-84479277D01*
X155810981Y-84477917D01*
X155693765Y-84473097D01*
X155611692Y-84465612D01*
X155577790Y-84456325D01*
X155578046Y-84450863D01*
X155591698Y-84398791D01*
X155622798Y-84297443D01*
X155669287Y-84153074D01*
X155729110Y-83971938D01*
X155763615Y-83869221D01*
X156114612Y-83869221D01*
X156122410Y-83897831D01*
X156128697Y-83906890D01*
X156156625Y-83928433D01*
X156160811Y-83926441D01*
X156153012Y-83897831D01*
X156146725Y-83888772D01*
X156118798Y-83867229D01*
X156114612Y-83869221D01*
X155763615Y-83869221D01*
X155769424Y-83851927D01*
X156045904Y-83851927D01*
X156061205Y-83867229D01*
X156076506Y-83851927D01*
X156061205Y-83836626D01*
X156045904Y-83851927D01*
X155769424Y-83851927D01*
X155800206Y-83760291D01*
X155867984Y-83561205D01*
X156509656Y-83561205D01*
X156738879Y-83561205D01*
X156767654Y-83561157D01*
X156873220Y-83558901D01*
X156931501Y-83551156D01*
X156954005Y-83535036D01*
X156952240Y-83507650D01*
X156945576Y-83484412D01*
X156923723Y-83406211D01*
X156892687Y-83293904D01*
X156856868Y-83163373D01*
X156836355Y-83088573D01*
X156802065Y-82964454D01*
X156774719Y-82866615D01*
X156758879Y-82811445D01*
X156756247Y-82803868D01*
X156740640Y-82794799D01*
X156718824Y-82836587D01*
X156688127Y-82933855D01*
X156656388Y-83045368D01*
X156613415Y-83196395D01*
X156572755Y-83339337D01*
X156509656Y-83561205D01*
X155867984Y-83561205D01*
X155880518Y-83524388D01*
X155967987Y-83270482D01*
X156370875Y-82107590D01*
X156732820Y-82107590D01*
X157094765Y-82107590D01*
X157488407Y-83250786D01*
X157512878Y-83321936D01*
X157585780Y-83535036D01*
X157597945Y-83570594D01*
G37*
G36*
X149954623Y-118304794D02*
G01*
X149954623Y-118630992D01*
X149878510Y-118630992D01*
X149802397Y-118630992D01*
X149802397Y-118304794D01*
X149802397Y-117978595D01*
X149878510Y-117978595D01*
X149954623Y-117978595D01*
X149954623Y-118304794D01*
G37*
G36*
X156152397Y-118304794D02*
G01*
X156152397Y-118630992D01*
X156076284Y-118630992D01*
X156000171Y-118630992D01*
X156000171Y-118304794D01*
X156000171Y-117978595D01*
X156076284Y-117978595D01*
X156152397Y-117978595D01*
X156152397Y-118304794D01*
G37*
G36*
X158319721Y-116119439D02*
G01*
X158313301Y-116145884D01*
X158272420Y-116195656D01*
X158261297Y-116206925D01*
X158218180Y-116240022D01*
X158194467Y-116235458D01*
X158185788Y-116213128D01*
X158199829Y-116170054D01*
X158254948Y-116132267D01*
X158292182Y-116118144D01*
X158319721Y-116119439D01*
G37*
G36*
X158447600Y-116579310D02*
G01*
X158461177Y-116585436D01*
X158468208Y-116601475D01*
X158444229Y-116632994D01*
X158438249Y-116639326D01*
X158394846Y-116669286D01*
X158361885Y-116667044D01*
X158348801Y-116632634D01*
X158357634Y-116601233D01*
X158394692Y-116575326D01*
X158447600Y-116579310D01*
G37*
G36*
X158494911Y-116804601D02*
G01*
X158536915Y-116814805D01*
X158537466Y-116836251D01*
X158495591Y-116864725D01*
X158451785Y-116882009D01*
X158409569Y-116890131D01*
X158392295Y-116882171D01*
X158394313Y-116863802D01*
X158423854Y-116820474D01*
X158481607Y-116804280D01*
X158494911Y-116804601D01*
G37*
G36*
X158435385Y-117043374D02*
G01*
X158474339Y-117086985D01*
X158503365Y-117123307D01*
X158525213Y-117166900D01*
X158519761Y-117201155D01*
X158512314Y-117213360D01*
X158478245Y-117238900D01*
X158448437Y-117226499D01*
X158435491Y-117179408D01*
X158432499Y-117131211D01*
X158421924Y-117065239D01*
X158417990Y-117047829D01*
X158418453Y-117031090D01*
X158435385Y-117043374D01*
G37*
G36*
X149914666Y-115500497D02*
G01*
X149962896Y-115525845D01*
X150003068Y-115572987D01*
X150019863Y-115625232D01*
X150019196Y-115629542D01*
X149998670Y-115665467D01*
X149955646Y-115719445D01*
X149898509Y-115782555D01*
X149835645Y-115845879D01*
X149775442Y-115900495D01*
X149726284Y-115937485D01*
X149721945Y-115940116D01*
X149667325Y-115966806D01*
X149624657Y-115977829D01*
X149613138Y-115976379D01*
X149565077Y-115953734D01*
X149513114Y-115913255D01*
X149471491Y-115867419D01*
X149454452Y-115828706D01*
X149464552Y-115790868D01*
X149506968Y-115729959D01*
X149574037Y-115664997D01*
X149656540Y-115602727D01*
X149745257Y-115549891D01*
X149830970Y-115513235D01*
X149904460Y-115499502D01*
X149914666Y-115500497D01*
G37*
G36*
X148241320Y-118197577D02*
G01*
X148247517Y-118416558D01*
X148410616Y-118198357D01*
X148467631Y-118122627D01*
X148520227Y-118056001D01*
X148558853Y-118014124D01*
X148589943Y-117991235D01*
X148619935Y-117981573D01*
X148655265Y-117979376D01*
X148736815Y-117978595D01*
X148736815Y-118304794D01*
X148736815Y-118630992D01*
X148661490Y-118630992D01*
X148586164Y-118630992D01*
X148579940Y-118420022D01*
X148573716Y-118209052D01*
X148413844Y-118420022D01*
X148377233Y-118468092D01*
X148318815Y-118542203D01*
X148276317Y-118589748D01*
X148243311Y-118616528D01*
X148213370Y-118628343D01*
X148180068Y-118630992D01*
X148106164Y-118630992D01*
X148106164Y-118304794D01*
X148106164Y-117978595D01*
X148170643Y-117978595D01*
X148235122Y-117978595D01*
X148241320Y-118197577D01*
G37*
G36*
X152568888Y-118201497D02*
G01*
X152575086Y-118424400D01*
X152744416Y-118201497D01*
X152797689Y-118131861D01*
X152853698Y-118061669D01*
X152894660Y-118016878D01*
X152926755Y-117991856D01*
X152956163Y-117980972D01*
X152989065Y-117978595D01*
X153064384Y-117978595D01*
X153064384Y-118304794D01*
X153064384Y-118630992D01*
X152999905Y-118630992D01*
X152935426Y-118630992D01*
X152929228Y-118408357D01*
X152923031Y-118185722D01*
X152759932Y-118407009D01*
X152701339Y-118485914D01*
X152649396Y-118552535D01*
X152611168Y-118594441D01*
X152580306Y-118617409D01*
X152550460Y-118627218D01*
X152515283Y-118629644D01*
X152433733Y-118630992D01*
X152433733Y-118304794D01*
X152433733Y-117978595D01*
X152498212Y-117978595D01*
X152562691Y-117978595D01*
X152568888Y-118201497D01*
G37*
G36*
X150439609Y-117978611D02*
G01*
X150551360Y-117979166D01*
X150628060Y-117981190D01*
X150676281Y-117985587D01*
X150702590Y-117993266D01*
X150713557Y-118005130D01*
X150715753Y-118022088D01*
X150714478Y-118037347D01*
X150701275Y-118055531D01*
X150665267Y-118063693D01*
X150596147Y-118065581D01*
X150476541Y-118065581D01*
X150476541Y-118348287D01*
X150476541Y-118630992D01*
X150401078Y-118630992D01*
X150325615Y-118630992D01*
X150319528Y-118353723D01*
X150313442Y-118076455D01*
X150199272Y-118069881D01*
X150175287Y-118068327D01*
X150118374Y-118060802D01*
X150091718Y-118046470D01*
X150085103Y-118020952D01*
X150085181Y-118016795D01*
X150089107Y-118001453D01*
X150103735Y-117990875D01*
X150135624Y-117984181D01*
X150191330Y-117980490D01*
X150277412Y-117978922D01*
X150400428Y-117978595D01*
X150439609Y-117978611D01*
G37*
G36*
X157463752Y-117978611D02*
G01*
X157575503Y-117979166D01*
X157652204Y-117981190D01*
X157700424Y-117985587D01*
X157726734Y-117993266D01*
X157737701Y-118005130D01*
X157739897Y-118022088D01*
X157738622Y-118037347D01*
X157725419Y-118055531D01*
X157689411Y-118063693D01*
X157620291Y-118065581D01*
X157500685Y-118065581D01*
X157500685Y-118348287D01*
X157500685Y-118630992D01*
X157425222Y-118630992D01*
X157349758Y-118630992D01*
X157343672Y-118353723D01*
X157337586Y-118076455D01*
X157223416Y-118069881D01*
X157199431Y-118068327D01*
X157142518Y-118060802D01*
X157115862Y-118046470D01*
X157109247Y-118020952D01*
X157109325Y-118016795D01*
X157113251Y-118001453D01*
X157127879Y-117990875D01*
X157159767Y-117984181D01*
X157215474Y-117980490D01*
X157301556Y-117978922D01*
X157424572Y-117978595D01*
X157463752Y-117978611D01*
G37*
G36*
X155500000Y-118304794D02*
G01*
X155500000Y-118630992D01*
X155423887Y-118630992D01*
X155347774Y-118630992D01*
X155347774Y-118489639D01*
X155347774Y-118348287D01*
X155173801Y-118348287D01*
X155100483Y-118347957D01*
X155043136Y-118345129D01*
X155013160Y-118337029D01*
X155001683Y-118320884D01*
X154999829Y-118293920D01*
X155000884Y-118271008D01*
X155009934Y-118253087D01*
X155035853Y-118243720D01*
X155087518Y-118240133D01*
X155173801Y-118239554D01*
X155347774Y-118239554D01*
X155347774Y-118152568D01*
X155347774Y-118065581D01*
X155152055Y-118065581D01*
X155074885Y-118065160D01*
X155010603Y-118062449D01*
X154974936Y-118055592D01*
X154959606Y-118042752D01*
X154956336Y-118022088D01*
X154957718Y-118007339D01*
X154967218Y-117993977D01*
X154991947Y-117985551D01*
X155038972Y-117980933D01*
X155115357Y-117978991D01*
X155228168Y-117978595D01*
X155500000Y-117978595D01*
X155500000Y-118304794D01*
G37*
G36*
X152238014Y-118304794D02*
G01*
X152238014Y-118630992D01*
X152018398Y-118630992D01*
X151917824Y-118628791D01*
X151801373Y-118616448D01*
X151715250Y-118591071D01*
X151652178Y-118550200D01*
X151604877Y-118491380D01*
X151575955Y-118413623D01*
X151564516Y-118313973D01*
X151564980Y-118307319D01*
X151726969Y-118307319D01*
X151727445Y-118347930D01*
X151733191Y-118410510D01*
X151748772Y-118450123D01*
X151778308Y-118480688D01*
X151804169Y-118497621D01*
X151866194Y-118516592D01*
X151957717Y-118522259D01*
X152085788Y-118522259D01*
X152085788Y-118291785D01*
X152085788Y-118061311D01*
X151949872Y-118076358D01*
X151889898Y-118084629D01*
X151807944Y-118107983D01*
X151758215Y-118147968D01*
X151733595Y-118211956D01*
X151726969Y-118307319D01*
X151564980Y-118307319D01*
X151571584Y-118212635D01*
X151597545Y-118128779D01*
X151598337Y-118127256D01*
X151639178Y-118066356D01*
X151692615Y-118023844D01*
X151766221Y-117996923D01*
X151867571Y-117982799D01*
X152004238Y-117978676D01*
X152238014Y-117978595D01*
X152238014Y-118291785D01*
X152238014Y-118304794D01*
G37*
G36*
X153412329Y-118217807D02*
G01*
X153413074Y-118319038D01*
X153416407Y-118394512D01*
X153423717Y-118443902D01*
X153436393Y-118476229D01*
X153455822Y-118500513D01*
X153470439Y-118512834D01*
X153538888Y-118539853D01*
X153618250Y-118539211D01*
X153690196Y-118510153D01*
X153700209Y-118502727D01*
X153717876Y-118483688D01*
X153729089Y-118455134D01*
X153735301Y-118408571D01*
X153737963Y-118335507D01*
X153738527Y-118227447D01*
X153738527Y-117978595D01*
X153825514Y-117978595D01*
X153912500Y-117978595D01*
X153911981Y-118168877D01*
X153911365Y-118223100D01*
X153903640Y-118357871D01*
X153885932Y-118458384D01*
X153856740Y-118530995D01*
X153814566Y-118582062D01*
X153808737Y-118586983D01*
X153774172Y-118609866D01*
X153731649Y-118623216D01*
X153669343Y-118629451D01*
X153575428Y-118630992D01*
X153544291Y-118630898D01*
X153461574Y-118628415D01*
X153406681Y-118620601D01*
X153367518Y-118604851D01*
X153331992Y-118578560D01*
X153331065Y-118577763D01*
X153306060Y-118554609D01*
X153288931Y-118530314D01*
X153277909Y-118496410D01*
X153271221Y-118444429D01*
X153267097Y-118365902D01*
X153263766Y-118252361D01*
X153256556Y-117978595D01*
X153334442Y-117978595D01*
X153412329Y-117978595D01*
X153412329Y-118217807D01*
G37*
G36*
X157283219Y-116627520D02*
G01*
X157292836Y-116673845D01*
X157323018Y-116748791D01*
X157367630Y-116836817D01*
X157420365Y-116926503D01*
X157474917Y-117006433D01*
X157524978Y-117065190D01*
X157536508Y-117076386D01*
X157581448Y-117121149D01*
X157597780Y-117142747D01*
X157587781Y-117147120D01*
X157553728Y-117140211D01*
X157471060Y-117110719D01*
X157394901Y-117055025D01*
X157321037Y-116965902D01*
X157292581Y-116928376D01*
X157253544Y-116886007D01*
X157227833Y-116869520D01*
X157217962Y-116873879D01*
X157181624Y-116903629D01*
X157128825Y-116955354D01*
X157067275Y-117021746D01*
X157003375Y-117092320D01*
X156957099Y-117137441D01*
X156920271Y-117161913D01*
X156883414Y-117172001D01*
X156837053Y-117173972D01*
X156830875Y-117173945D01*
X156760891Y-117167525D01*
X156732532Y-117150466D01*
X156746187Y-117123732D01*
X156802249Y-117088284D01*
X156819206Y-117078838D01*
X156883544Y-117036167D01*
X156961992Y-116977421D01*
X157041263Y-116912380D01*
X157105209Y-116856374D01*
X157151863Y-116811366D01*
X157174762Y-116779934D01*
X157179162Y-116754557D01*
X157170323Y-116727713D01*
X157159678Y-116681400D01*
X157181026Y-116632761D01*
X157240438Y-116602073D01*
X157270472Y-116600914D01*
X157283219Y-116627520D01*
G37*
G36*
X154825664Y-118348439D02*
G01*
X154799956Y-118448434D01*
X154747390Y-118534021D01*
X154668058Y-118595227D01*
X154658937Y-118599345D01*
X154582604Y-118619319D01*
X154484265Y-118629379D01*
X154379978Y-118629399D01*
X154285801Y-118619251D01*
X154217792Y-118598807D01*
X154166962Y-118566428D01*
X154095365Y-118487828D01*
X154055326Y-118393647D01*
X154045839Y-118292155D01*
X154048504Y-118278799D01*
X154204167Y-118278799D01*
X154215917Y-118371765D01*
X154257613Y-118453616D01*
X154322892Y-118509942D01*
X154376137Y-118532175D01*
X154463302Y-118540135D01*
X154556570Y-118509575D01*
X154564074Y-118505677D01*
X154630844Y-118446691D01*
X154667382Y-118364864D01*
X154671240Y-118270099D01*
X154639969Y-118172300D01*
X154611495Y-118131154D01*
X154544385Y-118083581D01*
X154463774Y-118065292D01*
X154379733Y-118074496D01*
X154302334Y-118109403D01*
X154241649Y-118168221D01*
X154207751Y-118249159D01*
X154204167Y-118278799D01*
X154048504Y-118278799D01*
X154065896Y-118191626D01*
X154114492Y-118100332D01*
X154190619Y-118026545D01*
X154293271Y-117978537D01*
X154325926Y-117970888D01*
X154446252Y-117961528D01*
X154568926Y-117975520D01*
X154673423Y-118011107D01*
X154740729Y-118061728D01*
X154796142Y-118145113D01*
X154824423Y-118244008D01*
X154824733Y-118270099D01*
X154825664Y-118348439D01*
G37*
G36*
X158325613Y-117986909D02*
G01*
X158417753Y-118039422D01*
X158466961Y-118089694D01*
X158522534Y-118188775D01*
X158542433Y-118296682D01*
X158527079Y-118404424D01*
X158476893Y-118503012D01*
X158392295Y-118583457D01*
X158387798Y-118586457D01*
X158343633Y-118611576D01*
X158297799Y-118625091D01*
X158236425Y-118629457D01*
X158145636Y-118627131D01*
X158094185Y-118624613D01*
X158025094Y-118618292D01*
X157979946Y-118606199D01*
X157946026Y-118584026D01*
X157910624Y-118547463D01*
X157884723Y-118516340D01*
X157857943Y-118466519D01*
X157868144Y-118433541D01*
X157915482Y-118413066D01*
X157941568Y-118410291D01*
X157984286Y-118425769D01*
X158036044Y-118472269D01*
X158089157Y-118515268D01*
X158166190Y-118541274D01*
X158241285Y-118532873D01*
X158307434Y-118494633D01*
X158357630Y-118431125D01*
X158384866Y-118346917D01*
X158382134Y-118246580D01*
X158373756Y-118214174D01*
X158329752Y-118136546D01*
X158263822Y-118084698D01*
X158185730Y-118062180D01*
X158105241Y-118072540D01*
X158032117Y-118119330D01*
X158018626Y-118132149D01*
X157969977Y-118161096D01*
X157913499Y-118160105D01*
X157876061Y-118149828D01*
X157852746Y-118128635D01*
X157865673Y-118094856D01*
X157914910Y-118042863D01*
X157993835Y-117992428D01*
X158100308Y-117963504D01*
X158215350Y-117961633D01*
X158325613Y-117986909D01*
G37*
G36*
X151360019Y-118366909D02*
G01*
X151406436Y-118465629D01*
X151443479Y-118545508D01*
X151468009Y-118599754D01*
X151476884Y-118621572D01*
X151476201Y-118622829D01*
X151450899Y-118628633D01*
X151400419Y-118630992D01*
X151354187Y-118627276D01*
X151318002Y-118605959D01*
X151287658Y-118554879D01*
X151251362Y-118478766D01*
X151080308Y-118478766D01*
X150909253Y-118478766D01*
X150877451Y-118554879D01*
X150854878Y-118599988D01*
X150823153Y-118625295D01*
X150769828Y-118630992D01*
X150760087Y-118630810D01*
X150713118Y-118623543D01*
X150694007Y-118608956D01*
X150697065Y-118598461D01*
X150716050Y-118553573D01*
X150749505Y-118481195D01*
X150794068Y-118388524D01*
X150811638Y-118352998D01*
X150980337Y-118352998D01*
X150986428Y-118359612D01*
X151024207Y-118367114D01*
X151085960Y-118370033D01*
X151140037Y-118368349D01*
X151181173Y-118359816D01*
X151188018Y-118342850D01*
X151178664Y-118319398D01*
X151141358Y-118227911D01*
X151115773Y-118169992D01*
X151099098Y-118139652D01*
X151088521Y-118130902D01*
X151080355Y-118138117D01*
X151058244Y-118175291D01*
X151031079Y-118233473D01*
X151015313Y-118270621D01*
X150992433Y-118324520D01*
X150980337Y-118352998D01*
X150811638Y-118352998D01*
X150846378Y-118282757D01*
X150998749Y-117978595D01*
X151087012Y-117978595D01*
X151175274Y-117978595D01*
X151326079Y-118295374D01*
X151348604Y-118342850D01*
X151360019Y-118366909D01*
G37*
G36*
X149656086Y-118398108D02*
G01*
X149607790Y-118500449D01*
X149521912Y-118581629D01*
X149496325Y-118597308D01*
X149445024Y-118618068D01*
X149379803Y-118628273D01*
X149285987Y-118630992D01*
X149268019Y-118630857D01*
X149126087Y-118616994D01*
X149019323Y-118579171D01*
X148945645Y-118515672D01*
X148902967Y-118424784D01*
X148889204Y-118304794D01*
X148890618Y-118288161D01*
X149039416Y-118288161D01*
X149049965Y-118378083D01*
X149088401Y-118457194D01*
X149153154Y-118513017D01*
X149193804Y-118529842D01*
X149295183Y-118540556D01*
X149394102Y-118510107D01*
X149407400Y-118502484D01*
X149461246Y-118455317D01*
X149489656Y-118389407D01*
X149497945Y-118293677D01*
X149494931Y-118237420D01*
X149476694Y-118181133D01*
X149434378Y-118129148D01*
X149395751Y-118095396D01*
X149342909Y-118071618D01*
X149269606Y-118065581D01*
X149212807Y-118068643D01*
X149156695Y-118086898D01*
X149104834Y-118129148D01*
X149058326Y-118199907D01*
X149039416Y-118288161D01*
X148890618Y-118288161D01*
X148896928Y-118213968D01*
X148934512Y-118111009D01*
X149004501Y-118035732D01*
X149108191Y-117986899D01*
X149246877Y-117963273D01*
X149252981Y-117962839D01*
X149339097Y-117961387D01*
X149405837Y-117973872D01*
X149474926Y-118004191D01*
X149494135Y-118014645D01*
X149585865Y-118083314D01*
X149641067Y-118167791D01*
X149665285Y-118275990D01*
X149665417Y-118277556D01*
X149664169Y-118293677D01*
X149656086Y-118398108D01*
G37*
G36*
X156705908Y-117964335D02*
G01*
X156812264Y-117999357D01*
X156902591Y-118057577D01*
X156963651Y-118132006D01*
X156965914Y-118136432D01*
X156995413Y-118234513D01*
X156997026Y-118342224D01*
X156972357Y-118444067D01*
X156923011Y-118524541D01*
X156909724Y-118538048D01*
X156858134Y-118583002D01*
X156815668Y-118610127D01*
X156761103Y-118623171D01*
X156675660Y-118629298D01*
X156581383Y-118626877D01*
X156495525Y-118616434D01*
X156435343Y-118598497D01*
X156414094Y-118585835D01*
X156361745Y-118542273D01*
X156321021Y-118493210D01*
X156304623Y-118452803D01*
X156304913Y-118451252D01*
X156327561Y-118434813D01*
X156375300Y-118418008D01*
X156417881Y-118409645D01*
X156452272Y-118419441D01*
X156482995Y-118459700D01*
X156502859Y-118485455D01*
X156569564Y-118527568D01*
X156651901Y-118537333D01*
X156737847Y-118512269D01*
X156739683Y-118511310D01*
X156802234Y-118460735D01*
X156837328Y-118385947D01*
X156848288Y-118279958D01*
X156834577Y-118203459D01*
X156790302Y-118132629D01*
X156724679Y-118084532D01*
X156647272Y-118063503D01*
X156567644Y-118073877D01*
X156495359Y-118119989D01*
X156476593Y-118137505D01*
X156429691Y-118163145D01*
X156372787Y-118160764D01*
X156355222Y-118157199D01*
X156315387Y-118145116D01*
X156308829Y-118124983D01*
X156328124Y-118084049D01*
X156330179Y-118080457D01*
X156376917Y-118035549D01*
X156452185Y-117996213D01*
X156542115Y-117968216D01*
X156632838Y-117957326D01*
X156705908Y-117964335D01*
G37*
G36*
X157985554Y-115554643D02*
G01*
X157982632Y-115617598D01*
X157979787Y-115659840D01*
X157984485Y-115700232D01*
X158009218Y-115722108D01*
X158064025Y-115740646D01*
X158087167Y-115748119D01*
X158134321Y-115767774D01*
X158153082Y-115782970D01*
X158143672Y-115804274D01*
X158103848Y-115833138D01*
X158046812Y-115850783D01*
X158032709Y-115853162D01*
X158016273Y-115861214D01*
X158019997Y-115879436D01*
X158047001Y-115915086D01*
X158100406Y-115975419D01*
X158100632Y-115975670D01*
X158152559Y-116034931D01*
X158176755Y-116068043D01*
X158175809Y-116080017D01*
X158152309Y-116075862D01*
X158100308Y-116053584D01*
X158040992Y-116018550D01*
X158038415Y-116016745D01*
X157995052Y-115989256D01*
X157969231Y-115977910D01*
X157963774Y-115990456D01*
X157960422Y-116035842D01*
X157961714Y-116102953D01*
X157965036Y-116153979D01*
X157972612Y-116201044D01*
X157986837Y-116220515D01*
X158011729Y-116221960D01*
X158037076Y-116219903D01*
X158037362Y-116229441D01*
X158005230Y-116258926D01*
X157988735Y-116272085D01*
X157938927Y-116294231D01*
X157903139Y-116277121D01*
X157881107Y-116220190D01*
X157872567Y-116122873D01*
X157877256Y-115984605D01*
X157890213Y-115801009D01*
X157825928Y-115778599D01*
X157825363Y-115778401D01*
X157780705Y-115750820D01*
X157760837Y-115715988D01*
X157768175Y-115686127D01*
X157805137Y-115673458D01*
X157838648Y-115661455D01*
X157848630Y-115618553D01*
X157859364Y-115574952D01*
X157904412Y-115542440D01*
X157945467Y-115528047D01*
X157975800Y-115527324D01*
X157985554Y-115554643D01*
G37*
G36*
X158507535Y-115742770D02*
G01*
X158504526Y-115845340D01*
X158500863Y-115917935D01*
X158493218Y-116005978D01*
X158483676Y-116071443D01*
X158473490Y-116103874D01*
X158462780Y-116123505D01*
X158475853Y-116157154D01*
X158487203Y-116170861D01*
X158501027Y-116204138D01*
X158493595Y-116205864D01*
X158463360Y-116185585D01*
X158417788Y-116144668D01*
X158385056Y-116115494D01*
X158336007Y-116082500D01*
X158303618Y-116074786D01*
X158274897Y-116080869D01*
X158246666Y-116068413D01*
X158227767Y-116027883D01*
X158216142Y-115954176D01*
X158209731Y-115842191D01*
X158207178Y-115747971D01*
X158307300Y-115747971D01*
X158310726Y-115829702D01*
X158323202Y-115923309D01*
X158343837Y-115989222D01*
X158376315Y-116017327D01*
X158393657Y-116017575D01*
X158412613Y-115999076D01*
X158406702Y-115966939D01*
X158375985Y-115936159D01*
X158361136Y-115927338D01*
X158349525Y-115915795D01*
X158375985Y-115913332D01*
X158393510Y-115908816D01*
X158412404Y-115881027D01*
X158408184Y-115844153D01*
X158380043Y-115817291D01*
X158364293Y-115807145D01*
X158359799Y-115781990D01*
X158365886Y-115775007D01*
X158393797Y-115772246D01*
X158407304Y-115766904D01*
X158414041Y-115731434D01*
X158400239Y-115686293D01*
X158365722Y-115659283D01*
X158325092Y-115663798D01*
X158312845Y-115688780D01*
X158307300Y-115747971D01*
X158207178Y-115747971D01*
X158207158Y-115747222D01*
X158208177Y-115683944D01*
X158214405Y-115646498D01*
X158227354Y-115625964D01*
X158248538Y-115613425D01*
X158291060Y-115604157D01*
X158367904Y-115613265D01*
X158372272Y-115614439D01*
X158432414Y-115625067D01*
X158477086Y-115624238D01*
X158477132Y-115624226D01*
X158492867Y-115624350D01*
X158502590Y-115639399D01*
X158507184Y-115676497D01*
X158507475Y-115731434D01*
X158507535Y-115742770D01*
G37*
G36*
X158143222Y-116532445D02*
G01*
X158156534Y-116567412D01*
X158155939Y-116639160D01*
X158154890Y-116658149D01*
X158156410Y-116709227D01*
X158171768Y-116734563D01*
X158207519Y-116747988D01*
X158217751Y-116750928D01*
X158252323Y-116774562D01*
X158246444Y-116805227D01*
X158200605Y-116836620D01*
X158169980Y-116854756D01*
X158155772Y-116884595D01*
X158183134Y-116913559D01*
X158250942Y-116939353D01*
X158301725Y-116953735D01*
X158337861Y-116969808D01*
X158344479Y-116989204D01*
X158328923Y-117019468D01*
X158304720Y-117037390D01*
X158244568Y-117036781D01*
X158209986Y-117031306D01*
X158188286Y-117037884D01*
X158190674Y-117066767D01*
X158209659Y-117103960D01*
X158249917Y-117147534D01*
X158280239Y-117180599D01*
X158288925Y-117212249D01*
X158283484Y-117222045D01*
X158245456Y-117237246D01*
X158173302Y-117231348D01*
X158065107Y-117204283D01*
X157998344Y-117185503D01*
X157959130Y-117180177D01*
X157935492Y-117189501D01*
X157914370Y-117214345D01*
X157885055Y-117248815D01*
X157858152Y-117256532D01*
X157828180Y-117229900D01*
X157816188Y-117201792D01*
X157824712Y-117150524D01*
X157857484Y-117099057D01*
X157905927Y-117059382D01*
X157961468Y-117043492D01*
X157970908Y-117047585D01*
X157971804Y-117074657D01*
X157978394Y-117101470D01*
X158025399Y-117120219D01*
X158052589Y-117125515D01*
X158093978Y-117124997D01*
X158101358Y-117100609D01*
X158078714Y-117046867D01*
X158050164Y-117004787D01*
X158009418Y-116980826D01*
X157941195Y-116967110D01*
X157864529Y-116955812D01*
X157813654Y-116944375D01*
X157789507Y-116931096D01*
X157783390Y-116912994D01*
X157790211Y-116896055D01*
X157827341Y-116874251D01*
X157883615Y-116864916D01*
X157943949Y-116871909D01*
X157992832Y-116881619D01*
X158023657Y-116879741D01*
X158033528Y-116867767D01*
X158031051Y-116833134D01*
X158007445Y-116797653D01*
X157971456Y-116778319D01*
X157943513Y-116767208D01*
X157924284Y-116734600D01*
X157933203Y-116698928D01*
X157970449Y-116678147D01*
X157970659Y-116678117D01*
X158004315Y-116662253D01*
X158006624Y-116621762D01*
X158004587Y-116603549D01*
X158017940Y-116570506D01*
X158064911Y-116543812D01*
X158110350Y-116528338D01*
X158143222Y-116532445D01*
G37*
G36*
X155591032Y-115985665D02*
G01*
X155682283Y-115935817D01*
X155753491Y-115904579D01*
X155818272Y-115897251D01*
X155856777Y-115921089D01*
X155867332Y-115973007D01*
X155848262Y-116049923D01*
X155797892Y-116148753D01*
X155769676Y-116196018D01*
X155762170Y-116208591D01*
X155714178Y-116292795D01*
X155677226Y-116361856D01*
X155645865Y-116418753D01*
X155595812Y-116481760D01*
X155534758Y-116518952D01*
X155452225Y-116535752D01*
X155337736Y-116537584D01*
X155236927Y-116537511D01*
X155163585Y-116545341D01*
X155123193Y-116561985D01*
X155118231Y-116566359D01*
X155089143Y-116607288D01*
X155067954Y-116671047D01*
X155053831Y-116762741D01*
X155045938Y-116887476D01*
X155043443Y-117050358D01*
X155043327Y-117079485D01*
X155040958Y-117190305D01*
X155036003Y-117285714D01*
X155029081Y-117356355D01*
X155020810Y-117392867D01*
X154999630Y-117420052D01*
X154955483Y-117433214D01*
X154903401Y-117409545D01*
X154847724Y-117351541D01*
X154792795Y-117261701D01*
X154775051Y-117220804D01*
X154762070Y-117171200D01*
X154755409Y-117108980D01*
X154754708Y-117026493D01*
X154759609Y-116916088D01*
X154769753Y-116770117D01*
X154776524Y-116666678D01*
X154777603Y-116572223D01*
X154768287Y-116505776D01*
X154745992Y-116459010D01*
X154708133Y-116423600D01*
X154652125Y-116391218D01*
X154637322Y-116383035D01*
X154566039Y-116330932D01*
X154506063Y-116270067D01*
X154491624Y-116253329D01*
X154435011Y-116198814D01*
X154359272Y-116135099D01*
X154349105Y-116127423D01*
X155043322Y-116127423D01*
X155045176Y-116160570D01*
X155064908Y-116218472D01*
X155113998Y-116275697D01*
X155130693Y-116291098D01*
X155199698Y-116340458D01*
X155265663Y-116356840D01*
X155343077Y-116344602D01*
X155400529Y-116315866D01*
X155449758Y-116250277D01*
X155451630Y-116246339D01*
X155471886Y-116196018D01*
X155470727Y-116160937D01*
X155447837Y-116119573D01*
X155440522Y-116109039D01*
X155376930Y-116046540D01*
X155297350Y-116002262D01*
X155213263Y-115979539D01*
X155136152Y-115981702D01*
X155077495Y-116012083D01*
X155073980Y-116016024D01*
X155052197Y-116064007D01*
X155043322Y-116127423D01*
X154349105Y-116127423D01*
X154276697Y-116072756D01*
X154221199Y-116032750D01*
X154143827Y-115971871D01*
X154097044Y-115923135D01*
X154078448Y-115883524D01*
X154529403Y-115883524D01*
X154554471Y-115927676D01*
X154592460Y-115978418D01*
X154628503Y-116015275D01*
X154676514Y-116039862D01*
X154721347Y-116032040D01*
X154748378Y-115986481D01*
X154751826Y-115963914D01*
X154740066Y-115902064D01*
X154703981Y-115850345D01*
X154653477Y-115816403D01*
X154598457Y-115807884D01*
X154548828Y-115832434D01*
X154529609Y-115856045D01*
X154529403Y-115883524D01*
X154078448Y-115883524D01*
X154076625Y-115879641D01*
X154078346Y-115834489D01*
X154097984Y-115780776D01*
X154130479Y-115724782D01*
X154200850Y-115663756D01*
X154294656Y-115638500D01*
X154413434Y-115648370D01*
X154469816Y-115659477D01*
X154569226Y-115672909D01*
X154641930Y-115667864D01*
X154698130Y-115640547D01*
X154748027Y-115587165D01*
X154801823Y-115503922D01*
X154824076Y-115470154D01*
X154878827Y-115419463D01*
X154945384Y-115405547D01*
X155033535Y-115425074D01*
X155091493Y-115447361D01*
X155134199Y-115475883D01*
X155145849Y-115512429D01*
X155133010Y-115566323D01*
X155124551Y-115594351D01*
X155111232Y-115673251D01*
X155111252Y-115746027D01*
X155125205Y-115795245D01*
X155157814Y-115825703D01*
X155219802Y-115856518D01*
X155283822Y-115869177D01*
X155320700Y-115875833D01*
X155386173Y-115896918D01*
X155461247Y-115927421D01*
X155542564Y-115963914D01*
X155591032Y-115985665D01*
G37*
G36*
X161584317Y-115651469D02*
G01*
X161590466Y-115890924D01*
X161707446Y-115890924D01*
X161839673Y-115899362D01*
X162002592Y-115926347D01*
X162161918Y-115967720D01*
X162297896Y-116019189D01*
X162455064Y-116112494D01*
X162596247Y-116240209D01*
X162708590Y-116391281D01*
X162791041Y-116560078D01*
X162842547Y-116740967D01*
X162862054Y-116928318D01*
X162848510Y-117116499D01*
X162800861Y-117299878D01*
X162718055Y-117472823D01*
X162599039Y-117629702D01*
X162580663Y-117648966D01*
X162415094Y-117791419D01*
X162231168Y-117896102D01*
X162025733Y-117964460D01*
X161795634Y-117997937D01*
X161599914Y-118011215D01*
X161593742Y-118244990D01*
X161587570Y-118478766D01*
X161490446Y-118478766D01*
X161393322Y-118478766D01*
X161393322Y-118155731D01*
X161393322Y-117832697D01*
X161659717Y-117820326D01*
X161688680Y-117818829D01*
X161909266Y-117795118D01*
X162095353Y-117749722D01*
X162251019Y-117680351D01*
X162380344Y-117584714D01*
X162487404Y-117460521D01*
X162576278Y-117305481D01*
X162583169Y-117290857D01*
X162611053Y-117227122D01*
X162628775Y-117171441D01*
X162638613Y-117110930D01*
X162642845Y-117032706D01*
X162643750Y-116923886D01*
X162642848Y-116820862D01*
X162638588Y-116739020D01*
X162628971Y-116676713D01*
X162612001Y-116621463D01*
X162585683Y-116560794D01*
X162547972Y-116491082D01*
X162439813Y-116352896D01*
X162301228Y-116236054D01*
X162139796Y-116146298D01*
X161963099Y-116089367D01*
X161928259Y-116083419D01*
X161838795Y-116073902D01*
X161730829Y-116067341D01*
X161620591Y-116064896D01*
X161393322Y-116064896D01*
X161393322Y-115932605D01*
X161390990Y-115871609D01*
X161383765Y-115823325D01*
X161373350Y-115807562D01*
X161353830Y-115819748D01*
X161308345Y-115855572D01*
X161246375Y-115908153D01*
X161174996Y-115971059D01*
X161101285Y-116037859D01*
X161032321Y-116102120D01*
X160975179Y-116157409D01*
X160936937Y-116197296D01*
X160924673Y-116215346D01*
X160925606Y-116216556D01*
X160949621Y-116238997D01*
X160999753Y-116282293D01*
X161069329Y-116340759D01*
X161151674Y-116408710D01*
X161369195Y-116586737D01*
X161375822Y-116483479D01*
X161382449Y-116380222D01*
X161621661Y-116386720D01*
X161778334Y-116394862D01*
X161909792Y-116412328D01*
X162015113Y-116441280D01*
X162102933Y-116484132D01*
X162181885Y-116543298D01*
X162263081Y-116628821D01*
X162318233Y-116727641D01*
X162344463Y-116844102D01*
X162345478Y-116988284D01*
X162343494Y-117016145D01*
X162331868Y-117107889D01*
X162311245Y-117176546D01*
X162277179Y-117238396D01*
X162215021Y-117315490D01*
X162108313Y-117397844D01*
X161973266Y-117455201D01*
X161806680Y-117488808D01*
X161605351Y-117499912D01*
X161393322Y-117500170D01*
X161393322Y-117425879D01*
X161393322Y-117351587D01*
X161648844Y-117344329D01*
X161719048Y-117342170D01*
X161808531Y-117337825D01*
X161870819Y-117330750D01*
X161916134Y-117318812D01*
X161954699Y-117299883D01*
X161996736Y-117271831D01*
X162027804Y-117247846D01*
X162113335Y-117150273D01*
X162162501Y-117036156D01*
X162173055Y-116912939D01*
X162142749Y-116788067D01*
X162079954Y-116681181D01*
X161990500Y-116604304D01*
X161873207Y-116558979D01*
X161725669Y-116543799D01*
X161590466Y-116543321D01*
X161584317Y-116783452D01*
X161578168Y-117023583D01*
X161110616Y-116628847D01*
X161091820Y-116612964D01*
X160972284Y-116511264D01*
X160865018Y-116418846D01*
X160774244Y-116339433D01*
X160704180Y-116276747D01*
X160659047Y-116234510D01*
X160643065Y-116216444D01*
X160643420Y-116215456D01*
X160663955Y-116193657D01*
X160713060Y-116148283D01*
X160786509Y-116083052D01*
X160880070Y-116001682D01*
X160989516Y-115907891D01*
X161110616Y-115805395D01*
X161578168Y-115412013D01*
X161584317Y-115651469D01*
G37*
G36*
X148988417Y-115691938D02*
G01*
X149044154Y-115717334D01*
X149037274Y-115976873D01*
X149035880Y-116049725D01*
X149037155Y-116159280D01*
X149043803Y-116229286D01*
X149055983Y-116262142D01*
X149074130Y-116273732D01*
X149127604Y-116294740D01*
X149197335Y-116313941D01*
X149249137Y-116327663D01*
X149303973Y-116354250D01*
X149317192Y-116387622D01*
X149289212Y-116430919D01*
X149220454Y-116487284D01*
X149174615Y-116523518D01*
X149120232Y-116576144D01*
X149088844Y-116619155D01*
X149079053Y-116643103D01*
X149078811Y-116669418D01*
X149103345Y-116691988D01*
X149160126Y-116721546D01*
X149226946Y-116749416D01*
X149286431Y-116757860D01*
X149360122Y-116748313D01*
X149397662Y-116740444D01*
X149444181Y-116723638D01*
X149469020Y-116694535D01*
X149486254Y-116641181D01*
X149488658Y-116632332D01*
X149515434Y-116554206D01*
X149546940Y-116484598D01*
X149552116Y-116474261D01*
X149575450Y-116401084D01*
X149584932Y-116323211D01*
X149587950Y-116267112D01*
X149606115Y-116209346D01*
X149646690Y-116174154D01*
X149716462Y-116156634D01*
X149822221Y-116151883D01*
X149825723Y-116151878D01*
X149918118Y-116148798D01*
X150002976Y-116141114D01*
X150062330Y-116130430D01*
X150077787Y-116126289D01*
X150137246Y-116120995D01*
X150187229Y-116141805D01*
X150220940Y-116169703D01*
X150237329Y-116196816D01*
X150222514Y-116221607D01*
X150183438Y-116265593D01*
X150128596Y-116319160D01*
X150095834Y-116350793D01*
X150039108Y-116419237D01*
X150019863Y-116470519D01*
X150027263Y-116497980D01*
X150064895Y-116556704D01*
X150129696Y-116630481D01*
X150216408Y-116713530D01*
X150319770Y-116800071D01*
X150372861Y-116845512D01*
X150404411Y-116888959D01*
X150403449Y-116929548D01*
X150372977Y-116977270D01*
X150352281Y-116997585D01*
X150314466Y-117010152D01*
X150265498Y-116996565D01*
X150199479Y-116954692D01*
X150110510Y-116882402D01*
X150107524Y-116879836D01*
X150047537Y-116830718D01*
X149999699Y-116795814D01*
X149974128Y-116782533D01*
X149953209Y-116797748D01*
X149928253Y-116838364D01*
X149924080Y-116848295D01*
X149915105Y-116891482D01*
X149920012Y-116948283D01*
X149939592Y-117032216D01*
X149950652Y-117075114D01*
X149970387Y-117170733D01*
X149973419Y-117237027D01*
X149959413Y-117282109D01*
X149928038Y-117314091D01*
X149858515Y-117341641D01*
X149769250Y-117344945D01*
X149681499Y-117321652D01*
X149663754Y-117313074D01*
X149638293Y-117292196D01*
X149631484Y-117258322D01*
X149638186Y-117196609D01*
X149647894Y-117128299D01*
X149661797Y-117015741D01*
X149667443Y-116934735D01*
X149664754Y-116877761D01*
X149653650Y-116837299D01*
X149634051Y-116805828D01*
X149613253Y-116784828D01*
X149568707Y-116766250D01*
X149533743Y-116782365D01*
X149519359Y-116830781D01*
X149518784Y-116847576D01*
X149507459Y-116893634D01*
X149474594Y-116932149D01*
X149410959Y-116975434D01*
X149358139Y-117000173D01*
X149239835Y-117020863D01*
X149097010Y-117009188D01*
X148932534Y-116965209D01*
X148918228Y-116960367D01*
X148744822Y-116918304D01*
X148585583Y-116913400D01*
X148433172Y-116945364D01*
X148417941Y-116950346D01*
X148353458Y-116967444D01*
X148308137Y-116967897D01*
X148264519Y-116952436D01*
X148256335Y-116948079D01*
X148211207Y-116897922D01*
X148192425Y-116821245D01*
X148202412Y-116726847D01*
X148224427Y-116690920D01*
X148280670Y-116656470D01*
X148356732Y-116638635D01*
X148439844Y-116641979D01*
X148462399Y-116645535D01*
X148516502Y-116641747D01*
X148560805Y-116610599D01*
X148592212Y-116572547D01*
X148606336Y-116541140D01*
X148594602Y-116517913D01*
X148559230Y-116472925D01*
X148508476Y-116417951D01*
X148462709Y-116367495D01*
X148425067Y-116316829D01*
X148410616Y-116284178D01*
X148416764Y-116268871D01*
X148451922Y-116234079D01*
X148507867Y-116198076D01*
X148563087Y-116164928D01*
X148608535Y-116117739D01*
X148620377Y-116059443D01*
X148603824Y-115978102D01*
X148601873Y-115971537D01*
X148588725Y-115913547D01*
X148594387Y-115873399D01*
X148621314Y-115830352D01*
X148647437Y-115803994D01*
X148714247Y-115759157D01*
X148799032Y-115718930D01*
X148843740Y-115701994D01*
X148906475Y-115683086D01*
X148950284Y-115680364D01*
X148988417Y-115691938D01*
G37*
G36*
X160566952Y-115736564D02*
G01*
X160566952Y-116060629D01*
X160278810Y-116069033D01*
X160189467Y-116071955D01*
X160092074Y-116077153D01*
X160018284Y-116085444D01*
X159956441Y-116098879D01*
X159894888Y-116119506D01*
X159821971Y-116149376D01*
X159769842Y-116173115D01*
X159614115Y-116268447D01*
X159490960Y-116388587D01*
X159395192Y-116538259D01*
X159349937Y-116641931D01*
X159301912Y-116827062D01*
X159293307Y-117010334D01*
X159322478Y-117186738D01*
X159387783Y-117351269D01*
X159487579Y-117498920D01*
X159620224Y-117624683D01*
X159784075Y-117723553D01*
X159827158Y-117742953D01*
X159884444Y-117764607D01*
X159944801Y-117780406D01*
X160018326Y-117792289D01*
X160115113Y-117802191D01*
X160245256Y-117812049D01*
X160565084Y-117834373D01*
X160571455Y-117963738D01*
X160577825Y-118093104D01*
X160800728Y-117892404D01*
X160825674Y-117869827D01*
X160903420Y-117797843D01*
X160966266Y-117737197D01*
X161008305Y-117693699D01*
X161023630Y-117673160D01*
X161018984Y-117665630D01*
X160988157Y-117634310D01*
X160935041Y-117586060D01*
X160867404Y-117527376D01*
X160793014Y-117464755D01*
X160719637Y-117404694D01*
X160655041Y-117353689D01*
X160606994Y-117318238D01*
X160583262Y-117304836D01*
X160578125Y-117309851D01*
X160570111Y-117345754D01*
X160566952Y-117404936D01*
X160566952Y-117505421D01*
X160300557Y-117496002D01*
X160267465Y-117494698D01*
X160119767Y-117483866D01*
X160003979Y-117463939D01*
X159910682Y-117431872D01*
X159830462Y-117384618D01*
X159753902Y-117319129D01*
X159674920Y-117222810D01*
X159622563Y-117100715D01*
X159605753Y-116956963D01*
X159607492Y-116897943D01*
X159632315Y-116750683D01*
X159688656Y-116630743D01*
X159779200Y-116533644D01*
X159906630Y-116454907D01*
X159963926Y-116433707D01*
X160064541Y-116409487D01*
X160182592Y-116390111D01*
X160303499Y-116377441D01*
X160412681Y-116373340D01*
X160495556Y-116379672D01*
X160541028Y-116391339D01*
X160562487Y-116413418D01*
X160562802Y-116458071D01*
X160556079Y-116522593D01*
X160327740Y-116528674D01*
X160216963Y-116534487D01*
X160094417Y-116552683D01*
X159999268Y-116585737D01*
X159922728Y-116637026D01*
X159856012Y-116709925D01*
X159838571Y-116733960D01*
X159810776Y-116785948D01*
X159796795Y-116846512D01*
X159791614Y-116933028D01*
X159791167Y-116963012D01*
X159795077Y-117042143D01*
X159810274Y-117101031D01*
X159840598Y-117157248D01*
X159857452Y-117181024D01*
X159947917Y-117262467D01*
X160070903Y-117316861D01*
X160224443Y-117343251D01*
X160371233Y-117353788D01*
X160371233Y-117110421D01*
X160371332Y-117040188D01*
X160372470Y-116958816D01*
X160375932Y-116910300D01*
X160383001Y-116888087D01*
X160394957Y-116885627D01*
X160413081Y-116896365D01*
X160436283Y-116914449D01*
X160489380Y-116957650D01*
X160566412Y-117021191D01*
X160662471Y-117101004D01*
X160772647Y-117193021D01*
X160892028Y-117293175D01*
X160947117Y-117339565D01*
X161068876Y-117442946D01*
X161161395Y-117523279D01*
X161227933Y-117583741D01*
X161271746Y-117627507D01*
X161296092Y-117657752D01*
X161304228Y-117677654D01*
X161299411Y-117690387D01*
X161279556Y-117708296D01*
X161229956Y-117751419D01*
X161156113Y-117814907D01*
X161062792Y-117894676D01*
X160954757Y-117986645D01*
X160836775Y-118086730D01*
X160729093Y-118177548D01*
X160621906Y-118267139D01*
X160529608Y-118343430D01*
X160456748Y-118402690D01*
X160407876Y-118441187D01*
X160387543Y-118455189D01*
X160382444Y-118444428D01*
X160376651Y-118398501D01*
X160372696Y-118324676D01*
X160371233Y-118231901D01*
X160371233Y-118006783D01*
X160136015Y-117982835D01*
X160119427Y-117981084D01*
X159881941Y-117940035D01*
X159677605Y-117871808D01*
X159504787Y-117775270D01*
X159361853Y-117649287D01*
X159247172Y-117492725D01*
X159159109Y-117304451D01*
X159146553Y-117269503D01*
X159122132Y-117190102D01*
X159107695Y-117114771D01*
X159100813Y-117027684D01*
X159099058Y-116913013D01*
X159099098Y-116879847D01*
X159100668Y-116784570D01*
X159106668Y-116714620D01*
X159119988Y-116655810D01*
X159143515Y-116593954D01*
X159180140Y-116514866D01*
X159245011Y-116397284D01*
X159375847Y-116229888D01*
X159536466Y-116093003D01*
X159725027Y-115987805D01*
X159939692Y-115915471D01*
X160178619Y-115877174D01*
X160349486Y-115862924D01*
X160349486Y-115637711D01*
X160349486Y-115412499D01*
X160458219Y-115412499D01*
X160566952Y-115412499D01*
X160566952Y-115736564D01*
G37*
G36*
X157497138Y-115892855D02*
G01*
X157495136Y-115957512D01*
X157493968Y-115995232D01*
X157486545Y-116120871D01*
X157476150Y-116203540D01*
X157462805Y-116243026D01*
X157443111Y-116258898D01*
X157401991Y-116266107D01*
X157332325Y-116258491D01*
X157282582Y-116251530D01*
X157192897Y-116243683D01*
X157105179Y-116240726D01*
X157029748Y-116242602D01*
X156976922Y-116249251D01*
X156957021Y-116260615D01*
X156956830Y-116263860D01*
X156939226Y-116281195D01*
X156904556Y-116275431D01*
X156869237Y-116248781D01*
X156861271Y-116224810D01*
X156853225Y-116163805D01*
X156847161Y-116077090D01*
X156843213Y-115974428D01*
X156841514Y-115865580D01*
X156842197Y-115760308D01*
X156845397Y-115668374D01*
X156851246Y-115599540D01*
X156854381Y-115586472D01*
X156957021Y-115586472D01*
X156957021Y-115880050D01*
X156957021Y-116173629D01*
X157022260Y-116173629D01*
X157056694Y-116171631D01*
X157082111Y-116154599D01*
X157086975Y-116112892D01*
X157157109Y-116112892D01*
X157160195Y-116134220D01*
X157189729Y-116161565D01*
X157199820Y-116165075D01*
X157253892Y-116179661D01*
X157321276Y-116194113D01*
X157413699Y-116211507D01*
X157413699Y-115957512D01*
X157412916Y-115863046D01*
X157408117Y-115766851D01*
X157396801Y-115701715D01*
X157376547Y-115660500D01*
X157344931Y-115636069D01*
X157299529Y-115621285D01*
X157289761Y-115619161D01*
X157250690Y-115618342D01*
X157239726Y-115640424D01*
X157243614Y-115656017D01*
X157272346Y-115673458D01*
X157287352Y-115675911D01*
X157304966Y-115695205D01*
X157296218Y-115708079D01*
X157260189Y-115716951D01*
X157235511Y-115721581D01*
X157228853Y-115738698D01*
X157256028Y-115753741D01*
X157306249Y-115760444D01*
X157346490Y-115761619D01*
X157365499Y-115771925D01*
X157361494Y-115801722D01*
X157350075Y-115830355D01*
X157337704Y-115861374D01*
X157332564Y-115873181D01*
X157302694Y-115919787D01*
X157272464Y-115926598D01*
X157254602Y-115921608D01*
X157240081Y-115928309D01*
X157252558Y-115949446D01*
X157288656Y-115974933D01*
X157292383Y-115976879D01*
X157315905Y-115991270D01*
X157305221Y-115994444D01*
X157256036Y-115988145D01*
X157197433Y-115985454D01*
X157176349Y-115996669D01*
X157194577Y-116015524D01*
X157252586Y-116035553D01*
X157291501Y-116049049D01*
X157323730Y-116070492D01*
X157331220Y-116089389D01*
X157306778Y-116097516D01*
X157303108Y-116097759D01*
X157270534Y-116113826D01*
X157260716Y-116122174D01*
X157230668Y-116127045D01*
X157217979Y-116095704D01*
X157216939Y-116086080D01*
X157199947Y-116070096D01*
X157174579Y-116080565D01*
X157157109Y-116112892D01*
X157086975Y-116112892D01*
X157087500Y-116108389D01*
X157080777Y-116062600D01*
X157054880Y-116043150D01*
X157046083Y-116042699D01*
X157023270Y-116030193D01*
X157032413Y-116010182D01*
X157069487Y-115995732D01*
X157099394Y-115985644D01*
X157126820Y-115958135D01*
X157127434Y-115939690D01*
X157101341Y-115941142D01*
X157079108Y-115944508D01*
X157065753Y-115921396D01*
X157076187Y-115899050D01*
X157114683Y-115902416D01*
X157115671Y-115902705D01*
X157136312Y-115904479D01*
X157125474Y-115887042D01*
X157105614Y-115869177D01*
X157228853Y-115869177D01*
X157237196Y-115880034D01*
X157266642Y-115888161D01*
X157291766Y-115856525D01*
X157301224Y-115830355D01*
X157299242Y-115809223D01*
X157269925Y-115795144D01*
X157247102Y-115791631D01*
X157247496Y-115814564D01*
X157250777Y-115831523D01*
X157241749Y-115842556D01*
X157237760Y-115847431D01*
X157230190Y-115849121D01*
X157228853Y-115869177D01*
X157105614Y-115869177D01*
X157081262Y-115847272D01*
X157073533Y-115840697D01*
X157029271Y-115798457D01*
X157015038Y-115769951D01*
X157020692Y-115756872D01*
X157090790Y-115756872D01*
X157097853Y-115802299D01*
X157113783Y-115828999D01*
X157148769Y-115845714D01*
X157167870Y-115842556D01*
X157157269Y-115832726D01*
X157141897Y-115821092D01*
X157152387Y-115793489D01*
X157162801Y-115770979D01*
X157139309Y-115751599D01*
X157111074Y-115744107D01*
X157090790Y-115756872D01*
X157020692Y-115756872D01*
X157025573Y-115745579D01*
X157051258Y-115728179D01*
X157102487Y-115723060D01*
X157142413Y-115726518D01*
X157148242Y-115713221D01*
X157114683Y-115681649D01*
X157097380Y-115667564D01*
X157091872Y-115651384D01*
X157125557Y-115638659D01*
X157127360Y-115638146D01*
X157168491Y-115619999D01*
X157169662Y-115603355D01*
X157134281Y-115591188D01*
X157065753Y-115586472D01*
X156957021Y-115586472D01*
X156854381Y-115586472D01*
X156859877Y-115563566D01*
X156871144Y-115554736D01*
X156909504Y-115547371D01*
X156978807Y-115547095D01*
X157085081Y-115553642D01*
X157126643Y-115556777D01*
X157232900Y-115564014D01*
X157329370Y-115569607D01*
X157399278Y-115572547D01*
X157504464Y-115575178D01*
X157503814Y-115603355D01*
X157497138Y-115892855D01*
G37*
G36*
X152245749Y-116441794D02*
G01*
X152259760Y-116469455D01*
X152258318Y-116476421D01*
X152239345Y-116514217D01*
X152205394Y-116565068D01*
X152192650Y-116582828D01*
X152162911Y-116629245D01*
X152151027Y-116656216D01*
X152151523Y-116660060D01*
X152171901Y-116695190D01*
X152214354Y-116744214D01*
X152268142Y-116796547D01*
X152322523Y-116841604D01*
X152366755Y-116868800D01*
X152368665Y-116869585D01*
X152427128Y-116883940D01*
X152477162Y-116869554D01*
X152497100Y-116856995D01*
X152513432Y-116833438D01*
X152517193Y-116792323D01*
X152511301Y-116720943D01*
X152502794Y-116633287D01*
X152497524Y-116537652D01*
X152500073Y-116463136D01*
X152510406Y-116397073D01*
X152515436Y-116362689D01*
X152506192Y-116313664D01*
X152468741Y-116259488D01*
X152435936Y-116216993D01*
X152416007Y-116169996D01*
X152422615Y-116119507D01*
X152454670Y-116049256D01*
X152463382Y-116031404D01*
X152483336Y-115971883D01*
X152492386Y-115898486D01*
X152492726Y-115796650D01*
X152491491Y-115741984D01*
X152492672Y-115675031D01*
X152500654Y-115632646D01*
X152518459Y-115602870D01*
X152549115Y-115573747D01*
X152553473Y-115570100D01*
X152632858Y-115529634D01*
X152719498Y-115524260D01*
X152798586Y-115555085D01*
X152825380Y-115576708D01*
X152843495Y-115609645D01*
X152836061Y-115654288D01*
X152803425Y-115722631D01*
X152796460Y-115736426D01*
X152768625Y-115826151D01*
X152759932Y-115942802D01*
X152761068Y-115992256D01*
X152774782Y-116083266D01*
X152808521Y-116142579D01*
X152867885Y-116177299D01*
X152958478Y-116194526D01*
X153004093Y-116199709D01*
X153050696Y-116210057D01*
X153070883Y-116227685D01*
X153075257Y-116258391D01*
X153074721Y-116269933D01*
X153062882Y-116299406D01*
X153028083Y-116322861D01*
X152960555Y-116347925D01*
X152945359Y-116353027D01*
X152843837Y-116397930D01*
X152781281Y-116448310D01*
X152759932Y-116502442D01*
X152761668Y-116517493D01*
X152789522Y-116574531D01*
X152842038Y-116632700D01*
X152907112Y-116680410D01*
X152972635Y-116706072D01*
X152996529Y-116711253D01*
X153074130Y-116735524D01*
X153151370Y-116767672D01*
X153164846Y-116774308D01*
X153218556Y-116806053D01*
X153243269Y-116837388D01*
X153249229Y-116880084D01*
X153248623Y-116895464D01*
X153236989Y-116934232D01*
X153219353Y-116953614D01*
X153203853Y-116970649D01*
X153140497Y-117015580D01*
X153125684Y-117025644D01*
X153053944Y-117081924D01*
X152972421Y-117154642D01*
X152896030Y-117230673D01*
X152840723Y-117288687D01*
X152792185Y-117334815D01*
X152756687Y-117358561D01*
X152725459Y-117365470D01*
X152689729Y-117361087D01*
X152635246Y-117345596D01*
X152591908Y-117314818D01*
X152563690Y-117260869D01*
X152542624Y-117173591D01*
X152531134Y-117125443D01*
X152507984Y-117062893D01*
X152483705Y-117027182D01*
X152464490Y-117017931D01*
X152406371Y-117005053D01*
X152334128Y-116999999D01*
X152292211Y-116998592D01*
X152227679Y-116987385D01*
X152159571Y-116960591D01*
X152148027Y-116954302D01*
X152769443Y-116954302D01*
X152773638Y-116960300D01*
X152808079Y-116989888D01*
X152848774Y-117008371D01*
X152876678Y-117006483D01*
X152883170Y-116997463D01*
X152890890Y-116953614D01*
X152880645Y-116905658D01*
X152856105Y-116876737D01*
X152835787Y-116874454D01*
X152797299Y-116890704D01*
X152770116Y-116921856D01*
X152769443Y-116954302D01*
X152148027Y-116954302D01*
X152072234Y-116913013D01*
X152059196Y-116905517D01*
X151980926Y-116865189D01*
X151912077Y-116836775D01*
X151866265Y-116826026D01*
X151839401Y-116829688D01*
X151765096Y-116860475D01*
X151672691Y-116919439D01*
X151568550Y-117002801D01*
X151533518Y-117031293D01*
X151498978Y-117050030D01*
X151455131Y-117060206D01*
X151390584Y-117064412D01*
X151293944Y-117065239D01*
X151289188Y-117065236D01*
X151177173Y-117062063D01*
X151102762Y-117051119D01*
X151060548Y-117029723D01*
X151045122Y-116995193D01*
X151051079Y-116944850D01*
X151064953Y-116916198D01*
X151120816Y-116869188D01*
X151217885Y-116825465D01*
X151357277Y-116784442D01*
X151390211Y-116775256D01*
X151471597Y-116745810D01*
X151536687Y-116713879D01*
X151572066Y-116686008D01*
X151605967Y-116624052D01*
X151599311Y-116551624D01*
X151551845Y-116472747D01*
X151536278Y-116449811D01*
X151836309Y-116449811D01*
X151853853Y-116487714D01*
X151862786Y-116499427D01*
X151884584Y-116513625D01*
X151909395Y-116491871D01*
X151922733Y-116468767D01*
X151923277Y-116435541D01*
X151908551Y-116421612D01*
X151869315Y-116413888D01*
X151837682Y-116431384D01*
X151836309Y-116449811D01*
X151536278Y-116449811D01*
X151515229Y-116418797D01*
X151501475Y-116353469D01*
X151530177Y-116297236D01*
X151601577Y-116249005D01*
X151636838Y-116231702D01*
X151698021Y-116196590D01*
X151724161Y-116167418D01*
X151719214Y-116137262D01*
X151687133Y-116099197D01*
X151680817Y-116093087D01*
X151634079Y-116057626D01*
X151596398Y-116043150D01*
X151573215Y-116040589D01*
X151510213Y-116016289D01*
X151453509Y-115975806D01*
X151421393Y-115930876D01*
X151417314Y-115906432D01*
X151436906Y-115862733D01*
X151493847Y-115835237D01*
X151585424Y-115825684D01*
X151614240Y-115824657D01*
X151675380Y-115815381D01*
X151711747Y-115799588D01*
X151721964Y-115779760D01*
X151733535Y-115724494D01*
X151738175Y-115652799D01*
X151738184Y-115650281D01*
X151741593Y-115566158D01*
X151754714Y-115513601D01*
X151783055Y-115481152D01*
X151832124Y-115457353D01*
X151906367Y-115437101D01*
X151971040Y-115444617D01*
X152034000Y-115485314D01*
X152093370Y-115536382D01*
X152056959Y-115666150D01*
X152029722Y-115784798D01*
X152024000Y-115889388D01*
X152046420Y-115971904D01*
X152099183Y-116039845D01*
X152184490Y-116100709D01*
X152194061Y-116106577D01*
X152214807Y-116131239D01*
X152199799Y-116165949D01*
X152186142Y-116186271D01*
X152148882Y-116248780D01*
X152137598Y-116292837D01*
X152151746Y-116331135D01*
X152190782Y-116376364D01*
X152210388Y-116397500D01*
X152240757Y-116435541D01*
X152245749Y-116441794D01*
G37*
G36*
X158624713Y-110873265D02*
G01*
X158754390Y-110888382D01*
X158881029Y-110917026D01*
X159003321Y-110958535D01*
X159119957Y-111012246D01*
X159229630Y-111077497D01*
X159331030Y-111153626D01*
X159422849Y-111239971D01*
X159503779Y-111335869D01*
X159572511Y-111440658D01*
X159585158Y-111463574D01*
X159635427Y-111573780D01*
X159673276Y-111691436D01*
X159698678Y-111814586D01*
X159711606Y-111941274D01*
X159712033Y-112069544D01*
X159699930Y-112197438D01*
X159675270Y-112323001D01*
X159638027Y-112444277D01*
X159588172Y-112559309D01*
X159561721Y-112608408D01*
X159514496Y-112681959D01*
X159458737Y-112752558D01*
X159391299Y-112824438D01*
X159303870Y-112902757D01*
X159198124Y-112977738D01*
X159083977Y-113039362D01*
X158961370Y-113087657D01*
X158830243Y-113122650D01*
X158690537Y-113144367D01*
X158650227Y-113147362D01*
X158585376Y-113148878D01*
X158513836Y-113147609D01*
X158440692Y-113143758D01*
X158371031Y-113137530D01*
X158309939Y-113129127D01*
X158266775Y-113120762D01*
X158194922Y-113103185D01*
X158123424Y-113081725D01*
X158057427Y-113057980D01*
X158002074Y-113033546D01*
X157971796Y-113017421D01*
X157912564Y-112981838D01*
X157849267Y-112939575D01*
X157785569Y-112893336D01*
X157725134Y-112845829D01*
X157671626Y-112799759D01*
X157628710Y-112757831D01*
X157617450Y-112745911D01*
X157606157Y-112733150D01*
X157598738Y-112721518D01*
X157595979Y-112709623D01*
X157598668Y-112696071D01*
X157607591Y-112679470D01*
X157623535Y-112658427D01*
X157647288Y-112631549D01*
X157679636Y-112597443D01*
X157721366Y-112554716D01*
X157773265Y-112501977D01*
X157809493Y-112465460D01*
X157842413Y-112433286D01*
X157867356Y-112410436D01*
X157885773Y-112395659D01*
X157899115Y-112387709D01*
X157908834Y-112385336D01*
X157911215Y-112385468D01*
X157929081Y-112391991D01*
X157954131Y-112408995D01*
X157987745Y-112437389D01*
X158032864Y-112476451D01*
X158115640Y-112540086D01*
X158195706Y-112590444D01*
X158274818Y-112628568D01*
X158354733Y-112655502D01*
X158360752Y-112657088D01*
X158389002Y-112663540D01*
X158417653Y-112667959D01*
X158450557Y-112670689D01*
X158491563Y-112672075D01*
X158544522Y-112672461D01*
X158613780Y-112671209D01*
X158671890Y-112666795D01*
X158723079Y-112658246D01*
X158771723Y-112644587D01*
X158822196Y-112624844D01*
X158878875Y-112598045D01*
X158906645Y-112583294D01*
X158988617Y-112528352D01*
X159059886Y-112462202D01*
X159119579Y-112385905D01*
X159166820Y-112300525D01*
X159200734Y-112207124D01*
X159205041Y-112187631D01*
X159210673Y-112148429D01*
X159215212Y-112099612D01*
X159218264Y-112044848D01*
X159218482Y-112038883D01*
X159218590Y-111953705D01*
X159212289Y-111880157D01*
X159199191Y-111815416D01*
X159178912Y-111756662D01*
X159139745Y-111679075D01*
X159084070Y-111598703D01*
X159017832Y-111527196D01*
X158942728Y-111465914D01*
X158860458Y-111416222D01*
X158772717Y-111379484D01*
X158681205Y-111357061D01*
X158634532Y-111352052D01*
X158576081Y-111350097D01*
X158513621Y-111351427D01*
X158452065Y-111355811D01*
X158396324Y-111363012D01*
X158351311Y-111372797D01*
X158330426Y-111379129D01*
X158244746Y-111411815D01*
X158162301Y-111454935D01*
X158080423Y-111510038D01*
X157996443Y-111578672D01*
X157979155Y-111593691D01*
X157945358Y-111620868D01*
X157920851Y-111636801D01*
X157904897Y-111641999D01*
X157904372Y-111641985D01*
X157894308Y-111638582D01*
X157878718Y-111628547D01*
X157856488Y-111610952D01*
X157826505Y-111584869D01*
X157787657Y-111549368D01*
X157738829Y-111503522D01*
X157705850Y-111472001D01*
X157668731Y-111435793D01*
X157636738Y-111403775D01*
X157611483Y-111377593D01*
X157594580Y-111358892D01*
X157587644Y-111349319D01*
X157586888Y-111346775D01*
X157585232Y-111334036D01*
X157588413Y-111320671D01*
X157597821Y-111304695D01*
X157614845Y-111284124D01*
X157640875Y-111256973D01*
X157677298Y-111221258D01*
X157697690Y-111201976D01*
X157805599Y-111112631D01*
X157921268Y-111037009D01*
X158044350Y-110975264D01*
X158174495Y-110927554D01*
X158311355Y-110894032D01*
X158454580Y-110874856D01*
X158493305Y-110872337D01*
X158624713Y-110873265D01*
G37*
G36*
X152609683Y-112668420D02*
G01*
X152604340Y-112753039D01*
X152585506Y-112843288D01*
X152553700Y-112925780D01*
X152509555Y-112999661D01*
X152453700Y-113064078D01*
X152386769Y-113118177D01*
X152309391Y-113161107D01*
X152222199Y-113192013D01*
X152211689Y-113194737D01*
X152186178Y-113200251D01*
X152160088Y-113203764D01*
X152129617Y-113205549D01*
X152090961Y-113205876D01*
X152040319Y-113205018D01*
X152003785Y-113204025D01*
X151963200Y-113202223D01*
X151931850Y-113199493D01*
X151905884Y-113195331D01*
X151881454Y-113189231D01*
X151854711Y-113180691D01*
X151829842Y-113171760D01*
X151744761Y-113134251D01*
X151665098Y-113088647D01*
X151595956Y-113037769D01*
X151578170Y-113022890D01*
X151554975Y-113004036D01*
X151538233Y-112991122D01*
X151530716Y-112986332D01*
X151529187Y-112991764D01*
X151527696Y-113010115D01*
X151526682Y-113038364D01*
X151526309Y-113073319D01*
X151526309Y-113160305D01*
X151257053Y-113160305D01*
X150987797Y-113160305D01*
X150990673Y-112521746D01*
X150990990Y-112450967D01*
X150991454Y-112351846D01*
X151526309Y-112351846D01*
X151526309Y-112534127D01*
X151526309Y-112716407D01*
X151559917Y-112743290D01*
X151563943Y-112746491D01*
X151607419Y-112777778D01*
X151649639Y-112800774D01*
X151698055Y-112819595D01*
X151733660Y-112829077D01*
X151792218Y-112836505D01*
X151852859Y-112835984D01*
X151911444Y-112827903D01*
X151963837Y-112812652D01*
X152005901Y-112790620D01*
X152026981Y-112770209D01*
X152048485Y-112733203D01*
X152062540Y-112687363D01*
X152068212Y-112636011D01*
X152064564Y-112582470D01*
X152060650Y-112562592D01*
X152047290Y-112522890D01*
X152026581Y-112488569D01*
X151997471Y-112459132D01*
X151958911Y-112434083D01*
X151909851Y-112412928D01*
X151849239Y-112395169D01*
X151776026Y-112380311D01*
X151689161Y-112367859D01*
X151587594Y-112357317D01*
X151526309Y-112351846D01*
X150991454Y-112351846D01*
X150991514Y-112339124D01*
X150992067Y-112241328D01*
X150992727Y-112156455D01*
X150993572Y-112083380D01*
X150994681Y-112020977D01*
X150996131Y-111968124D01*
X150998001Y-111923694D01*
X151000370Y-111886564D01*
X151003315Y-111855609D01*
X151006915Y-111829704D01*
X151011249Y-111807724D01*
X151016393Y-111788546D01*
X151022427Y-111771044D01*
X151029429Y-111754093D01*
X151037477Y-111736570D01*
X151046649Y-111717350D01*
X151076821Y-111662844D01*
X151124243Y-111600677D01*
X151181945Y-111547082D01*
X151250501Y-111501802D01*
X151330482Y-111464583D01*
X151422462Y-111435167D01*
X151527013Y-111413300D01*
X151644708Y-111398724D01*
X151776119Y-111391184D01*
X151820676Y-111390218D01*
X151897868Y-111390201D01*
X151968968Y-111392259D01*
X152029170Y-111396296D01*
X152040919Y-111397466D01*
X152091090Y-111403484D01*
X152149397Y-111411711D01*
X152211864Y-111421479D01*
X152274518Y-111432119D01*
X152333384Y-111442965D01*
X152384485Y-111453348D01*
X152423849Y-111462602D01*
X152463388Y-111473006D01*
X152465498Y-111680917D01*
X152467608Y-111888828D01*
X152437821Y-111885169D01*
X152423805Y-111882268D01*
X152395966Y-111874240D01*
X152361364Y-111862706D01*
X152324445Y-111849084D01*
X152260861Y-111825825D01*
X152153616Y-111793928D01*
X152052153Y-111773941D01*
X151954026Y-111765442D01*
X151856793Y-111768007D01*
X151843011Y-111769192D01*
X151763973Y-111779017D01*
X151698576Y-111793298D01*
X151645316Y-111812709D01*
X151602687Y-111837925D01*
X151569185Y-111869619D01*
X151543304Y-111908467D01*
X151538694Y-111920101D01*
X151532813Y-111943366D01*
X151528167Y-111970432D01*
X151525382Y-111996506D01*
X151525084Y-112016797D01*
X151527898Y-112026512D01*
X151533681Y-112027919D01*
X151553286Y-112030712D01*
X151583882Y-112034219D01*
X151622706Y-112038131D01*
X151666997Y-112042137D01*
X151707958Y-112045745D01*
X151818609Y-112056714D01*
X151915836Y-112068497D01*
X152001420Y-112081461D01*
X152077145Y-112095978D01*
X152144792Y-112112416D01*
X152206144Y-112131145D01*
X152262984Y-112152536D01*
X152317093Y-112176957D01*
X152350736Y-112193821D01*
X152384919Y-112212849D01*
X152412746Y-112231660D01*
X152438899Y-112253500D01*
X152468060Y-112281615D01*
X152488128Y-112302758D01*
X152533985Y-112361992D01*
X152568282Y-112426027D01*
X152591807Y-112497012D01*
X152605345Y-112577094D01*
X152608144Y-112636011D01*
X152609683Y-112668420D01*
G37*
G36*
X154534461Y-111632114D02*
G01*
X154548638Y-111688906D01*
X154574738Y-111793321D01*
X154599668Y-111892869D01*
X154623163Y-111986503D01*
X154644958Y-112073175D01*
X154664788Y-112151836D01*
X154682389Y-112221438D01*
X154697495Y-112280933D01*
X154709841Y-112329273D01*
X154719164Y-112365410D01*
X154725197Y-112388295D01*
X154727677Y-112396881D01*
X154728572Y-112398525D01*
X154729537Y-112399707D01*
X154730666Y-112399385D01*
X154732148Y-112396686D01*
X154734173Y-112390736D01*
X154736928Y-112380660D01*
X154740605Y-112365583D01*
X154745392Y-112344633D01*
X154751478Y-112316934D01*
X154759053Y-112281612D01*
X154768306Y-112237794D01*
X154779426Y-112184605D01*
X154792603Y-112121171D01*
X154808025Y-112046617D01*
X154825883Y-111960071D01*
X154846365Y-111860656D01*
X154869661Y-111747500D01*
X154895960Y-111619728D01*
X155049254Y-110874975D01*
X155347050Y-110874956D01*
X155644847Y-110874938D01*
X155512186Y-111398832D01*
X155502414Y-111437420D01*
X155475947Y-111541908D01*
X155446618Y-111657671D01*
X155415156Y-111781825D01*
X155382294Y-111911488D01*
X155348760Y-112043776D01*
X155315288Y-112175806D01*
X155282606Y-112304694D01*
X155251446Y-112427559D01*
X155222539Y-112541516D01*
X155065554Y-113160305D01*
X154748193Y-113160305D01*
X154430832Y-113160305D01*
X154258786Y-112474542D01*
X154234520Y-112377930D01*
X154209901Y-112280145D01*
X154186527Y-112187542D01*
X154164686Y-112101251D01*
X154144666Y-112022400D01*
X154126755Y-111952118D01*
X154111241Y-111891535D01*
X154098411Y-111841779D01*
X154088554Y-111803979D01*
X154081956Y-111779266D01*
X154078905Y-111768766D01*
X154075799Y-111762129D01*
X154071948Y-111760266D01*
X154067447Y-111767988D01*
X154061295Y-111787229D01*
X154052495Y-111819925D01*
X154050797Y-111826440D01*
X154044275Y-111851526D01*
X154034271Y-111890043D01*
X154021125Y-111940689D01*
X154005172Y-112002165D01*
X153986751Y-112073170D01*
X153966198Y-112152404D01*
X153943851Y-112238568D01*
X153920048Y-112330359D01*
X153895125Y-112426479D01*
X153869420Y-112525628D01*
X153704920Y-113160160D01*
X153387605Y-113160232D01*
X153070290Y-113160305D01*
X153049067Y-113075296D01*
X153043360Y-113052545D01*
X153034054Y-113015619D01*
X153021666Y-112966570D01*
X153006465Y-112906453D01*
X152988718Y-112836323D01*
X152968692Y-112757238D01*
X152946657Y-112670253D01*
X152922880Y-112576424D01*
X152897629Y-112476808D01*
X152871172Y-112372458D01*
X152843777Y-112264433D01*
X152815711Y-112153788D01*
X152787244Y-112041578D01*
X152758642Y-111928861D01*
X152730174Y-111816690D01*
X152702108Y-111706124D01*
X152674712Y-111598217D01*
X152648253Y-111494026D01*
X152623000Y-111394606D01*
X152599221Y-111301013D01*
X152577183Y-111214304D01*
X152557155Y-111135535D01*
X152539405Y-111065760D01*
X152524200Y-111006037D01*
X152511808Y-110957421D01*
X152502498Y-110920968D01*
X152496537Y-110897735D01*
X152494194Y-110888776D01*
X152493804Y-110885638D01*
X152495812Y-110882636D01*
X152501867Y-110880254D01*
X152513441Y-110878421D01*
X152532004Y-110877067D01*
X152559027Y-110876120D01*
X152595982Y-110875511D01*
X152644340Y-110875168D01*
X152705571Y-110875022D01*
X152781146Y-110875000D01*
X153072292Y-110875063D01*
X153233772Y-111624269D01*
X153243309Y-111668496D01*
X153265982Y-111773492D01*
X153287698Y-111873838D01*
X153308218Y-111968453D01*
X153327309Y-112056255D01*
X153344732Y-112136163D01*
X153360251Y-112207096D01*
X153373631Y-112267973D01*
X153384634Y-112317712D01*
X153393025Y-112355232D01*
X153398566Y-112379452D01*
X153401022Y-112389290D01*
X153401861Y-112391529D01*
X153406809Y-112399592D01*
X153411215Y-112393244D01*
X153411289Y-112393021D01*
X153414041Y-112382402D01*
X153420146Y-112357595D01*
X153429341Y-112319700D01*
X153441362Y-112269819D01*
X153455946Y-112209054D01*
X153472828Y-112138506D01*
X153491745Y-112059277D01*
X153512433Y-111972468D01*
X153534630Y-111879182D01*
X153558070Y-111780520D01*
X153582491Y-111677584D01*
X153583112Y-111674965D01*
X153607745Y-111571092D01*
X153631541Y-111470806D01*
X153654219Y-111375286D01*
X153675499Y-111285712D01*
X153695099Y-111203266D01*
X153712738Y-111129128D01*
X153728137Y-111064477D01*
X153741013Y-111010495D01*
X153751087Y-110968361D01*
X153758077Y-110939257D01*
X153761702Y-110924362D01*
X153774059Y-110874938D01*
X154059799Y-110874938D01*
X154345539Y-110874938D01*
X154534461Y-111632114D01*
G37*
G36*
X157478966Y-112024068D02*
G01*
X157479744Y-112468368D01*
X157480970Y-113169244D01*
X156913555Y-113166273D01*
X156836153Y-113165853D01*
X156735686Y-113165237D01*
X156648983Y-113164590D01*
X156574825Y-113163879D01*
X156511995Y-113163073D01*
X156459275Y-113162140D01*
X156415447Y-113161048D01*
X156379294Y-113159764D01*
X156349597Y-113158256D01*
X156325138Y-113156492D01*
X156304701Y-113154441D01*
X156287066Y-113152069D01*
X156271016Y-113149346D01*
X156183802Y-113129370D01*
X156078162Y-113093790D01*
X155982069Y-113047895D01*
X155896419Y-112992288D01*
X155822108Y-112927569D01*
X155760033Y-112854342D01*
X155711089Y-112773208D01*
X155681881Y-112714287D01*
X155681956Y-112508296D01*
X155681973Y-112491918D01*
X155682427Y-112420899D01*
X155682508Y-112417202D01*
X156234189Y-112417202D01*
X156234893Y-112487875D01*
X156241026Y-112527172D01*
X156260865Y-112586712D01*
X156292824Y-112636682D01*
X156337305Y-112677511D01*
X156394708Y-112709626D01*
X156465434Y-112733454D01*
X156486086Y-112738297D01*
X156508487Y-112742274D01*
X156533741Y-112745163D01*
X156564439Y-112747128D01*
X156603173Y-112748330D01*
X156652536Y-112748932D01*
X156715120Y-112749097D01*
X156903644Y-112749097D01*
X156903644Y-112468368D01*
X156903599Y-112409110D01*
X156903455Y-112348421D01*
X156903222Y-112294411D01*
X156902915Y-112248907D01*
X156902545Y-112213738D01*
X156902124Y-112190729D01*
X156901667Y-112181709D01*
X156893938Y-112180186D01*
X156872416Y-112178812D01*
X156839192Y-112177682D01*
X156796348Y-112176848D01*
X156745967Y-112176365D01*
X156690132Y-112176285D01*
X156676781Y-112176322D01*
X156613288Y-112176683D01*
X156563011Y-112177407D01*
X156523758Y-112178619D01*
X156493335Y-112180442D01*
X156469551Y-112183002D01*
X156450213Y-112186420D01*
X156433127Y-112190823D01*
X156428989Y-112192070D01*
X156364455Y-112218698D01*
X156312447Y-112254916D01*
X156273227Y-112300333D01*
X156247054Y-112354558D01*
X156234189Y-112417202D01*
X155682508Y-112417202D01*
X155683701Y-112362987D01*
X155686070Y-112315936D01*
X155689808Y-112277506D01*
X155695190Y-112245452D01*
X155702489Y-112217533D01*
X155711981Y-112191505D01*
X155723938Y-112165125D01*
X155752930Y-112119923D01*
X155795269Y-112074438D01*
X155848001Y-112031183D01*
X155908438Y-111992107D01*
X155973896Y-111959162D01*
X156041688Y-111934298D01*
X156047908Y-111932434D01*
X156075943Y-111923497D01*
X156097118Y-111915890D01*
X156107253Y-111911095D01*
X156107032Y-111908835D01*
X156097525Y-111899652D01*
X156078220Y-111885908D01*
X156051821Y-111869626D01*
X155983237Y-111821137D01*
X155922138Y-111760223D01*
X155871272Y-111689937D01*
X155832453Y-111612790D01*
X155808702Y-111535243D01*
X156381726Y-111535243D01*
X156386170Y-111591023D01*
X156402883Y-111647724D01*
X156432123Y-111694830D01*
X156474010Y-111732525D01*
X156528663Y-111760989D01*
X156545383Y-111767081D01*
X156562588Y-111771894D01*
X156582310Y-111775454D01*
X156607208Y-111778034D01*
X156639942Y-111779908D01*
X156683171Y-111781347D01*
X156739556Y-111782626D01*
X156754392Y-111782906D01*
X156801935Y-111783526D01*
X156842970Y-111783644D01*
X156875170Y-111783279D01*
X156896210Y-111782453D01*
X156903765Y-111781185D01*
X156903777Y-111779620D01*
X156903812Y-111765372D01*
X156903848Y-111738028D01*
X156903885Y-111699565D01*
X156903920Y-111651958D01*
X156903952Y-111597184D01*
X156903979Y-111537220D01*
X156904071Y-111298007D01*
X156739769Y-111298229D01*
X156692774Y-111298492D01*
X156634073Y-111299837D01*
X156587289Y-111302745D01*
X156550096Y-111307694D01*
X156520167Y-111315160D01*
X156495176Y-111325618D01*
X156472796Y-111339546D01*
X156450702Y-111357419D01*
X156429992Y-111378421D01*
X156402741Y-111421311D01*
X156386871Y-111473023D01*
X156381726Y-111535243D01*
X155808702Y-111535243D01*
X155807491Y-111531289D01*
X155805515Y-111521063D01*
X155799239Y-111466555D01*
X155797802Y-111405627D01*
X155800969Y-111343717D01*
X155808503Y-111286262D01*
X155820171Y-111238698D01*
X155845206Y-111176914D01*
X155885110Y-111110550D01*
X155936275Y-111053373D01*
X155999923Y-111004067D01*
X156077274Y-110961315D01*
X156100157Y-110950776D01*
X156130170Y-110938014D01*
X156160179Y-110926884D01*
X156191402Y-110917271D01*
X156225056Y-110909066D01*
X156262356Y-110902154D01*
X156304521Y-110896424D01*
X156352767Y-110891765D01*
X156408309Y-110888063D01*
X156472367Y-110885207D01*
X156546155Y-110883084D01*
X156630891Y-110881583D01*
X156727791Y-110880591D01*
X156838073Y-110879996D01*
X156962952Y-110879686D01*
X157476962Y-110878891D01*
X157477695Y-111298007D01*
X157478966Y-112024068D01*
G37*
G36*
X161608767Y-111732907D02*
G01*
X161608802Y-111875844D01*
X161608812Y-112033840D01*
X161608807Y-112140128D01*
X161608776Y-112288569D01*
X161608711Y-112422440D01*
X161608603Y-112542492D01*
X161608444Y-112649475D01*
X161608226Y-112744140D01*
X161607941Y-112827237D01*
X161607581Y-112899517D01*
X161607139Y-112961730D01*
X161606605Y-113014628D01*
X161605973Y-113058960D01*
X161605233Y-113095477D01*
X161604379Y-113124929D01*
X161603401Y-113148068D01*
X161602292Y-113165644D01*
X161601044Y-113178407D01*
X161599649Y-113187108D01*
X161598099Y-113192497D01*
X161596385Y-113195325D01*
X161595252Y-113196348D01*
X161589167Y-113199667D01*
X161578873Y-113202286D01*
X161562713Y-113204286D01*
X161539027Y-113205745D01*
X161506158Y-113206741D01*
X161462449Y-113207356D01*
X161406240Y-113207666D01*
X161335875Y-113207752D01*
X161287682Y-113207745D01*
X161228274Y-113207657D01*
X161181817Y-113207373D01*
X161146599Y-113206776D01*
X161120910Y-113205752D01*
X161103037Y-113204185D01*
X161091269Y-113201960D01*
X161083895Y-113198960D01*
X161079202Y-113195071D01*
X161075481Y-113190177D01*
X161073535Y-113186709D01*
X161071058Y-113179072D01*
X161069001Y-113167256D01*
X161067327Y-113149967D01*
X161065999Y-113125912D01*
X161064978Y-113093799D01*
X161064227Y-113052334D01*
X161063708Y-113000226D01*
X161063384Y-112936180D01*
X161063218Y-112858905D01*
X161063170Y-112767107D01*
X161063170Y-112361612D01*
X160918852Y-112361470D01*
X160872820Y-112361213D01*
X160791021Y-112359822D01*
X160708716Y-112357353D01*
X160628623Y-112353949D01*
X160553465Y-112349749D01*
X160485960Y-112344895D01*
X160428828Y-112339528D01*
X160384791Y-112333789D01*
X160336934Y-112324658D01*
X160234394Y-112294437D01*
X160140258Y-112251351D01*
X160055247Y-112195915D01*
X159980084Y-112128645D01*
X159915489Y-112050054D01*
X159862182Y-111960658D01*
X159862024Y-111960341D01*
X159827349Y-111875274D01*
X159803026Y-111781027D01*
X159789297Y-111680572D01*
X159787228Y-111606413D01*
X160351619Y-111606413D01*
X160354719Y-111659324D01*
X160366428Y-111708742D01*
X160388246Y-111751432D01*
X160421629Y-111791242D01*
X160434810Y-111803694D01*
X160475354Y-111833110D01*
X160522404Y-111853879D01*
X160580296Y-111868103D01*
X160583714Y-111868674D01*
X160608928Y-111871647D01*
X160644723Y-111874543D01*
X160688703Y-111877288D01*
X160738470Y-111879807D01*
X160791626Y-111882026D01*
X160845775Y-111883870D01*
X160898518Y-111885265D01*
X160947458Y-111886137D01*
X160990198Y-111886412D01*
X161024339Y-111886014D01*
X161047486Y-111884869D01*
X161057239Y-111882904D01*
X161058351Y-111876904D01*
X161059658Y-111856591D01*
X161060816Y-111823798D01*
X161061787Y-111780388D01*
X161062529Y-111728226D01*
X161063003Y-111669174D01*
X161063170Y-111605095D01*
X161063170Y-111333593D01*
X160887221Y-111333859D01*
X160840497Y-111334051D01*
X160756779Y-111335290D01*
X160686338Y-111337934D01*
X160627490Y-111342307D01*
X160578555Y-111348732D01*
X160537850Y-111357533D01*
X160503693Y-111369032D01*
X160474401Y-111383554D01*
X160448292Y-111401421D01*
X160423684Y-111422957D01*
X160421721Y-111424857D01*
X160388661Y-111462911D01*
X160367020Y-111503150D01*
X160355203Y-111549632D01*
X160351619Y-111606413D01*
X159787228Y-111606413D01*
X159786404Y-111576883D01*
X159794591Y-111472931D01*
X159814099Y-111371690D01*
X159831487Y-111313933D01*
X159871655Y-111221326D01*
X159924030Y-111137696D01*
X159987622Y-111063967D01*
X160061438Y-111001063D01*
X160144488Y-110949910D01*
X160235779Y-110911433D01*
X160334320Y-110886556D01*
X160348162Y-110884332D01*
X160401110Y-110878082D01*
X160469290Y-110872747D01*
X160552282Y-110868339D01*
X160649662Y-110864872D01*
X160761010Y-110862358D01*
X160885905Y-110860811D01*
X161023924Y-110860244D01*
X161174648Y-110860669D01*
X161249992Y-110861155D01*
X161332236Y-110861830D01*
X161400772Y-110862604D01*
X161456781Y-110863515D01*
X161501439Y-110864599D01*
X161535927Y-110865895D01*
X161561422Y-110867438D01*
X161579104Y-110869267D01*
X161590150Y-110871418D01*
X161595740Y-110873929D01*
X161596047Y-110874204D01*
X161597816Y-110876846D01*
X161599414Y-110881690D01*
X161600851Y-110889492D01*
X161602134Y-110901010D01*
X161603273Y-110916998D01*
X161604276Y-110938214D01*
X161605152Y-110965414D01*
X161605908Y-110999354D01*
X161606554Y-111040790D01*
X161607098Y-111090479D01*
X161607549Y-111149177D01*
X161607914Y-111217641D01*
X161608204Y-111296625D01*
X161608425Y-111386888D01*
X161608587Y-111489185D01*
X161608698Y-111604272D01*
X161608698Y-111605095D01*
X161608767Y-111732907D01*
G37*
G36*
X149749706Y-111473957D02*
G01*
X149751532Y-111480027D01*
X149759153Y-111504888D01*
X149770486Y-111541452D01*
X149785061Y-111588231D01*
X149802409Y-111643736D01*
X149822061Y-111706479D01*
X149843548Y-111774971D01*
X149866402Y-111847723D01*
X149890153Y-111923247D01*
X149914332Y-112000054D01*
X149938471Y-112076655D01*
X149962099Y-112151563D01*
X149984749Y-112223288D01*
X150005951Y-112290341D01*
X150025237Y-112351235D01*
X150042136Y-112404480D01*
X150056181Y-112448588D01*
X150066902Y-112482070D01*
X150073830Y-112503438D01*
X150076497Y-112511203D01*
X150083060Y-112510610D01*
X150084962Y-112505929D01*
X150091599Y-112487458D01*
X150102550Y-112456112D01*
X150117402Y-112413097D01*
X150135743Y-112359618D01*
X150157161Y-112296882D01*
X150181242Y-112226096D01*
X150207576Y-112148464D01*
X150235748Y-112065193D01*
X150265348Y-111977489D01*
X150287682Y-111911328D01*
X150316337Y-111826719D01*
X150343305Y-111747402D01*
X150368170Y-111674589D01*
X150390513Y-111609493D01*
X150409916Y-111553327D01*
X150425961Y-111507304D01*
X150438230Y-111472637D01*
X150446306Y-111450539D01*
X150449770Y-111442223D01*
X150456729Y-111441045D01*
X150477962Y-111439887D01*
X150511580Y-111438973D01*
X150555743Y-111438328D01*
X150608612Y-111437979D01*
X150668346Y-111437951D01*
X150733107Y-111438269D01*
X151010421Y-111440348D01*
X150698585Y-112266718D01*
X150688400Y-112293715D01*
X150647370Y-112402634D01*
X150607972Y-112507463D01*
X150570568Y-112607230D01*
X150535519Y-112700961D01*
X150503186Y-112787685D01*
X150473930Y-112866427D01*
X150448110Y-112936216D01*
X150426090Y-112996079D01*
X150408228Y-113045042D01*
X150394887Y-113082134D01*
X150386427Y-113106382D01*
X150383208Y-113116812D01*
X150383004Y-113121391D01*
X150385764Y-113138826D01*
X150393444Y-113166100D01*
X150406427Y-113204362D01*
X150425092Y-113254766D01*
X150449820Y-113318462D01*
X150460827Y-113346366D01*
X150480377Y-113395627D01*
X150495463Y-113432684D01*
X150506985Y-113459248D01*
X150515848Y-113477026D01*
X150522952Y-113487729D01*
X150529200Y-113493065D01*
X150535495Y-113494743D01*
X150542739Y-113494473D01*
X150543809Y-113494382D01*
X150559020Y-113493035D01*
X150587806Y-113490455D01*
X150628299Y-113486809D01*
X150678630Y-113482266D01*
X150736929Y-113476995D01*
X150801328Y-113471164D01*
X150869957Y-113464943D01*
X150912637Y-113461090D01*
X151154990Y-113439979D01*
X151388421Y-113421048D01*
X151616463Y-113404068D01*
X151842649Y-113388811D01*
X152070510Y-113375050D01*
X152303580Y-113362557D01*
X152545389Y-113351103D01*
X152799472Y-113340462D01*
X152820193Y-113339708D01*
X152882383Y-113337947D01*
X152958170Y-113336368D01*
X153046081Y-113334970D01*
X153144648Y-113333753D01*
X153252399Y-113332717D01*
X153367864Y-113331862D01*
X153489572Y-113331187D01*
X153616053Y-113330693D01*
X153745836Y-113330380D01*
X153877450Y-113330246D01*
X154009426Y-113330293D01*
X154140292Y-113330520D01*
X154268579Y-113330927D01*
X154392815Y-113331514D01*
X154511530Y-113332281D01*
X154623253Y-113333227D01*
X154726515Y-113334352D01*
X154819844Y-113335657D01*
X154901770Y-113337141D01*
X154970822Y-113338804D01*
X155025530Y-113340647D01*
X155815291Y-113379909D01*
X156643948Y-113435760D01*
X157471633Y-113506508D01*
X158297356Y-113592041D01*
X159120127Y-113692248D01*
X159938955Y-113807016D01*
X160752852Y-113936233D01*
X161560827Y-114079788D01*
X161659137Y-114098198D01*
X161689109Y-114244086D01*
X161698562Y-114289935D01*
X161707503Y-114332972D01*
X161715046Y-114368947D01*
X161720602Y-114395049D01*
X161723581Y-114408468D01*
X161725374Y-114418509D01*
X161721334Y-114424215D01*
X161706009Y-114422325D01*
X161701620Y-114421418D01*
X161676790Y-114416480D01*
X161638751Y-114409088D01*
X161589325Y-114399586D01*
X161530334Y-114388321D01*
X161463600Y-114375635D01*
X161390944Y-114361875D01*
X161314189Y-114347383D01*
X161235157Y-114332506D01*
X161155669Y-114317588D01*
X161077547Y-114302974D01*
X161002614Y-114289007D01*
X160932691Y-114276033D01*
X160724396Y-114237816D01*
X160195115Y-114143759D01*
X159678238Y-114056448D01*
X159172468Y-113975727D01*
X158676507Y-113901440D01*
X158189059Y-113833432D01*
X157708827Y-113771548D01*
X157234516Y-113715630D01*
X156764827Y-113665525D01*
X156298465Y-113621075D01*
X155834133Y-113582126D01*
X155370534Y-113548522D01*
X154906372Y-113520108D01*
X154440350Y-113496727D01*
X154139744Y-113484453D01*
X153817033Y-113474177D01*
X153505852Y-113467530D01*
X153204159Y-113464531D01*
X152909911Y-113465199D01*
X152621065Y-113469553D01*
X152335580Y-113477612D01*
X152051412Y-113489394D01*
X151766520Y-113504919D01*
X151478861Y-113524206D01*
X151478131Y-113524260D01*
X151398758Y-113530162D01*
X151315697Y-113536520D01*
X151230445Y-113543205D01*
X151144500Y-113550088D01*
X151059356Y-113557042D01*
X150976512Y-113563939D01*
X150897464Y-113570649D01*
X150823709Y-113577044D01*
X150756742Y-113582996D01*
X150698062Y-113588377D01*
X150649164Y-113593059D01*
X150611545Y-113596912D01*
X150586702Y-113599810D01*
X150576131Y-113601622D01*
X150574402Y-113602460D01*
X150570414Y-113607152D01*
X150570196Y-113616433D01*
X150574319Y-113632809D01*
X150583356Y-113658785D01*
X150597877Y-113696865D01*
X150598205Y-113697710D01*
X150611621Y-113732858D01*
X150622594Y-113762679D01*
X150630003Y-113784048D01*
X150632722Y-113793835D01*
X150629031Y-113795077D01*
X150611224Y-113796620D01*
X150579884Y-113797837D01*
X150536362Y-113798703D01*
X150482006Y-113799196D01*
X150418167Y-113799290D01*
X150346193Y-113798962D01*
X150059663Y-113796886D01*
X150032390Y-113723008D01*
X150005116Y-113649130D01*
X149965043Y-113653872D01*
X149961342Y-113654293D01*
X149935939Y-113656849D01*
X149897401Y-113660404D01*
X149847877Y-113664780D01*
X149789517Y-113669800D01*
X149724468Y-113675290D01*
X149654880Y-113681072D01*
X149582902Y-113686970D01*
X149510682Y-113692808D01*
X149440370Y-113698409D01*
X149374114Y-113703597D01*
X149314063Y-113708196D01*
X149262366Y-113712029D01*
X149221172Y-113714920D01*
X149078830Y-113724461D01*
X149045522Y-113701365D01*
X149031924Y-113691550D01*
X149015761Y-113677224D01*
X149013321Y-113669022D01*
X149024277Y-113666407D01*
X149029907Y-113665979D01*
X149050106Y-113663893D01*
X149082754Y-113660270D01*
X149125912Y-113655333D01*
X149177644Y-113649304D01*
X149236010Y-113642406D01*
X149299075Y-113634861D01*
X149307481Y-113633850D01*
X149383519Y-113624745D01*
X149465057Y-113615045D01*
X149547854Y-113605250D01*
X149627671Y-113595861D01*
X149700268Y-113587379D01*
X149761403Y-113580302D01*
X149808156Y-113574846D01*
X149858162Y-113568811D01*
X149900976Y-113563427D01*
X149934467Y-113558969D01*
X149956502Y-113555714D01*
X149964951Y-113553937D01*
X149964474Y-113552202D01*
X149959601Y-113538092D01*
X149949788Y-113510646D01*
X149935408Y-113470881D01*
X149916838Y-113419815D01*
X149894453Y-113358467D01*
X149868628Y-113287853D01*
X149839738Y-113208991D01*
X149808158Y-113122900D01*
X149774263Y-113030598D01*
X149738429Y-112933101D01*
X149701031Y-112831427D01*
X149662444Y-112726596D01*
X149623043Y-112619623D01*
X149583203Y-112511528D01*
X149543299Y-112403327D01*
X149503708Y-112296039D01*
X149464803Y-112190681D01*
X149426960Y-112088271D01*
X149390554Y-111989827D01*
X149355961Y-111896367D01*
X149323555Y-111808909D01*
X149293712Y-111728469D01*
X149266807Y-111656067D01*
X149243215Y-111592720D01*
X149223311Y-111539445D01*
X149207471Y-111497260D01*
X149196069Y-111467184D01*
X149189480Y-111450233D01*
X149188780Y-111447798D01*
X149189746Y-111444591D01*
X149194541Y-111442047D01*
X149204666Y-111440090D01*
X149221617Y-111438643D01*
X149246893Y-111437630D01*
X149281992Y-111436975D01*
X149328412Y-111436602D01*
X149387652Y-111436434D01*
X149461208Y-111436395D01*
X149738523Y-111436395D01*
X149749706Y-111473957D01*
G37*
%TD*%
M02*
