%TF.GenerationSoftware,KiCad,Pcbnew,10.0.3*%
%TF.CreationDate,2026-07-29T20:20:22+08:00*%
%TF.ProjectId,skilleye_2.0,736b696c-6c65-4796-955f-322e302e6b69,rev?*%
%TF.SameCoordinates,Original*%
%TF.FileFunction,Copper,L1,Top*%
%TF.FilePolarity,Positive*%
%FSLAX46Y46*%
G04 Gerber Fmt 4.6, Leading zero omitted, Abs format (unit mm)*
G04 Created by KiCad (PCBNEW 10.0.3) date 2026-07-29 20:20:22*
%MOMM*%
%LPD*%
G01*
G04 APERTURE LIST*
G04 Aperture macros list*
%AMRoundRect*
0 Rectangle with rounded corners*
0 $1 Rounding radius*
0 $2 $3 $4 $5 $6 $7 $8 $9 X,Y pos of 4 corners*
0 Add a 4 corners polygon primitive as box body*
4,1,4,$2,$3,$4,$5,$6,$7,$8,$9,$2,$3,0*
0 Add four circle primitives for the rounded corners*
1,1,$1+$1,$2,$3*
1,1,$1+$1,$4,$5*
1,1,$1+$1,$6,$7*
1,1,$1+$1,$8,$9*
0 Add four rect primitives between the rounded corners*
20,1,$1+$1,$2,$3,$4,$5,0*
20,1,$1+$1,$4,$5,$6,$7,0*
20,1,$1+$1,$6,$7,$8,$9,0*
20,1,$1+$1,$8,$9,$2,$3,0*%
G04 Aperture macros list end*
%TA.AperFunction,SMDPad,CuDef*%
%ADD10RoundRect,0.500000X0.500000X-0.875000X0.500000X0.875000X-0.500000X0.875000X-0.500000X-0.875000X0*%
%TD*%
%TA.AperFunction,SMDPad,CuDef*%
%ADD11C,1.700000*%
%TD*%
%TA.AperFunction,SMDPad,CuDef*%
%ADD12RoundRect,0.275000X-0.975000X-0.275000X0.975000X-0.275000X0.975000X0.275000X-0.975000X0.275000X0*%
%TD*%
%TA.AperFunction,ComponentPad*%
%ADD13O,3.500000X2.200000*%
%TD*%
%TA.AperFunction,ComponentPad*%
%ADD14R,2.500000X1.500000*%
%TD*%
%TA.AperFunction,ComponentPad*%
%ADD15O,2.500000X1.500000*%
%TD*%
%TA.AperFunction,ViaPad*%
%ADD16C,0.800000*%
%TD*%
%TA.AperFunction,ViaPad*%
%ADD17C,0.600000*%
%TD*%
%TA.AperFunction,Conductor*%
%ADD18C,0.500000*%
%TD*%
%TA.AperFunction,Conductor*%
%ADD19C,0.200000*%
%TD*%
%TA.AperFunction,Conductor*%
%ADD20C,0.600000*%
%TD*%
G04 APERTURE END LIST*
D10*
%TO.P,U1,1,D0_1*%
%TO.N,/IMU_INT*%
X118310250Y-107246972D03*
%TO.P,U1,2,D1_2*%
%TO.N,unconnected-(U1-D1-Pad2)*%
X120850250Y-107246972D03*
%TO.P,U1,3,D2_3*%
%TO.N,unconnected-(U1-D2-Pad3)*%
X123390250Y-107246972D03*
%TO.P,U1,4,D3_4*%
%TO.N,unconnected-(U1-D3-Pad4)*%
X125930250Y-107246972D03*
%TO.P,U1,5,D4_5*%
%TO.N,/SDA*%
X128470250Y-107246972D03*
%TO.P,U1,6,D5_6*%
%TO.N,/SCL*%
X131010250Y-107246972D03*
%TO.P,U1,7,D6_7*%
%TO.N,unconnected-(U1-D6-Pad7)*%
X133550250Y-107246972D03*
%TO.P,U1,8,D7_8*%
%TO.N,unconnected-(U1-D7-Pad8)*%
X133550250Y-91081972D03*
%TO.P,U1,9,D8_9*%
%TO.N,unconnected-(U1-D8-Pad9)*%
X131010250Y-91081972D03*
%TO.P,U1,10,D9_10*%
%TO.N,unconnected-(U1-D9-Pad10)*%
X128470250Y-91081972D03*
%TO.P,U1,11,D10_11*%
%TO.N,unconnected-(U1-D10-Pad11)*%
X125930250Y-91081972D03*
%TO.P,U1,12,3V3_OUT_12*%
%TO.N,+3V3*%
X123390250Y-91081972D03*
%TO.P,U1,13,GND_13*%
%TO.N,GND*%
X120850250Y-91081972D03*
%TO.P,U1,14,VBUS_14*%
%TO.N,unconnected-(U1-VBUS-Pad14)*%
X118310250Y-91081972D03*
D11*
%TO.P,U1,15,MTDI_15*%
%TO.N,unconnected-(U1-MTDI-Pad15)*%
X117288750Y-100465372D03*
%TO.P,U1,16,MTDO_16*%
%TO.N,unconnected-(U1-MTDO-Pad16)*%
X117288750Y-97925372D03*
%TO.P,U1,17,EN_17*%
%TO.N,unconnected-(U1-EN-Pad17)*%
X119828750Y-100465372D03*
%TO.P,U1,18,GND_18*%
%TO.N,GND*%
X119828750Y-97925372D03*
%TO.P,U1,19,MTMS_19*%
%TO.N,unconnected-(U1-MTMS-Pad19)*%
X122368750Y-100465372D03*
%TO.P,U1,20,MTCK_20*%
%TO.N,unconnected-(U1-MTCK-Pad20)*%
X122368750Y-97925372D03*
%TO.P,U1,21,BOOT_21*%
%TO.N,unconnected-(U1-BOOT-Pad21)*%
X124908750Y-100465372D03*
%TO.P,U1,22,3V3_OUT_22*%
%TO.N,+3V3*%
X124851950Y-98017972D03*
D12*
%TO.P,U1,23,VBAT_23*%
%TO.N,/VBAT_SW*%
X131461950Y-100973372D03*
%TO.P,U1,24,GND_24*%
%TO.N,GND*%
X131461950Y-98433372D03*
%TD*%
D13*
%TO.P,SW1,*%
%TO.N,*%
X144000000Y-103351472D03*
X144000000Y-95151472D03*
D14*
%TO.P,SW1,1,A_1*%
%TO.N,/VBAT_SW*%
X144000000Y-101251472D03*
D15*
%TO.P,SW1,2,B_2*%
%TO.N,/VBAT_RAW*%
X144000000Y-99251472D03*
%TO.P,SW1,3,C_3*%
%TO.N,unconnected-(SW1-C-Pad3)*%
X144000000Y-97251472D03*
%TD*%
D16*
%TO.N,+3V3*%
X133000000Y-104751472D03*
D17*
%TO.N,/IMU_INT*%
X121925000Y-104075000D03*
%TO.N,/SDA*%
X150900000Y-100501472D03*
%TO.N,/SCL*%
X148102221Y-103055442D03*
%TO.N,GND*%
X139200000Y-89401472D03*
D16*
X120850250Y-88451222D03*
D17*
X151800000Y-105601472D03*
D16*
%TO.N,/VBAT_SW*%
X137125000Y-101126472D03*
%TO.N,/VBAT_RAW*%
X141100000Y-106401472D03*
%TD*%
%TO.N,+3V3*%
D18*
X131848528Y-103600000D02*
X133000000Y-104751472D01*
X129700000Y-103600000D02*
X131848528Y-103600000D01*
X128000000Y-101900000D02*
X129700000Y-103600000D01*
X126717972Y-98017972D02*
X128000000Y-99300000D01*
X124851950Y-98017972D02*
X126717972Y-98017972D01*
X128000000Y-99300000D02*
X128000000Y-101900000D01*
%TO.N,/IMU_INT*%
D19*
X121500000Y-104500000D02*
X120000000Y-104500000D01*
X121925000Y-104075000D02*
X121500000Y-104500000D01*
X120000000Y-104500000D02*
X119501472Y-104998528D01*
X119501472Y-104998528D02*
X119501472Y-105000000D01*
X119501472Y-105000000D02*
X118310250Y-106191222D01*
X118310250Y-106191222D02*
X118310250Y-107246972D01*
%TO.N,/SDA*%
X150900000Y-100501472D02*
X151000000Y-100601472D01*
X150900000Y-100501472D02*
X150900000Y-101200000D01*
X150749264Y-101350736D02*
X142448529Y-109651472D01*
X129499750Y-109651472D02*
X128470250Y-108621972D01*
X128470250Y-108621972D02*
X128470250Y-107246972D01*
X142448529Y-109651472D02*
X129499750Y-109651472D01*
X150900000Y-101200000D02*
X150749264Y-101350736D01*
%TO.N,/SCL*%
X131010250Y-108621972D02*
X131010250Y-107246972D01*
X141900000Y-109251472D02*
X131639750Y-109251472D01*
X131639750Y-109251472D02*
X131010250Y-108621972D01*
X148096030Y-103055442D02*
X141900000Y-109251472D01*
X148102221Y-103055442D02*
X148096030Y-103055442D01*
%TO.N,+3V3*%
D18*
X123390250Y-91081972D02*
X123390250Y-96556272D01*
X123390250Y-96556272D02*
X124851950Y-98017972D01*
%TO.N,GND*%
X120850000Y-93251472D02*
X120850250Y-93251222D01*
X120850250Y-91081972D02*
X120850250Y-93251222D01*
X120850250Y-88451222D02*
X120850250Y-91081972D01*
%TO.N,/VBAT_SW*%
D20*
X136971900Y-100973372D02*
X131461950Y-100973372D01*
X137125000Y-101126472D02*
X136971900Y-100973372D01*
%TO.N,/VBAT_RAW*%
X141100000Y-106401472D02*
X141300000Y-106201472D01*
X142250000Y-99251472D02*
X144000000Y-99251472D01*
X141300000Y-100201472D02*
X142250000Y-99251472D01*
X141300000Y-106201472D02*
X141300000Y-100201472D01*
%TD*%
%TA.AperFunction,Conductor*%
%TO.N,GND*%
G36*
X164703632Y-62166092D02*
G01*
X164922660Y-62196904D01*
X164939662Y-62200528D01*
X165156394Y-62262916D01*
X165164649Y-62265609D01*
X165205289Y-62280470D01*
X165205292Y-62280470D01*
X165521238Y-62395989D01*
X165521265Y-62396002D01*
X165531699Y-62399816D01*
X165531701Y-62399818D01*
X165572484Y-62414727D01*
X165580239Y-62417865D01*
X165779079Y-62506249D01*
X165793919Y-62514089D01*
X165975408Y-62626323D01*
X165989050Y-62636095D01*
X166153710Y-62771833D01*
X166165911Y-62783366D01*
X166310704Y-62940102D01*
X166321237Y-62953180D01*
X166443515Y-63128047D01*
X166452187Y-63142434D01*
X166549705Y-63332216D01*
X166556352Y-63347642D01*
X166627327Y-63548866D01*
X166631829Y-63565050D01*
X166674955Y-63774022D01*
X166677228Y-63790666D01*
X166692000Y-64007752D01*
X166692286Y-64016146D01*
X166692289Y-64037174D01*
X166692293Y-64059542D01*
X166692293Y-64059544D01*
X166692295Y-64067154D01*
X166692296Y-64067155D01*
X166706702Y-134485292D01*
X166706701Y-134485316D01*
X166706713Y-134536299D01*
X166706430Y-134544701D01*
X166691732Y-134761867D01*
X166689464Y-134778516D01*
X166646393Y-134987571D01*
X166641895Y-135003762D01*
X166570954Y-135205075D01*
X166564309Y-135220507D01*
X166466804Y-135410379D01*
X166458132Y-135424773D01*
X166335849Y-135599721D01*
X166325311Y-135612810D01*
X166180497Y-135769620D01*
X166168288Y-135781163D01*
X166068178Y-135863710D01*
X166003606Y-135916952D01*
X165989951Y-135926737D01*
X165808415Y-136039020D01*
X165793559Y-136046870D01*
X165594666Y-136135287D01*
X165586873Y-136138440D01*
X165542828Y-136154543D01*
X165542827Y-136154542D01*
X165542813Y-136154548D01*
X165180487Y-136287027D01*
X165172196Y-136289732D01*
X164955309Y-136352143D01*
X164938271Y-136355773D01*
X164719117Y-136386565D01*
X164701739Y-136387771D01*
X164480432Y-136387548D01*
X164463057Y-136386307D01*
X164243962Y-136355074D01*
X164226932Y-136351410D01*
X164014379Y-136289783D01*
X163998031Y-136283769D01*
X163796216Y-136192967D01*
X163780871Y-136184722D01*
X163590061Y-136064191D01*
X163582857Y-136059277D01*
X163436965Y-135952069D01*
X163436962Y-135952067D01*
X163427019Y-135944760D01*
X163427017Y-135944756D01*
X163401794Y-135926222D01*
X163401792Y-135926220D01*
X163396735Y-135922030D01*
X163375880Y-135907165D01*
X163374481Y-135906152D01*
X163356795Y-135893156D01*
X163356794Y-135893155D01*
X163353956Y-135891070D01*
X163348423Y-135887592D01*
X163314988Y-135863756D01*
X163314912Y-135863710D01*
X161650403Y-134677307D01*
X161650401Y-134677305D01*
X161639983Y-134669879D01*
X161639982Y-134669877D01*
X161616268Y-134652975D01*
X161616267Y-134652974D01*
X161611306Y-134648979D01*
X161589232Y-134633692D01*
X161587861Y-134632729D01*
X161578841Y-134626300D01*
X161569014Y-134619296D01*
X161569012Y-134619295D01*
X161566029Y-134617169D01*
X161560595Y-134613858D01*
X159479451Y-133172555D01*
X159472256Y-133167572D01*
X159471410Y-133166600D01*
X159450874Y-133152764D01*
X159450230Y-133152318D01*
X159450229Y-133152316D01*
X159427352Y-133136473D01*
X159421984Y-133133299D01*
X157162878Y-131611270D01*
X157162876Y-131611269D01*
X157155063Y-131606005D01*
X157155056Y-131605996D01*
X157132958Y-131591110D01*
X157132956Y-131591108D01*
X157128132Y-131587424D01*
X157104421Y-131571875D01*
X157103138Y-131571022D01*
X157079570Y-131555144D01*
X157074261Y-131552095D01*
X157043297Y-131531786D01*
X157043262Y-131531767D01*
X156479874Y-131162296D01*
X154677660Y-129980400D01*
X154672624Y-129977097D01*
X154672618Y-129977089D01*
X154654620Y-129965288D01*
X154650753Y-129962752D01*
X154650750Y-129962748D01*
X154645927Y-129959159D01*
X154621656Y-129943661D01*
X154620394Y-129942844D01*
X154619850Y-129942487D01*
X154599751Y-129929307D01*
X154599749Y-129929306D01*
X154596467Y-129927154D01*
X154591195Y-129924212D01*
X154569145Y-129910132D01*
X154569136Y-129910129D01*
X154562682Y-129906008D01*
X152078038Y-128319635D01*
X152073148Y-128316087D01*
X152048626Y-128300846D01*
X152048625Y-128300845D01*
X152047951Y-128300426D01*
X152026422Y-128286680D01*
X152025228Y-128286302D01*
X152017800Y-128281685D01*
X152017788Y-128281679D01*
X149473087Y-126700015D01*
X149473042Y-126699986D01*
X149445075Y-126682604D01*
X149440164Y-126679132D01*
X149436772Y-126677080D01*
X149415500Y-126664212D01*
X149414274Y-126663460D01*
X149389675Y-126648170D01*
X149384335Y-126645359D01*
X149362205Y-126631971D01*
X149362202Y-126631970D01*
X149356297Y-126628398D01*
X149356290Y-126628394D01*
X146773459Y-125065994D01*
X146768498Y-125062575D01*
X146765083Y-125060565D01*
X146743580Y-125047911D01*
X146742416Y-125047216D01*
X146721084Y-125034312D01*
X146721081Y-125034311D01*
X146717715Y-125032275D01*
X146712340Y-125029526D01*
X144108432Y-123497179D01*
X144108426Y-123497176D01*
X144101637Y-123493180D01*
X144101633Y-123493176D01*
X144086982Y-123484555D01*
X144079112Y-123479923D01*
X144079109Y-123479920D01*
X144074111Y-123476565D01*
X144049160Y-123462288D01*
X144047859Y-123461533D01*
X144023134Y-123446984D01*
X144017729Y-123444304D01*
X143995051Y-123431327D01*
X143995043Y-123431325D01*
X143987638Y-123427088D01*
X143987638Y-123427087D01*
X143987636Y-123427087D01*
X141397175Y-121944899D01*
X141397174Y-121944898D01*
X141392516Y-121942232D01*
X141374273Y-121931794D01*
X141369169Y-121928459D01*
X141344230Y-121914594D01*
X141344229Y-121914593D01*
X141343527Y-121914203D01*
X141321526Y-121901615D01*
X141320305Y-121901292D01*
X141289600Y-121884222D01*
X141282486Y-121880267D01*
X141282477Y-121880263D01*
X139591688Y-120940284D01*
X146967165Y-120940284D01*
X146970926Y-121100281D01*
X147006286Y-121256356D01*
X147006289Y-121256365D01*
X147071847Y-121402349D01*
X147071848Y-121402352D01*
X147165017Y-121532478D01*
X147282093Y-121641574D01*
X147282103Y-121641582D01*
X147309279Y-121658329D01*
X147310139Y-121658940D01*
X162621140Y-131064270D01*
X162621936Y-131064688D01*
X162653650Y-131084116D01*
X162653653Y-131084117D01*
X162653655Y-131084118D01*
X162692222Y-131097708D01*
X162814427Y-131140771D01*
X162814431Y-131140771D01*
X162814433Y-131140772D01*
X162881037Y-131149249D01*
X162983530Y-131162296D01*
X162983530Y-131162295D01*
X162983531Y-131162296D01*
X162999470Y-131160928D01*
X163153373Y-131147724D01*
X163316338Y-131097710D01*
X163465115Y-131014496D01*
X163593030Y-130901816D01*
X163694345Y-130764724D01*
X163764516Y-130609369D01*
X163764516Y-130609367D01*
X163764518Y-130609364D01*
X163787500Y-130502615D01*
X163800395Y-130442721D01*
X163800439Y-130405699D01*
X163800500Y-130404822D01*
X163800500Y-120922626D01*
X163769738Y-120767980D01*
X163769737Y-120767979D01*
X163769737Y-120767975D01*
X163709393Y-120622293D01*
X163709391Y-120622290D01*
X163709389Y-120622286D01*
X163621788Y-120491183D01*
X163621785Y-120491179D01*
X163510292Y-120379686D01*
X163510288Y-120379683D01*
X163379185Y-120292082D01*
X163379175Y-120292077D01*
X163233497Y-120231735D01*
X163233491Y-120231733D01*
X163078845Y-120200972D01*
X163078843Y-120200972D01*
X163039562Y-120200972D01*
X147729651Y-120200972D01*
X147722350Y-120200972D01*
X147721295Y-120201040D01*
X147689201Y-120201087D01*
X147689195Y-120201088D01*
X147532336Y-120232766D01*
X147532333Y-120232766D01*
X147532328Y-120232768D01*
X147391486Y-120292077D01*
X147384834Y-120294878D01*
X147384832Y-120294879D01*
X147252555Y-120384959D01*
X147252552Y-120384961D01*
X147140731Y-120499441D01*
X147053779Y-120633800D01*
X146995151Y-120782715D01*
X146967165Y-120940284D01*
X139591688Y-120940284D01*
X138668425Y-120427004D01*
X138660763Y-120422744D01*
X138659837Y-120421869D01*
X138637608Y-120409870D01*
X138636913Y-120409484D01*
X138636912Y-120409483D01*
X138612198Y-120395744D01*
X138606651Y-120393161D01*
X136002125Y-118987371D01*
X136002120Y-118987368D01*
X135992870Y-118982374D01*
X135992862Y-118982366D01*
X135969060Y-118969522D01*
X135969057Y-118969519D01*
X135963842Y-118966292D01*
X135938939Y-118953254D01*
X135937561Y-118952521D01*
X135912786Y-118939150D01*
X135907199Y-118936633D01*
X135897883Y-118931753D01*
X135875449Y-118920004D01*
X135875360Y-118919966D01*
X134323564Y-118107505D01*
X133274504Y-117558257D01*
X133273544Y-117557396D01*
X133251418Y-117546170D01*
X133250670Y-117545778D01*
X133250669Y-117545777D01*
X133226044Y-117532886D01*
X133220353Y-117530408D01*
X130612903Y-116207517D01*
X130612903Y-116207516D01*
X130605094Y-116203554D01*
X130604120Y-116202703D01*
X130582102Y-116191890D01*
X130581401Y-116191534D01*
X130581400Y-116191534D01*
X130556785Y-116179045D01*
X130550998Y-116176615D01*
X130549511Y-116175885D01*
X130549498Y-116175873D01*
X130549497Y-116175878D01*
X127964989Y-114906645D01*
X127964987Y-114906644D01*
X127957120Y-114902780D01*
X127956125Y-114901933D01*
X127934168Y-114891508D01*
X127933432Y-114891147D01*
X127933430Y-114891146D01*
X127908977Y-114879138D01*
X127903130Y-114876772D01*
X125376198Y-113677069D01*
X125376197Y-113677068D01*
X125367929Y-113673142D01*
X125367921Y-113673135D01*
X125341728Y-113660702D01*
X125341726Y-113660701D01*
X125341719Y-113660698D01*
X125341717Y-113660696D01*
X125336164Y-113657649D01*
X125332813Y-113656113D01*
X125311655Y-113646415D01*
X125310219Y-113645745D01*
X125285866Y-113634183D01*
X125279955Y-113631882D01*
X125245550Y-113616107D01*
X125245452Y-113616070D01*
X122772732Y-112482687D01*
X122772731Y-112482687D01*
X122772729Y-112482686D01*
X122737878Y-112466712D01*
X122736845Y-112465880D01*
X122715083Y-112456264D01*
X122714265Y-112455889D01*
X122690198Y-112444858D01*
X122684183Y-112442611D01*
X122650020Y-112427515D01*
X122650000Y-112427508D01*
X121393373Y-111872279D01*
X120171453Y-111332385D01*
X120170399Y-111331561D01*
X120148862Y-111322402D01*
X120148134Y-111322081D01*
X120148066Y-111322052D01*
X120127354Y-111312901D01*
X120127352Y-111312900D01*
X120124073Y-111311452D01*
X120117977Y-111309270D01*
X118121159Y-110460205D01*
X117644378Y-110257473D01*
X117636325Y-110254049D01*
X117635249Y-110253232D01*
X117613781Y-110244463D01*
X117612952Y-110244110D01*
X117612951Y-110244109D01*
X117589305Y-110234056D01*
X117583121Y-110231940D01*
X116401446Y-109749288D01*
X116401444Y-109749287D01*
X116371995Y-109737259D01*
X116361155Y-109732831D01*
X116353724Y-109729507D01*
X116164045Y-109637064D01*
X116149904Y-109628981D01*
X115977400Y-109514740D01*
X115964439Y-109504874D01*
X115808380Y-109368993D01*
X115796826Y-109357514D01*
X115659940Y-109202371D01*
X115649993Y-109189482D01*
X115534608Y-109017715D01*
X115526434Y-109003629D01*
X115505642Y-108961670D01*
X115434559Y-108818222D01*
X115428306Y-108803196D01*
X115361523Y-108607342D01*
X115357299Y-108591651D01*
X115316758Y-108388711D01*
X115314626Y-108372578D01*
X115300768Y-108162039D01*
X115300500Y-108153895D01*
X115300500Y-97819085D01*
X115938250Y-97819085D01*
X115938250Y-98031658D01*
X115966201Y-98208138D01*
X115971504Y-98241615D01*
X116034932Y-98436826D01*
X116037194Y-98443786D01*
X116133701Y-98633192D01*
X116258640Y-98805158D01*
X116408963Y-98955481D01*
X116580932Y-99080422D01*
X116589696Y-99084888D01*
X116640492Y-99132863D01*
X116657286Y-99200684D01*
X116634748Y-99266819D01*
X116589696Y-99305856D01*
X116580932Y-99310321D01*
X116408963Y-99435262D01*
X116258640Y-99585585D01*
X116133701Y-99757551D01*
X116037194Y-99946957D01*
X115971503Y-100149132D01*
X115952679Y-100267982D01*
X115938250Y-100359085D01*
X115938250Y-100571659D01*
X115948284Y-100635016D01*
X115964116Y-100734973D01*
X115971504Y-100781615D01*
X116003686Y-100880662D01*
X116037194Y-100983786D01*
X116133701Y-101173192D01*
X116258640Y-101345158D01*
X116408963Y-101495481D01*
X116580929Y-101620420D01*
X116580931Y-101620421D01*
X116580934Y-101620423D01*
X116770338Y-101716929D01*
X116972507Y-101782618D01*
X117182463Y-101815872D01*
X117182464Y-101815872D01*
X117395036Y-101815872D01*
X117395037Y-101815872D01*
X117604993Y-101782618D01*
X117807162Y-101716929D01*
X117996566Y-101620423D01*
X118039635Y-101589132D01*
X118168536Y-101495481D01*
X118168538Y-101495478D01*
X118168542Y-101495476D01*
X118318854Y-101345164D01*
X118318856Y-101345160D01*
X118318859Y-101345158D01*
X118443798Y-101173192D01*
X118443797Y-101173192D01*
X118443801Y-101173188D01*
X118448264Y-101164426D01*
X118496238Y-101113631D01*
X118564058Y-101096835D01*
X118630194Y-101119371D01*
X118669236Y-101164428D01*
X118673701Y-101173192D01*
X118798640Y-101345158D01*
X118948963Y-101495481D01*
X119120929Y-101620420D01*
X119120931Y-101620421D01*
X119120934Y-101620423D01*
X119310338Y-101716929D01*
X119512507Y-101782618D01*
X119722463Y-101815872D01*
X119722464Y-101815872D01*
X119935036Y-101815872D01*
X119935037Y-101815872D01*
X120144993Y-101782618D01*
X120347162Y-101716929D01*
X120536566Y-101620423D01*
X120579635Y-101589132D01*
X120708536Y-101495481D01*
X120708538Y-101495478D01*
X120708542Y-101495476D01*
X120858854Y-101345164D01*
X120858856Y-101345160D01*
X120858859Y-101345158D01*
X120983798Y-101173192D01*
X120983797Y-101173192D01*
X120983801Y-101173188D01*
X120988264Y-101164426D01*
X121036238Y-101113631D01*
X121104058Y-101096835D01*
X121170194Y-101119371D01*
X121209236Y-101164428D01*
X121213701Y-101173192D01*
X121338640Y-101345158D01*
X121488963Y-101495481D01*
X121660929Y-101620420D01*
X121660931Y-101620421D01*
X121660934Y-101620423D01*
X121850338Y-101716929D01*
X122052507Y-101782618D01*
X122262463Y-101815872D01*
X122262464Y-101815872D01*
X122475036Y-101815872D01*
X122475037Y-101815872D01*
X122684993Y-101782618D01*
X122887162Y-101716929D01*
X123076566Y-101620423D01*
X123119635Y-101589132D01*
X123248536Y-101495481D01*
X123248538Y-101495478D01*
X123248542Y-101495476D01*
X123398854Y-101345164D01*
X123398856Y-101345160D01*
X123398859Y-101345158D01*
X123523798Y-101173192D01*
X123523797Y-101173192D01*
X123523801Y-101173188D01*
X123528264Y-101164426D01*
X123576238Y-101113631D01*
X123644058Y-101096835D01*
X123710194Y-101119371D01*
X123749236Y-101164428D01*
X123753701Y-101173192D01*
X123878640Y-101345158D01*
X124028963Y-101495481D01*
X124200929Y-101620420D01*
X124200931Y-101620421D01*
X124200934Y-101620423D01*
X124390338Y-101716929D01*
X124592507Y-101782618D01*
X124802463Y-101815872D01*
X124802464Y-101815872D01*
X125015036Y-101815872D01*
X125015037Y-101815872D01*
X125224993Y-101782618D01*
X125427162Y-101716929D01*
X125616566Y-101620423D01*
X125659635Y-101589132D01*
X125788536Y-101495481D01*
X125788538Y-101495478D01*
X125788542Y-101495476D01*
X125938854Y-101345164D01*
X125938856Y-101345160D01*
X125938859Y-101345158D01*
X126063798Y-101173192D01*
X126063797Y-101173192D01*
X126063801Y-101173188D01*
X126160307Y-100983784D01*
X126225996Y-100781615D01*
X126259250Y-100571659D01*
X126259250Y-100359085D01*
X126225996Y-100149129D01*
X126160307Y-99946960D01*
X126063801Y-99757556D01*
X126063799Y-99757553D01*
X126063798Y-99757551D01*
X125938859Y-99585585D01*
X125788542Y-99435268D01*
X125694022Y-99366596D01*
X125631753Y-99321355D01*
X125589089Y-99266027D01*
X125583110Y-99196414D01*
X125615715Y-99134618D01*
X125631751Y-99120722D01*
X125731742Y-99048076D01*
X125882054Y-98897764D01*
X125937401Y-98821585D01*
X125938853Y-98819587D01*
X125994183Y-98776921D01*
X126039171Y-98768472D01*
X126355742Y-98768472D01*
X126422781Y-98788157D01*
X126443423Y-98804791D01*
X127213181Y-99574548D01*
X127246666Y-99635871D01*
X127249500Y-99662229D01*
X127249500Y-101973918D01*
X127249500Y-101973920D01*
X127249499Y-101973920D01*
X127278340Y-102118907D01*
X127278343Y-102118917D01*
X127334913Y-102255490D01*
X127334914Y-102255491D01*
X127334916Y-102255495D01*
X127355101Y-102285703D01*
X127355102Y-102285705D01*
X127417049Y-102378417D01*
X129221586Y-104182954D01*
X129251058Y-104202645D01*
X129295270Y-104232186D01*
X129344505Y-104265084D01*
X129344506Y-104265084D01*
X129344507Y-104265085D01*
X129344509Y-104265086D01*
X129449294Y-104308489D01*
X129481087Y-104321658D01*
X129481091Y-104321658D01*
X129481092Y-104321659D01*
X129626079Y-104350500D01*
X129626082Y-104350500D01*
X129626083Y-104350500D01*
X129773917Y-104350500D01*
X131486298Y-104350500D01*
X131553337Y-104370185D01*
X131573979Y-104386819D01*
X132090823Y-104903663D01*
X132124308Y-104964986D01*
X132124759Y-104967152D01*
X132134104Y-105014132D01*
X132134106Y-105014138D01*
X132201983Y-105178012D01*
X132201990Y-105178025D01*
X132300535Y-105325506D01*
X132300538Y-105325510D01*
X132405554Y-105430526D01*
X132412887Y-105443957D01*
X132424148Y-105454320D01*
X132429291Y-105473997D01*
X132439039Y-105491849D01*
X132437947Y-105507113D01*
X132441817Y-105521918D01*
X132435506Y-105541251D01*
X132434055Y-105561541D01*
X132424556Y-105574792D01*
X132420135Y-105588339D01*
X132396235Y-105614308D01*
X132358612Y-105644986D01*
X132294216Y-105672096D01*
X132225386Y-105660087D01*
X132201889Y-105644987D01*
X132063659Y-105532276D01*
X132063660Y-105532276D01*
X132063657Y-105532274D01*
X131883299Y-105438063D01*
X131883298Y-105438062D01*
X131883295Y-105438061D01*
X131766079Y-105404522D01*
X131687668Y-105382086D01*
X131687665Y-105382085D01*
X131687663Y-105382085D01*
X131621352Y-105376189D01*
X131568287Y-105371472D01*
X131568282Y-105371472D01*
X130452221Y-105371472D01*
X130452215Y-105371472D01*
X130452214Y-105371473D01*
X130440566Y-105372508D01*
X130332834Y-105382085D01*
X130137204Y-105438061D01*
X130068409Y-105473997D01*
X129956843Y-105532274D01*
X129956841Y-105532275D01*
X129956840Y-105532276D01*
X129818611Y-105644987D01*
X129754214Y-105672096D01*
X129685385Y-105660087D01*
X129661889Y-105644987D01*
X129523659Y-105532276D01*
X129523660Y-105532276D01*
X129523657Y-105532274D01*
X129343299Y-105438063D01*
X129343298Y-105438062D01*
X129343295Y-105438061D01*
X129226079Y-105404522D01*
X129147668Y-105382086D01*
X129147665Y-105382085D01*
X129147663Y-105382085D01*
X129081352Y-105376189D01*
X129028287Y-105371472D01*
X129028282Y-105371472D01*
X127912221Y-105371472D01*
X127912215Y-105371472D01*
X127912214Y-105371473D01*
X127900566Y-105372508D01*
X127792834Y-105382085D01*
X127597204Y-105438061D01*
X127528409Y-105473997D01*
X127416843Y-105532274D01*
X127416841Y-105532275D01*
X127416840Y-105532276D01*
X127278611Y-105644987D01*
X127214214Y-105672096D01*
X127145385Y-105660087D01*
X127121889Y-105644987D01*
X126983659Y-105532276D01*
X126983660Y-105532276D01*
X126983657Y-105532274D01*
X126803299Y-105438063D01*
X126803298Y-105438062D01*
X126803295Y-105438061D01*
X126686079Y-105404522D01*
X126607668Y-105382086D01*
X126607665Y-105382085D01*
X126607663Y-105382085D01*
X126541352Y-105376189D01*
X126488287Y-105371472D01*
X126488282Y-105371472D01*
X125372221Y-105371472D01*
X125372215Y-105371472D01*
X125372214Y-105371473D01*
X125360566Y-105372508D01*
X125252834Y-105382085D01*
X125057204Y-105438061D01*
X124988409Y-105473997D01*
X124876843Y-105532274D01*
X124876841Y-105532275D01*
X124876840Y-105532276D01*
X124738611Y-105644987D01*
X124674214Y-105672096D01*
X124605385Y-105660087D01*
X124581889Y-105644987D01*
X124443659Y-105532276D01*
X124443660Y-105532276D01*
X124443657Y-105532274D01*
X124263299Y-105438063D01*
X124263298Y-105438062D01*
X124263295Y-105438061D01*
X124146079Y-105404522D01*
X124067668Y-105382086D01*
X124067665Y-105382085D01*
X124067663Y-105382085D01*
X124001352Y-105376189D01*
X123948287Y-105371472D01*
X123948282Y-105371472D01*
X122832221Y-105371472D01*
X122832215Y-105371472D01*
X122832214Y-105371473D01*
X122820566Y-105372508D01*
X122712834Y-105382085D01*
X122517204Y-105438061D01*
X122448409Y-105473997D01*
X122336843Y-105532274D01*
X122336841Y-105532275D01*
X122336840Y-105532276D01*
X122198611Y-105644987D01*
X122134214Y-105672096D01*
X122065385Y-105660087D01*
X122041889Y-105644987D01*
X121903659Y-105532276D01*
X121903660Y-105532276D01*
X121903657Y-105532274D01*
X121723299Y-105438063D01*
X121723298Y-105438062D01*
X121723295Y-105438061D01*
X121606079Y-105404522D01*
X121527668Y-105382086D01*
X121527665Y-105382085D01*
X121527663Y-105382085D01*
X121461352Y-105376189D01*
X121408287Y-105371472D01*
X121408282Y-105371472D01*
X120292221Y-105371472D01*
X120292195Y-105371474D01*
X120287150Y-105371922D01*
X120218633Y-105358242D01*
X120168389Y-105309690D01*
X120152370Y-105241682D01*
X120175662Y-105175809D01*
X120188493Y-105160741D01*
X120212420Y-105136813D01*
X120273744Y-105103333D01*
X120300097Y-105100500D01*
X121413331Y-105100500D01*
X121413347Y-105100501D01*
X121420943Y-105100501D01*
X121579054Y-105100501D01*
X121579057Y-105100501D01*
X121731785Y-105059577D01*
X121810487Y-105014138D01*
X121868716Y-104980520D01*
X121944458Y-104904777D01*
X121949734Y-104900544D01*
X121976023Y-104889717D01*
X122000984Y-104876088D01*
X122003152Y-104875637D01*
X122003841Y-104875500D01*
X122003842Y-104875500D01*
X122158497Y-104844737D01*
X122304179Y-104784394D01*
X122435289Y-104696789D01*
X122546789Y-104585289D01*
X122634394Y-104454179D01*
X122694737Y-104308497D01*
X122725500Y-104153842D01*
X122725500Y-103996158D01*
X122725500Y-103996155D01*
X122725499Y-103996153D01*
X122694737Y-103841503D01*
X122647004Y-103726264D01*
X122634397Y-103695827D01*
X122634390Y-103695814D01*
X122546789Y-103564711D01*
X122546786Y-103564707D01*
X122435292Y-103453213D01*
X122435288Y-103453210D01*
X122304185Y-103365609D01*
X122304172Y-103365602D01*
X122158501Y-103305264D01*
X122158489Y-103305261D01*
X122003845Y-103274500D01*
X122003842Y-103274500D01*
X121846158Y-103274500D01*
X121846155Y-103274500D01*
X121691510Y-103305261D01*
X121691498Y-103305264D01*
X121545827Y-103365602D01*
X121545814Y-103365609D01*
X121414711Y-103453210D01*
X121414707Y-103453213D01*
X121303213Y-103564707D01*
X121303210Y-103564711D01*
X121215609Y-103695814D01*
X121215602Y-103695827D01*
X121162947Y-103822952D01*
X121119107Y-103877356D01*
X121052813Y-103899421D01*
X121048386Y-103899500D01*
X120079057Y-103899500D01*
X119920943Y-103899500D01*
X119768215Y-103940423D01*
X119742112Y-103955494D01*
X119724173Y-103965851D01*
X119631285Y-104019479D01*
X119631282Y-104019481D01*
X119133028Y-104517735D01*
X119132944Y-104517819D01*
X119132758Y-104518006D01*
X119132756Y-104518008D01*
X119020952Y-104629812D01*
X119019079Y-104633053D01*
X119010869Y-104641363D01*
X119010749Y-104641429D01*
X119010347Y-104641888D01*
X118317082Y-105335153D01*
X118255759Y-105368638D01*
X118229401Y-105371472D01*
X117752221Y-105371472D01*
X117752215Y-105371472D01*
X117752214Y-105371473D01*
X117740566Y-105372508D01*
X117632834Y-105382085D01*
X117437204Y-105438061D01*
X117368409Y-105473997D01*
X117256843Y-105532274D01*
X117256841Y-105532275D01*
X117256840Y-105532276D01*
X117099140Y-105660862D01*
X116970554Y-105818562D01*
X116876339Y-105998926D01*
X116820364Y-106194555D01*
X116820363Y-106194558D01*
X116809750Y-106313938D01*
X116809750Y-108180000D01*
X116809751Y-108180006D01*
X116820363Y-108299387D01*
X116876339Y-108495017D01*
X116876340Y-108495020D01*
X116876341Y-108495021D01*
X116970552Y-108675379D01*
X116970554Y-108675381D01*
X117099140Y-108833081D01*
X117182188Y-108900797D01*
X117256843Y-108961670D01*
X117437201Y-109055881D01*
X117632832Y-109111858D01*
X117752213Y-109122472D01*
X118868286Y-109122471D01*
X118987668Y-109111858D01*
X119183299Y-109055881D01*
X119363657Y-108961670D01*
X119501890Y-108848955D01*
X119566285Y-108821847D01*
X119635115Y-108833856D01*
X119658607Y-108848953D01*
X119796843Y-108961670D01*
X119977201Y-109055881D01*
X120172832Y-109111858D01*
X120292213Y-109122472D01*
X121408286Y-109122471D01*
X121527668Y-109111858D01*
X121723299Y-109055881D01*
X121903657Y-108961670D01*
X122041890Y-108848955D01*
X122106285Y-108821847D01*
X122175115Y-108833856D01*
X122198607Y-108848953D01*
X122336843Y-108961670D01*
X122517201Y-109055881D01*
X122712832Y-109111858D01*
X122832213Y-109122472D01*
X123948286Y-109122471D01*
X124067668Y-109111858D01*
X124263299Y-109055881D01*
X124443657Y-108961670D01*
X124581890Y-108848955D01*
X124646285Y-108821847D01*
X124715115Y-108833856D01*
X124738607Y-108848953D01*
X124876843Y-108961670D01*
X125057201Y-109055881D01*
X125252832Y-109111858D01*
X125372213Y-109122472D01*
X126488286Y-109122471D01*
X126607668Y-109111858D01*
X126803299Y-109055881D01*
X126983657Y-108961670D01*
X127121890Y-108848955D01*
X127186285Y-108821847D01*
X127255115Y-108833856D01*
X127278607Y-108848953D01*
X127416843Y-108961670D01*
X127597201Y-109055881D01*
X127792832Y-109111858D01*
X127912213Y-109122472D01*
X128070151Y-109122471D01*
X128137191Y-109142155D01*
X128157833Y-109158790D01*
X129014889Y-110015846D01*
X129014899Y-110015857D01*
X129019229Y-110020187D01*
X129019230Y-110020188D01*
X129131034Y-110131992D01*
X129211488Y-110178441D01*
X129217845Y-110182111D01*
X129217847Y-110182113D01*
X129255901Y-110204083D01*
X129267965Y-110211049D01*
X129420693Y-110251973D01*
X129420696Y-110251973D01*
X129440263Y-110251973D01*
X129507302Y-110271658D01*
X129553057Y-110324462D01*
X129563001Y-110393620D01*
X129533976Y-110457176D01*
X129531263Y-110460205D01*
X129474492Y-110521536D01*
X129474489Y-110521540D01*
X129389312Y-110663375D01*
X129389309Y-110663380D01*
X129334944Y-110819640D01*
X129334942Y-110819652D01*
X129313687Y-110983720D01*
X129313686Y-110983729D01*
X129326441Y-111148692D01*
X129326441Y-111148693D01*
X129372663Y-111307547D01*
X129372667Y-111307557D01*
X129450405Y-111453603D01*
X129450407Y-111453606D01*
X129450408Y-111453607D01*
X129556379Y-111580670D01*
X129686099Y-111683372D01*
X129724460Y-111702633D01*
X129724654Y-111702805D01*
X129759796Y-111720375D01*
X129760029Y-111720492D01*
X129760030Y-111720493D01*
X129802599Y-111741779D01*
X129802600Y-111741779D01*
X129815501Y-111748230D01*
X129815519Y-111748237D01*
X142184968Y-117932962D01*
X142185131Y-117933029D01*
X142215063Y-117947986D01*
X142215064Y-117947986D01*
X142215065Y-117947987D01*
X142372988Y-117990050D01*
X142536152Y-117999335D01*
X142599026Y-117990049D01*
X142697821Y-117975458D01*
X142697821Y-117975457D01*
X142697826Y-117975457D01*
X142851341Y-117919402D01*
X142990361Y-117833483D01*
X143109152Y-117721244D01*
X143202812Y-117587316D01*
X143267477Y-117437225D01*
X143282322Y-117365229D01*
X143300477Y-117277173D01*
X143300479Y-117277164D01*
X143300486Y-117243853D01*
X143300500Y-117243681D01*
X143300500Y-110996426D01*
X143300500Y-110983720D01*
X143300502Y-110925675D01*
X143269743Y-110771016D01*
X143209401Y-110625329D01*
X143209396Y-110625321D01*
X143121800Y-110494220D01*
X143121796Y-110494215D01*
X143010292Y-110382711D01*
X143010287Y-110382707D01*
X142874114Y-110291722D01*
X142874900Y-110290545D01*
X142860745Y-110276643D01*
X142839160Y-110260485D01*
X142836192Y-110252527D01*
X142830133Y-110246577D01*
X142824164Y-110220282D01*
X142814742Y-110195021D01*
X142816546Y-110186723D01*
X142814667Y-110178441D01*
X142823862Y-110153092D01*
X142829593Y-110126748D01*
X142837016Y-110116830D01*
X142838494Y-110112759D01*
X142850736Y-110098500D01*
X142929049Y-110020188D01*
X142929050Y-110020185D01*
X151229784Y-101719452D01*
X151229784Y-101719450D01*
X151239988Y-101709247D01*
X151239992Y-101709242D01*
X151258506Y-101690728D01*
X151258511Y-101690724D01*
X151268714Y-101680520D01*
X151268716Y-101680520D01*
X151380520Y-101568716D01*
X151444278Y-101458283D01*
X151459577Y-101431785D01*
X151500501Y-101279057D01*
X151500501Y-101120943D01*
X151500501Y-101113348D01*
X151500500Y-101113330D01*
X151500500Y-101081237D01*
X151520185Y-101014198D01*
X151521398Y-101012346D01*
X151609390Y-100880657D01*
X151609390Y-100880656D01*
X151609394Y-100880651D01*
X151616369Y-100863813D01*
X151669735Y-100734973D01*
X151669737Y-100734969D01*
X151700500Y-100580314D01*
X151700500Y-100422630D01*
X151700500Y-100422627D01*
X151700499Y-100422625D01*
X151694803Y-100393988D01*
X151669737Y-100267975D01*
X151643086Y-100203633D01*
X151609397Y-100122299D01*
X151609390Y-100122286D01*
X151521789Y-99991183D01*
X151521786Y-99991179D01*
X151410292Y-99879685D01*
X151410288Y-99879682D01*
X151279185Y-99792081D01*
X151279172Y-99792074D01*
X151133501Y-99731736D01*
X151133489Y-99731733D01*
X150978845Y-99700972D01*
X150978842Y-99700972D01*
X150821158Y-99700972D01*
X150821155Y-99700972D01*
X150666510Y-99731733D01*
X150666498Y-99731736D01*
X150520827Y-99792074D01*
X150520814Y-99792081D01*
X150389711Y-99879682D01*
X150389707Y-99879685D01*
X150278213Y-99991179D01*
X150278210Y-99991183D01*
X150190609Y-100122286D01*
X150190602Y-100122299D01*
X150130264Y-100267970D01*
X150130261Y-100267982D01*
X150099500Y-100422625D01*
X150099500Y-100580318D01*
X150130261Y-100734961D01*
X150130264Y-100734973D01*
X150190602Y-100880644D01*
X150190612Y-100880662D01*
X150205968Y-100903644D01*
X150226846Y-100970321D01*
X150208361Y-101037701D01*
X150190547Y-101060215D01*
X148802491Y-102448271D01*
X148741168Y-102481756D01*
X148671476Y-102476772D01*
X148627129Y-102448271D01*
X148612513Y-102433655D01*
X148612509Y-102433652D01*
X148481406Y-102346051D01*
X148481393Y-102346044D01*
X148335722Y-102285706D01*
X148335710Y-102285703D01*
X148181066Y-102254942D01*
X148181063Y-102254942D01*
X148023379Y-102254942D01*
X148023376Y-102254942D01*
X147868731Y-102285703D01*
X147868719Y-102285706D01*
X147723048Y-102346044D01*
X147723035Y-102346051D01*
X147591932Y-102433652D01*
X147591928Y-102433655D01*
X147480434Y-102545149D01*
X147480431Y-102545153D01*
X147392830Y-102676256D01*
X147392823Y-102676269D01*
X147332485Y-102821940D01*
X147332482Y-102821950D01*
X147303120Y-102969562D01*
X147270735Y-103031473D01*
X147269184Y-103033051D01*
X146400685Y-103901550D01*
X146339362Y-103935035D01*
X146269670Y-103930051D01*
X146213737Y-103888179D01*
X146189320Y-103822715D01*
X146195074Y-103775549D01*
X146211088Y-103726264D01*
X146211088Y-103726262D01*
X146211090Y-103726257D01*
X146250500Y-103477434D01*
X146250500Y-103225510D01*
X146211090Y-102976687D01*
X146133241Y-102737093D01*
X146133239Y-102737090D01*
X146133239Y-102737088D01*
X146091747Y-102655656D01*
X146018870Y-102512627D01*
X145961492Y-102433653D01*
X145870798Y-102308822D01*
X145870794Y-102308817D01*
X145778939Y-102216962D01*
X145745454Y-102155639D01*
X145743331Y-102116026D01*
X145744818Y-102102188D01*
X145750500Y-102049345D01*
X145750499Y-100453600D01*
X145744091Y-100393989D01*
X145734366Y-100367916D01*
X145693797Y-100259143D01*
X145693793Y-100259136D01*
X145607548Y-100143928D01*
X145607546Y-100143927D01*
X145607546Y-100143926D01*
X145569220Y-100115235D01*
X145527351Y-100059301D01*
X145522368Y-99989609D01*
X145543214Y-99943088D01*
X145569524Y-99906877D01*
X145658884Y-99731497D01*
X145719709Y-99544298D01*
X145729359Y-99483371D01*
X145750500Y-99349894D01*
X145750500Y-99153049D01*
X145719709Y-98958645D01*
X145675175Y-98821585D01*
X145658884Y-98771447D01*
X145658882Y-98771444D01*
X145658882Y-98771442D01*
X145598206Y-98652359D01*
X145569524Y-98596067D01*
X145453828Y-98436826D01*
X145356154Y-98339152D01*
X145322670Y-98277830D01*
X145327654Y-98208138D01*
X145356155Y-98163791D01*
X145356156Y-98163790D01*
X145453828Y-98066118D01*
X145569524Y-97906877D01*
X145658884Y-97731497D01*
X145719709Y-97544298D01*
X145732651Y-97462584D01*
X145750500Y-97349894D01*
X145750500Y-97153049D01*
X145719709Y-96958645D01*
X145691487Y-96871789D01*
X145658884Y-96771447D01*
X145658882Y-96771444D01*
X145658882Y-96771442D01*
X145575668Y-96608126D01*
X145569524Y-96596067D01*
X145569522Y-96596065D01*
X145567647Y-96592384D01*
X145554751Y-96523715D01*
X145581027Y-96458974D01*
X145605248Y-96435770D01*
X145692652Y-96372268D01*
X145692652Y-96372267D01*
X145692656Y-96372265D01*
X145870793Y-96194128D01*
X146018870Y-95990317D01*
X146133241Y-95765851D01*
X146211090Y-95526257D01*
X146250500Y-95277434D01*
X146250500Y-95025510D01*
X146211090Y-94776687D01*
X146133241Y-94537093D01*
X146133239Y-94537090D01*
X146133239Y-94537088D01*
X146091747Y-94455656D01*
X146018870Y-94312627D01*
X145999952Y-94286589D01*
X145870798Y-94108822D01*
X145870794Y-94108817D01*
X145692654Y-93930677D01*
X145692649Y-93930673D01*
X145488848Y-93782604D01*
X145488847Y-93782603D01*
X145488845Y-93782602D01*
X145418747Y-93746885D01*
X145264383Y-93668232D01*
X145024785Y-93590382D01*
X144775962Y-93550972D01*
X143224038Y-93550972D01*
X143099626Y-93570677D01*
X142975214Y-93590382D01*
X142735616Y-93668232D01*
X142511151Y-93782604D01*
X142307350Y-93930673D01*
X142307345Y-93930677D01*
X142129205Y-94108817D01*
X142129201Y-94108822D01*
X141981132Y-94312623D01*
X141866760Y-94537088D01*
X141788910Y-94776686D01*
X141749500Y-95025510D01*
X141749500Y-95277433D01*
X141788910Y-95526257D01*
X141866760Y-95765855D01*
X141981132Y-95990320D01*
X142129201Y-96194121D01*
X142129205Y-96194126D01*
X142307349Y-96372270D01*
X142394752Y-96435771D01*
X142437418Y-96491100D01*
X142443397Y-96560714D01*
X142432352Y-96592383D01*
X142341118Y-96771439D01*
X142280290Y-96958645D01*
X142249500Y-97153049D01*
X142249500Y-97349894D01*
X142280290Y-97544298D01*
X142341117Y-97731501D01*
X142430476Y-97906877D01*
X142546172Y-98066118D01*
X142546174Y-98066120D01*
X142643844Y-98163790D01*
X142648181Y-98171734D01*
X142655430Y-98177160D01*
X142664666Y-98201922D01*
X142677329Y-98225113D01*
X142676683Y-98234141D01*
X142679847Y-98242624D01*
X142674230Y-98268446D01*
X142672345Y-98294805D01*
X142666527Y-98303857D01*
X142664996Y-98310897D01*
X142643845Y-98339152D01*
X142568345Y-98414653D01*
X142507022Y-98448138D01*
X142480663Y-98450972D01*
X142171155Y-98450972D01*
X142016510Y-98481733D01*
X142016498Y-98481736D01*
X141870827Y-98542074D01*
X141870814Y-98542081D01*
X141739711Y-98629682D01*
X141739707Y-98629685D01*
X141020669Y-99348725D01*
X140789711Y-99579683D01*
X140758527Y-99610867D01*
X140678209Y-99691184D01*
X140590609Y-99822286D01*
X140590602Y-99822299D01*
X140530264Y-99967970D01*
X140530261Y-99967982D01*
X140499500Y-100122625D01*
X140499500Y-105677110D01*
X140479815Y-105744149D01*
X140463181Y-105764791D01*
X140400538Y-105827433D01*
X140400535Y-105827437D01*
X140301990Y-105974918D01*
X140301983Y-105974931D01*
X140234106Y-106138804D01*
X140234103Y-106138813D01*
X140199500Y-106312776D01*
X140199500Y-106490167D01*
X140234103Y-106664130D01*
X140234106Y-106664139D01*
X140301983Y-106828012D01*
X140301990Y-106828025D01*
X140400535Y-106975506D01*
X140400538Y-106975510D01*
X140525961Y-107100933D01*
X140525965Y-107100936D01*
X140673446Y-107199481D01*
X140673459Y-107199488D01*
X140796363Y-107250395D01*
X140837334Y-107267366D01*
X140837336Y-107267366D01*
X140837341Y-107267368D01*
X141011304Y-107301971D01*
X141011307Y-107301972D01*
X141011309Y-107301972D01*
X141188693Y-107301972D01*
X141188694Y-107301971D01*
X141246682Y-107290436D01*
X141362658Y-107267368D01*
X141362661Y-107267366D01*
X141362666Y-107267366D01*
X141526547Y-107199485D01*
X141674035Y-107100936D01*
X141799464Y-106975507D01*
X141898013Y-106828019D01*
X141965894Y-106664138D01*
X141966288Y-106662156D01*
X141967059Y-106660292D01*
X141967663Y-106658305D01*
X141967858Y-106658364D01*
X141984805Y-106617450D01*
X142009394Y-106580651D01*
X142069738Y-106434969D01*
X142100500Y-106280314D01*
X142100500Y-106122629D01*
X142100500Y-104664580D01*
X142120185Y-104597541D01*
X142172989Y-104551786D01*
X142242147Y-104541842D01*
X142303318Y-104569517D01*
X142303402Y-104569402D01*
X142303961Y-104569808D01*
X142305041Y-104570297D01*
X142307336Y-104572257D01*
X142307344Y-104572265D01*
X142307352Y-104572271D01*
X142307357Y-104572275D01*
X142402449Y-104641363D01*
X142511155Y-104720342D01*
X142636870Y-104784397D01*
X142735616Y-104834711D01*
X142735618Y-104834711D01*
X142735621Y-104834713D01*
X142975215Y-104912562D01*
X143224038Y-104951972D01*
X143224039Y-104951972D01*
X144775961Y-104951972D01*
X144775962Y-104951972D01*
X145024785Y-104912562D01*
X145024790Y-104912560D01*
X145024792Y-104912560D01*
X145074077Y-104896546D01*
X145143918Y-104894549D01*
X145203751Y-104930629D01*
X145234581Y-104993329D01*
X145226617Y-105062743D01*
X145200078Y-105102157D01*
X141687584Y-108614653D01*
X141626261Y-108648138D01*
X141599903Y-108650972D01*
X135103993Y-108650972D01*
X135036954Y-108631287D01*
X134991199Y-108578483D01*
X134981255Y-108509325D01*
X134984777Y-108492860D01*
X135040136Y-108299390D01*
X135050750Y-108180009D01*
X135050749Y-106313936D01*
X135040136Y-106194554D01*
X134984159Y-105998923D01*
X134889948Y-105818565D01*
X134774607Y-105677110D01*
X134761359Y-105660862D01*
X134603659Y-105532276D01*
X134603660Y-105532276D01*
X134603657Y-105532274D01*
X134423299Y-105438063D01*
X134423298Y-105438062D01*
X134423295Y-105438061D01*
X134306079Y-105404522D01*
X134227668Y-105382086D01*
X134227665Y-105382085D01*
X134227663Y-105382085D01*
X134154881Y-105375614D01*
X134108287Y-105371472D01*
X134108283Y-105371472D01*
X133900740Y-105371472D01*
X133833701Y-105351787D01*
X133787946Y-105298983D01*
X133778002Y-105229825D01*
X133795682Y-105183684D01*
X133795140Y-105183394D01*
X133797450Y-105179071D01*
X133797639Y-105178579D01*
X133797719Y-105178458D01*
X133798013Y-105178019D01*
X133798929Y-105175809D01*
X133865894Y-105014138D01*
X133865896Y-105014130D01*
X133899590Y-104844737D01*
X133900500Y-104840163D01*
X133900500Y-104662781D01*
X133900500Y-104662778D01*
X133900499Y-104662776D01*
X133865896Y-104488813D01*
X133865893Y-104488804D01*
X133798016Y-104324931D01*
X133798009Y-104324918D01*
X133699464Y-104177437D01*
X133699461Y-104177433D01*
X133574038Y-104052010D01*
X133574034Y-104052007D01*
X133426553Y-103953462D01*
X133426540Y-103953455D01*
X133262668Y-103885578D01*
X133262660Y-103885576D01*
X133215680Y-103876231D01*
X133153769Y-103843846D01*
X133152191Y-103842295D01*
X132326949Y-103017052D01*
X132326942Y-103017046D01*
X132253257Y-102967812D01*
X132253257Y-102967813D01*
X132204019Y-102934913D01*
X132067445Y-102878343D01*
X132067435Y-102878340D01*
X131922448Y-102849500D01*
X131922446Y-102849500D01*
X130062230Y-102849500D01*
X129995191Y-102829815D01*
X129974549Y-102813181D01*
X128786819Y-101625451D01*
X128753334Y-101564128D01*
X128750500Y-101537770D01*
X128750500Y-100654813D01*
X129711450Y-100654813D01*
X129711450Y-101291930D01*
X129726107Y-101422020D01*
X129726109Y-101422030D01*
X129777438Y-101568717D01*
X129783828Y-101586978D01*
X129876803Y-101734948D01*
X130000374Y-101858519D01*
X130148344Y-101951494D01*
X130313293Y-102009213D01*
X130313299Y-102009213D01*
X130313301Y-102009214D01*
X130354700Y-102013878D01*
X130443392Y-102023871D01*
X130443395Y-102023872D01*
X130443398Y-102023872D01*
X132480505Y-102023872D01*
X132480506Y-102023871D01*
X132610607Y-102009213D01*
X132775556Y-101951494D01*
X132923526Y-101858519D01*
X132971854Y-101810191D01*
X133033177Y-101776706D01*
X133059535Y-101773872D01*
X136447538Y-101773872D01*
X136514577Y-101793557D01*
X136535219Y-101810191D01*
X136550961Y-101825933D01*
X136550965Y-101825936D01*
X136698446Y-101924481D01*
X136698459Y-101924488D01*
X136763659Y-101951494D01*
X136862334Y-101992366D01*
X136862336Y-101992366D01*
X136862341Y-101992368D01*
X137036304Y-102026971D01*
X137036307Y-102026972D01*
X137036309Y-102026972D01*
X137213693Y-102026972D01*
X137213694Y-102026971D01*
X137302966Y-102009214D01*
X137387658Y-101992368D01*
X137387661Y-101992366D01*
X137387666Y-101992366D01*
X137551547Y-101924485D01*
X137699035Y-101825936D01*
X137824464Y-101700507D01*
X137923013Y-101553019D01*
X137990894Y-101389138D01*
X138025500Y-101215163D01*
X138025500Y-101037781D01*
X138025500Y-101037778D01*
X138025499Y-101037776D01*
X137990896Y-100863813D01*
X137990893Y-100863804D01*
X137923016Y-100699931D01*
X137923009Y-100699918D01*
X137824464Y-100552437D01*
X137824461Y-100552433D01*
X137699038Y-100427010D01*
X137699034Y-100427007D01*
X137551553Y-100328462D01*
X137551540Y-100328455D01*
X137387667Y-100260578D01*
X137387659Y-100260576D01*
X137313462Y-100245817D01*
X137290203Y-100238762D01*
X137225097Y-100211795D01*
X137205397Y-100203635D01*
X137205393Y-100203634D01*
X137205389Y-100203633D01*
X137050745Y-100172872D01*
X137050742Y-100172872D01*
X133059535Y-100172872D01*
X132992496Y-100153187D01*
X132971854Y-100136553D01*
X132923526Y-100088225D01*
X132859789Y-100048177D01*
X132775556Y-99995250D01*
X132775555Y-99995249D01*
X132775554Y-99995249D01*
X132610608Y-99937531D01*
X132610598Y-99937529D01*
X132480508Y-99922872D01*
X132480502Y-99922872D01*
X130443398Y-99922872D01*
X130443391Y-99922872D01*
X130313301Y-99937529D01*
X130313291Y-99937531D01*
X130148345Y-99995249D01*
X130000373Y-100088225D01*
X129876803Y-100211795D01*
X129783827Y-100359767D01*
X129726109Y-100524713D01*
X129726107Y-100524723D01*
X129711450Y-100654813D01*
X128750500Y-100654813D01*
X128750500Y-99483371D01*
X130765502Y-99483371D01*
X130765503Y-99483372D01*
X132158397Y-99483372D01*
X132158397Y-99483371D01*
X131461950Y-98786925D01*
X130765502Y-99483371D01*
X128750500Y-99483371D01*
X128750500Y-99226079D01*
X128721659Y-99081092D01*
X128721658Y-99081091D01*
X128721658Y-99081087D01*
X128721205Y-99079994D01*
X128665087Y-98944511D01*
X128665080Y-98944498D01*
X128582952Y-98821585D01*
X128532809Y-98771442D01*
X128478416Y-98717049D01*
X128243100Y-98481733D01*
X127960418Y-98199050D01*
X127876209Y-98114841D01*
X129711950Y-98114841D01*
X129711950Y-98751902D01*
X129726598Y-98881911D01*
X129784280Y-99046758D01*
X129877196Y-99194634D01*
X130000687Y-99318125D01*
X130137609Y-99404158D01*
X130175172Y-99366596D01*
X131108397Y-98433372D01*
X131108396Y-98433371D01*
X131815503Y-98433371D01*
X131815503Y-98433372D01*
X132786290Y-99404159D01*
X132923209Y-99318128D01*
X133046703Y-99194634D01*
X133139619Y-99046758D01*
X133197301Y-98881911D01*
X133211949Y-98751902D01*
X133211950Y-98751898D01*
X133211950Y-98114845D01*
X133211949Y-98114841D01*
X133197301Y-97984832D01*
X133139619Y-97819985D01*
X133046703Y-97672109D01*
X132923212Y-97548618D01*
X132786289Y-97462584D01*
X131815503Y-98433371D01*
X131108396Y-98433371D01*
X130137609Y-97462584D01*
X130000688Y-97548617D01*
X129877196Y-97672109D01*
X129784280Y-97819985D01*
X129726598Y-97984832D01*
X129711950Y-98114841D01*
X127876209Y-98114841D01*
X127196393Y-97435024D01*
X127196386Y-97435018D01*
X127122701Y-97385784D01*
X127122701Y-97385785D01*
X127119090Y-97383372D01*
X130765502Y-97383372D01*
X131461950Y-98079819D01*
X132158397Y-97383372D01*
X130765502Y-97383372D01*
X127119090Y-97383372D01*
X127073463Y-97352885D01*
X126936889Y-97296315D01*
X126936879Y-97296312D01*
X126791892Y-97267472D01*
X126791890Y-97267472D01*
X126039171Y-97267472D01*
X125972132Y-97247787D01*
X125938853Y-97216357D01*
X125882057Y-97138183D01*
X125731736Y-96987862D01*
X125559770Y-96862923D01*
X125370364Y-96766416D01*
X125370363Y-96766415D01*
X125370362Y-96766415D01*
X125168193Y-96700726D01*
X125168191Y-96700725D01*
X125168190Y-96700725D01*
X124997142Y-96673634D01*
X124958237Y-96667472D01*
X124745663Y-96667472D01*
X124745658Y-96667472D01*
X124650221Y-96682588D01*
X124580928Y-96673634D01*
X124543142Y-96647796D01*
X124177069Y-96281723D01*
X124143584Y-96220400D01*
X124140750Y-96194042D01*
X124140750Y-93019441D01*
X124160435Y-92952402D01*
X124213239Y-92906647D01*
X124230623Y-92900230D01*
X124263299Y-92890881D01*
X124443657Y-92796670D01*
X124581890Y-92683955D01*
X124646285Y-92656847D01*
X124715115Y-92668856D01*
X124738607Y-92683953D01*
X124876843Y-92796670D01*
X125057201Y-92890881D01*
X125252832Y-92946858D01*
X125372213Y-92957472D01*
X126488286Y-92957471D01*
X126607668Y-92946858D01*
X126803299Y-92890881D01*
X126983657Y-92796670D01*
X127121890Y-92683955D01*
X127186285Y-92656847D01*
X127255115Y-92668856D01*
X127278607Y-92683953D01*
X127416843Y-92796670D01*
X127597201Y-92890881D01*
X127792832Y-92946858D01*
X127912213Y-92957472D01*
X129028286Y-92957471D01*
X129147668Y-92946858D01*
X129343299Y-92890881D01*
X129523657Y-92796670D01*
X129661890Y-92683955D01*
X129726285Y-92656847D01*
X129795115Y-92668856D01*
X129818607Y-92683953D01*
X129956843Y-92796670D01*
X130137201Y-92890881D01*
X130332832Y-92946858D01*
X130452213Y-92957472D01*
X131568286Y-92957471D01*
X131687668Y-92946858D01*
X131883299Y-92890881D01*
X132063657Y-92796670D01*
X132201890Y-92683955D01*
X132266285Y-92656847D01*
X132335115Y-92668856D01*
X132358607Y-92683953D01*
X132496843Y-92796670D01*
X132677201Y-92890881D01*
X132872832Y-92946858D01*
X132992213Y-92957472D01*
X134108286Y-92957471D01*
X134227668Y-92946858D01*
X134423299Y-92890881D01*
X134603657Y-92796670D01*
X134761359Y-92668081D01*
X134889948Y-92510379D01*
X134984159Y-92330021D01*
X135040136Y-92134390D01*
X135050750Y-92015009D01*
X135050749Y-90148936D01*
X135040136Y-90029554D01*
X134984159Y-89833923D01*
X134889948Y-89653565D01*
X134770782Y-89507419D01*
X134761359Y-89495862D01*
X134646183Y-89401949D01*
X134603657Y-89367274D01*
X134423299Y-89273063D01*
X134423298Y-89273062D01*
X134423295Y-89273061D01*
X134306079Y-89239522D01*
X134227668Y-89217086D01*
X134227665Y-89217085D01*
X134227663Y-89217085D01*
X134161352Y-89211189D01*
X134108287Y-89206472D01*
X134108282Y-89206472D01*
X132992221Y-89206472D01*
X132992215Y-89206472D01*
X132992214Y-89206473D01*
X132986601Y-89206972D01*
X132872834Y-89217085D01*
X132677204Y-89273061D01*
X132624522Y-89300580D01*
X132496843Y-89367274D01*
X132496841Y-89367275D01*
X132496840Y-89367276D01*
X132358611Y-89479987D01*
X132294214Y-89507096D01*
X132225385Y-89495087D01*
X132201889Y-89479987D01*
X132125619Y-89417797D01*
X132063657Y-89367274D01*
X131883299Y-89273063D01*
X131883298Y-89273062D01*
X131883295Y-89273061D01*
X131766079Y-89239522D01*
X131687668Y-89217086D01*
X131687665Y-89217085D01*
X131687663Y-89217085D01*
X131621352Y-89211189D01*
X131568287Y-89206472D01*
X131568282Y-89206472D01*
X130452221Y-89206472D01*
X130452215Y-89206472D01*
X130452214Y-89206473D01*
X130446601Y-89206972D01*
X130332834Y-89217085D01*
X130137204Y-89273061D01*
X130084522Y-89300580D01*
X129956843Y-89367274D01*
X129956841Y-89367275D01*
X129956840Y-89367276D01*
X129818611Y-89479987D01*
X129754214Y-89507096D01*
X129685385Y-89495087D01*
X129661889Y-89479987D01*
X129585619Y-89417797D01*
X129523657Y-89367274D01*
X129343299Y-89273063D01*
X129343298Y-89273062D01*
X129343295Y-89273061D01*
X129226079Y-89239522D01*
X129147668Y-89217086D01*
X129147665Y-89217085D01*
X129147663Y-89217085D01*
X129081352Y-89211189D01*
X129028287Y-89206472D01*
X129028282Y-89206472D01*
X127912221Y-89206472D01*
X127912215Y-89206472D01*
X127912214Y-89206473D01*
X127906601Y-89206972D01*
X127792834Y-89217085D01*
X127597204Y-89273061D01*
X127544522Y-89300580D01*
X127416843Y-89367274D01*
X127416841Y-89367275D01*
X127416840Y-89367276D01*
X127278611Y-89479987D01*
X127214214Y-89507096D01*
X127145385Y-89495087D01*
X127121889Y-89479987D01*
X127045619Y-89417797D01*
X126983657Y-89367274D01*
X126803299Y-89273063D01*
X126803298Y-89273062D01*
X126803295Y-89273061D01*
X126686079Y-89239522D01*
X126607668Y-89217086D01*
X126607665Y-89217085D01*
X126607663Y-89217085D01*
X126541352Y-89211189D01*
X126488287Y-89206472D01*
X126488282Y-89206472D01*
X125372221Y-89206472D01*
X125372215Y-89206472D01*
X125372214Y-89206473D01*
X125366601Y-89206972D01*
X125252834Y-89217085D01*
X125057204Y-89273061D01*
X125004522Y-89300580D01*
X124876843Y-89367274D01*
X124876841Y-89367275D01*
X124876840Y-89367276D01*
X124738611Y-89479987D01*
X124674214Y-89507096D01*
X124605385Y-89495087D01*
X124581889Y-89479987D01*
X124505619Y-89417797D01*
X124443657Y-89367274D01*
X124263299Y-89273063D01*
X124263298Y-89273062D01*
X124263295Y-89273061D01*
X124146079Y-89239522D01*
X124067668Y-89217086D01*
X124067665Y-89217085D01*
X124067663Y-89217085D01*
X124001352Y-89211189D01*
X123948287Y-89206472D01*
X123948282Y-89206472D01*
X122832221Y-89206472D01*
X122832215Y-89206472D01*
X122832214Y-89206473D01*
X122826601Y-89206972D01*
X122712834Y-89217085D01*
X122517204Y-89273061D01*
X122336837Y-89367277D01*
X122198213Y-89480310D01*
X122133817Y-89507419D01*
X122064987Y-89495409D01*
X122041492Y-89480310D01*
X121903379Y-89367693D01*
X121723111Y-89273529D01*
X121527578Y-89217581D01*
X121527575Y-89217580D01*
X121408250Y-89206972D01*
X120292249Y-89206972D01*
X120172924Y-89217580D01*
X120172921Y-89217581D01*
X119977388Y-89273529D01*
X119797120Y-89367693D01*
X119659007Y-89480310D01*
X119594611Y-89507419D01*
X119525781Y-89495410D01*
X119502285Y-89480310D01*
X119452508Y-89439722D01*
X119363657Y-89367274D01*
X119183299Y-89273063D01*
X119183298Y-89273062D01*
X119183295Y-89273061D01*
X119066079Y-89239522D01*
X118987668Y-89217086D01*
X118987665Y-89217085D01*
X118987663Y-89217085D01*
X118921352Y-89211189D01*
X118868287Y-89206472D01*
X118868282Y-89206472D01*
X117752221Y-89206472D01*
X117752215Y-89206472D01*
X117752214Y-89206473D01*
X117746601Y-89206972D01*
X117632834Y-89217085D01*
X117437204Y-89273061D01*
X117384522Y-89300580D01*
X117256843Y-89367274D01*
X117256841Y-89367275D01*
X117256840Y-89367276D01*
X117099140Y-89495862D01*
X116970554Y-89653562D01*
X116970552Y-89653565D01*
X116950458Y-89692033D01*
X116876339Y-89833926D01*
X116820364Y-90029555D01*
X116820363Y-90029558D01*
X116809750Y-90148938D01*
X116809750Y-92015000D01*
X116809751Y-92015006D01*
X116820363Y-92134387D01*
X116876339Y-92330017D01*
X116876340Y-92330020D01*
X116876341Y-92330021D01*
X116970552Y-92510379D01*
X116970554Y-92510381D01*
X117099140Y-92668081D01*
X117193053Y-92744656D01*
X117256843Y-92796670D01*
X117437201Y-92890881D01*
X117632832Y-92946858D01*
X117752213Y-92957472D01*
X118868286Y-92957471D01*
X118987668Y-92946858D01*
X119183299Y-92890881D01*
X119363657Y-92796670D01*
X119502287Y-92683632D01*
X119566681Y-92656524D01*
X119635511Y-92668533D01*
X119659007Y-92683633D01*
X119797120Y-92796250D01*
X119977388Y-92890414D01*
X120172921Y-92946362D01*
X120172924Y-92946363D01*
X120292249Y-92956971D01*
X120292252Y-92956972D01*
X121408248Y-92956972D01*
X121408250Y-92956971D01*
X121527575Y-92946363D01*
X121527578Y-92946362D01*
X121723111Y-92890414D01*
X121903380Y-92796250D01*
X122041491Y-92683634D01*
X122105887Y-92656524D01*
X122174717Y-92668533D01*
X122198214Y-92683633D01*
X122336843Y-92796670D01*
X122517201Y-92890881D01*
X122549863Y-92900226D01*
X122608897Y-92937590D01*
X122638362Y-93000943D01*
X122639750Y-93019441D01*
X122639750Y-96455775D01*
X122620065Y-96522814D01*
X122567261Y-96568569D01*
X122498103Y-96578513D01*
X122496353Y-96578248D01*
X122475037Y-96574872D01*
X122262463Y-96574872D01*
X122241148Y-96578248D01*
X122052510Y-96608125D01*
X121850335Y-96673816D01*
X121660929Y-96770323D01*
X121488963Y-96895262D01*
X121338640Y-97045585D01*
X121213699Y-97217554D01*
X121208952Y-97226871D01*
X121160977Y-97277665D01*
X121093155Y-97294459D01*
X121027021Y-97271920D01*
X120987984Y-97226867D01*
X120983376Y-97217824D01*
X120944020Y-97163654D01*
X120944019Y-97163654D01*
X120182304Y-97925371D01*
X120182304Y-97925372D01*
X120944020Y-98687089D01*
X120944020Y-98687088D01*
X120983372Y-98632927D01*
X120987982Y-98623879D01*
X121035955Y-98573081D01*
X121103775Y-98556284D01*
X121169911Y-98578819D01*
X121208954Y-98623876D01*
X121213699Y-98633189D01*
X121338640Y-98805158D01*
X121488963Y-98955481D01*
X121660932Y-99080422D01*
X121669696Y-99084888D01*
X121720492Y-99132863D01*
X121737286Y-99200684D01*
X121714748Y-99266819D01*
X121669696Y-99305856D01*
X121660932Y-99310321D01*
X121488963Y-99435262D01*
X121338640Y-99585585D01*
X121213699Y-99757554D01*
X121209234Y-99766318D01*
X121161259Y-99817114D01*
X121093438Y-99833908D01*
X121027303Y-99811370D01*
X120988266Y-99766318D01*
X120983800Y-99757554D01*
X120858859Y-99585585D01*
X120708536Y-99435262D01*
X120536567Y-99310321D01*
X120527254Y-99305576D01*
X120476457Y-99257602D01*
X120459662Y-99189781D01*
X120482199Y-99123646D01*
X120527257Y-99084604D01*
X120536305Y-99079994D01*
X120590466Y-99040642D01*
X120590467Y-99040642D01*
X119828750Y-98278926D01*
X119067032Y-99040641D01*
X119067032Y-99040642D01*
X119121202Y-99079998D01*
X119121201Y-99079998D01*
X119130245Y-99084606D01*
X119181042Y-99132580D01*
X119197837Y-99200401D01*
X119175300Y-99266536D01*
X119130249Y-99305574D01*
X119120932Y-99310321D01*
X118948963Y-99435262D01*
X118798640Y-99585585D01*
X118673699Y-99757554D01*
X118669234Y-99766318D01*
X118621259Y-99817114D01*
X118553438Y-99833908D01*
X118487303Y-99811370D01*
X118448266Y-99766318D01*
X118443800Y-99757554D01*
X118318859Y-99585585D01*
X118168536Y-99435262D01*
X117996570Y-99310323D01*
X117995865Y-99309963D01*
X117987804Y-99305857D01*
X117937009Y-99257884D01*
X117920213Y-99190064D01*
X117942749Y-99123928D01*
X117987804Y-99084887D01*
X117996566Y-99080423D01*
X118051322Y-99040641D01*
X118168536Y-98955481D01*
X118168538Y-98955478D01*
X118168542Y-98955476D01*
X118318854Y-98805164D01*
X118318856Y-98805160D01*
X118318859Y-98805158D01*
X118404640Y-98687089D01*
X118443801Y-98633188D01*
X118448543Y-98623880D01*
X118496513Y-98573083D01*
X118564333Y-98556283D01*
X118630469Y-98578817D01*
X118669513Y-98623872D01*
X118674123Y-98632919D01*
X118713478Y-98687088D01*
X119475196Y-97925372D01*
X118713478Y-97163654D01*
X118713477Y-97163654D01*
X118674130Y-97217812D01*
X118674126Y-97217818D01*
X118669510Y-97226877D01*
X118621531Y-97277669D01*
X118553709Y-97294459D01*
X118487576Y-97271915D01*
X118448544Y-97226865D01*
X118443801Y-97217556D01*
X118443799Y-97217553D01*
X118443798Y-97217551D01*
X118318859Y-97045585D01*
X118168536Y-96895262D01*
X118051318Y-96810099D01*
X119067032Y-96810099D01*
X119067032Y-96810100D01*
X119828750Y-97571818D01*
X119828751Y-97571818D01*
X120590466Y-96810100D01*
X120536300Y-96770747D01*
X120346967Y-96674276D01*
X120144879Y-96608614D01*
X119934996Y-96575372D01*
X119722504Y-96575372D01*
X119512622Y-96608614D01*
X119512619Y-96608614D01*
X119310532Y-96674276D01*
X119121189Y-96770752D01*
X119067032Y-96810099D01*
X118051318Y-96810099D01*
X117996570Y-96770323D01*
X117807164Y-96673816D01*
X117807163Y-96673815D01*
X117807162Y-96673815D01*
X117604993Y-96608126D01*
X117604991Y-96608125D01*
X117604990Y-96608125D01*
X117416352Y-96578248D01*
X117395037Y-96574872D01*
X117182463Y-96574872D01*
X117161148Y-96578248D01*
X116972510Y-96608125D01*
X116770335Y-96673816D01*
X116580929Y-96770323D01*
X116408963Y-96895262D01*
X116258640Y-97045585D01*
X116133701Y-97217551D01*
X116037194Y-97406957D01*
X115971503Y-97609132D01*
X115938250Y-97819085D01*
X115300500Y-97819085D01*
X115300500Y-90392597D01*
X115300502Y-90392591D01*
X115300500Y-90349054D01*
X115300765Y-90340954D01*
X115314621Y-90130361D01*
X115316751Y-90114254D01*
X115357287Y-89911319D01*
X115361515Y-89895608D01*
X115428295Y-89699755D01*
X115434552Y-89684721D01*
X115449991Y-89653565D01*
X115526432Y-89499304D01*
X115534593Y-89485242D01*
X115649981Y-89313474D01*
X115659932Y-89300580D01*
X115796846Y-89145410D01*
X115808376Y-89133956D01*
X115964449Y-88998074D01*
X115977388Y-88988223D01*
X116149936Y-88873962D01*
X116164051Y-88865896D01*
X116353762Y-88773448D01*
X116361157Y-88770141D01*
X116401468Y-88753679D01*
X116401472Y-88753674D01*
X117590117Y-88268204D01*
X117596273Y-88266101D01*
X117599534Y-88264714D01*
X117599538Y-88264714D01*
X117620869Y-88255645D01*
X117642333Y-88246879D01*
X117643405Y-88246064D01*
X117655061Y-88241108D01*
X117665739Y-88236570D01*
X118872701Y-87723445D01*
X119345951Y-87522249D01*
X129313662Y-87522249D01*
X129313663Y-87522258D01*
X129334919Y-87686333D01*
X129334921Y-87686345D01*
X129389287Y-87842605D01*
X129389294Y-87842619D01*
X129474471Y-87984452D01*
X129474473Y-87984454D01*
X129474474Y-87984455D01*
X129474476Y-87984458D01*
X129586875Y-88105881D01*
X129586877Y-88105883D01*
X129721729Y-88201742D01*
X129721740Y-88201748D01*
X129823155Y-88246064D01*
X129873350Y-88267998D01*
X130035313Y-88301838D01*
X130069907Y-88301893D01*
X130071072Y-88301972D01*
X142499972Y-88301972D01*
X142578819Y-88301978D01*
X142733485Y-88271225D01*
X142879179Y-88210884D01*
X143010299Y-88123277D01*
X143121805Y-88011771D01*
X143209412Y-87880651D01*
X143269753Y-87734957D01*
X143300506Y-87580291D01*
X143300500Y-87501444D01*
X143300500Y-81270927D01*
X143300500Y-81262612D01*
X143300481Y-81262336D01*
X143300469Y-81228782D01*
X143300468Y-81228775D01*
X143267452Y-81068741D01*
X143267450Y-81068735D01*
X143202779Y-80918664D01*
X143109119Y-80784752D01*
X142990339Y-80672529D01*
X142990337Y-80672528D01*
X142990335Y-80672526D01*
X142851327Y-80586614D01*
X142851322Y-80586612D01*
X142697835Y-80530561D01*
X142697819Y-80530557D01*
X142536174Y-80506674D01*
X142536164Y-80506674D01*
X142373018Y-80515943D01*
X142373013Y-80515944D01*
X142215101Y-80557987D01*
X142184487Y-80573278D01*
X142182523Y-80574259D01*
X142177447Y-80576795D01*
X142177391Y-80576807D01*
X142143032Y-80593986D01*
X142142006Y-80594499D01*
X142099436Y-80615784D01*
X142099434Y-80615785D01*
X142099414Y-80615795D01*
X142099413Y-80615795D01*
X129718158Y-86806422D01*
X129717125Y-86807026D01*
X129686112Y-86822595D01*
X129686111Y-86822596D01*
X129556389Y-86925288D01*
X129556378Y-86925298D01*
X129450399Y-87052359D01*
X129450396Y-87052364D01*
X129372650Y-87198414D01*
X129372648Y-87198417D01*
X129326422Y-87357274D01*
X129326419Y-87357287D01*
X129313662Y-87522249D01*
X119345951Y-87522249D01*
X120104323Y-87199837D01*
X120104328Y-87199837D01*
X120132034Y-87188056D01*
X120138108Y-87185885D01*
X120141400Y-87184430D01*
X120141405Y-87184430D01*
X120162257Y-87175218D01*
X120163704Y-87174592D01*
X120184534Y-87165737D01*
X120184534Y-87165736D01*
X120187853Y-87164326D01*
X120193599Y-87161374D01*
X120221122Y-87149219D01*
X120221123Y-87149216D01*
X120235685Y-87142786D01*
X120235700Y-87142776D01*
X122708303Y-86050576D01*
X122713288Y-86048374D01*
X122714596Y-86048153D01*
X122736231Y-86038239D01*
X122758021Y-86028615D01*
X122758021Y-86028614D01*
X122761354Y-86027143D01*
X122767016Y-86024134D01*
X125316024Y-84856211D01*
X125317318Y-84855974D01*
X125339036Y-84845667D01*
X125361000Y-84835604D01*
X125361001Y-84835602D01*
X125364360Y-84834064D01*
X125369939Y-84831001D01*
X127946081Y-83608483D01*
X127947364Y-83608231D01*
X127969238Y-83597494D01*
X127991266Y-83587041D01*
X127991271Y-83587036D01*
X127994650Y-83585433D01*
X128000124Y-83582333D01*
X130567883Y-82321990D01*
X130567891Y-82321989D01*
X130592941Y-82309691D01*
X130598662Y-82307293D01*
X130602038Y-82305580D01*
X130602043Y-82305580D01*
X130623433Y-82294733D01*
X130624676Y-82294113D01*
X130646120Y-82283589D01*
X130646122Y-82283587D01*
X130649533Y-82281913D01*
X130654906Y-82278776D01*
X130679764Y-82266175D01*
X130679765Y-82266172D01*
X130690642Y-82260659D01*
X130690670Y-82260641D01*
X133276799Y-80949350D01*
X133278060Y-80949068D01*
X133300137Y-80937516D01*
X133322269Y-80926295D01*
X133322269Y-80926294D01*
X133325681Y-80924565D01*
X133330982Y-80921378D01*
X133355284Y-80908664D01*
X133355284Y-80908662D01*
X133372588Y-80899610D01*
X133372593Y-80899606D01*
X135970141Y-79540531D01*
X135971387Y-79540236D01*
X135993450Y-79528335D01*
X136015682Y-79516704D01*
X136015684Y-79516701D01*
X136019111Y-79514909D01*
X136024357Y-79511665D01*
X138644701Y-78098358D01*
X138644711Y-78098357D01*
X138668131Y-78085721D01*
X138673650Y-78083156D01*
X138677072Y-78081254D01*
X138677075Y-78081254D01*
X138689769Y-78074201D01*
X138698454Y-78069377D01*
X138699814Y-78068632D01*
X138721405Y-78056988D01*
X138721406Y-78056986D01*
X138724845Y-78055132D01*
X138729984Y-78051863D01*
X138753253Y-78038940D01*
X138753255Y-78038936D01*
X138764659Y-78032603D01*
X138764685Y-78032584D01*
X139610621Y-77562659D01*
X146967158Y-77562659D01*
X146972037Y-77590129D01*
X146991724Y-77700970D01*
X146995146Y-77720232D01*
X147053775Y-77869146D01*
X147053776Y-77869148D01*
X147053778Y-77869152D01*
X147140725Y-78003505D01*
X147252550Y-78117987D01*
X147252558Y-78117993D01*
X147384828Y-78208066D01*
X147384834Y-78208070D01*
X147384837Y-78208071D01*
X147384842Y-78208074D01*
X147532325Y-78270177D01*
X147532327Y-78270177D01*
X147532331Y-78270179D01*
X147689203Y-78301858D01*
X147721155Y-78301903D01*
X147722188Y-78301972D01*
X147729651Y-78301972D01*
X163078845Y-78301972D01*
X163182888Y-78281275D01*
X163233497Y-78271209D01*
X163379179Y-78210865D01*
X163510289Y-78123260D01*
X163621788Y-78011761D01*
X163709393Y-77880651D01*
X163769737Y-77734969D01*
X163800500Y-77580315D01*
X163800500Y-77501473D01*
X163800500Y-77453878D01*
X163800500Y-77453877D01*
X163800500Y-68105855D01*
X163800500Y-68098257D01*
X163800433Y-68097282D01*
X163800384Y-68060191D01*
X163764491Y-67893559D01*
X163694314Y-67738222D01*
X163592999Y-67601145D01*
X163592996Y-67601142D01*
X163592995Y-67601141D01*
X163465096Y-67488481D01*
X163465093Y-67488479D01*
X163465091Y-67488477D01*
X163448601Y-67479254D01*
X163316328Y-67405271D01*
X163316327Y-67405270D01*
X163316326Y-67405270D01*
X163270934Y-67391337D01*
X163153375Y-67355254D01*
X162983543Y-67340675D01*
X162814449Y-67362185D01*
X162653683Y-67418819D01*
X162621882Y-67438294D01*
X162621881Y-67438293D01*
X162617477Y-67440992D01*
X162614913Y-67442563D01*
X162614713Y-67442623D01*
X162563667Y-67473980D01*
X162555091Y-67479248D01*
X162555077Y-67479254D01*
X147365535Y-76809973D01*
X147365536Y-76809974D01*
X147350470Y-76819228D01*
X147350225Y-76819380D01*
X147349964Y-76819540D01*
X147316507Y-76840093D01*
X147316358Y-76840249D01*
X147309363Y-76844560D01*
X147309363Y-76844561D01*
X147282096Y-76861365D01*
X147165017Y-76970462D01*
X147071846Y-77100588D01*
X147071845Y-77100590D01*
X147006284Y-77246578D01*
X147006282Y-77246583D01*
X146970921Y-77402661D01*
X146968174Y-77519481D01*
X146967158Y-77562659D01*
X139610621Y-77562659D01*
X141357137Y-76592454D01*
X141357149Y-76592452D01*
X141380157Y-76579667D01*
X141385587Y-76577061D01*
X141389005Y-76575106D01*
X141389011Y-76575105D01*
X141410493Y-76562822D01*
X141411605Y-76562195D01*
X141433317Y-76550136D01*
X141433318Y-76550134D01*
X141436749Y-76548229D01*
X141441834Y-76544906D01*
X141464667Y-76531855D01*
X141464667Y-76531853D01*
X141474815Y-76526054D01*
X141474838Y-76526037D01*
X144098357Y-75026176D01*
X144099571Y-75025841D01*
X144121588Y-75012895D01*
X144143788Y-75000204D01*
X144143789Y-75000202D01*
X144147235Y-74998233D01*
X144152250Y-74994868D01*
X144174693Y-74981675D01*
X144174693Y-74981674D01*
X144183526Y-74976482D01*
X144183563Y-74976456D01*
X146768062Y-73456854D01*
X146768073Y-73456852D01*
X146790373Y-73443737D01*
X146795714Y-73441011D01*
X146799125Y-73438948D01*
X146799129Y-73438948D01*
X146820529Y-73426012D01*
X146821631Y-73425356D01*
X146843181Y-73412687D01*
X146843184Y-73412683D01*
X146846614Y-73410667D01*
X146851549Y-73407268D01*
X146873702Y-73393883D01*
X146873704Y-73393880D01*
X146883047Y-73388235D01*
X146883085Y-73388206D01*
X149474137Y-71822256D01*
X149475336Y-71821894D01*
X149497112Y-71808371D01*
X149519128Y-71795066D01*
X149519128Y-71795065D01*
X149522518Y-71793017D01*
X149527434Y-71789542D01*
X152110798Y-70185355D01*
X152111996Y-70184977D01*
X152133628Y-70171178D01*
X152155405Y-70157656D01*
X152155406Y-70157653D01*
X152158776Y-70155562D01*
X152163651Y-70152027D01*
X154656597Y-68561880D01*
X154656600Y-68561880D01*
X154678644Y-68547817D01*
X154683911Y-68544884D01*
X154687207Y-68542724D01*
X154687211Y-68542723D01*
X154707923Y-68529151D01*
X154709144Y-68528363D01*
X154715943Y-68524025D01*
X154730079Y-68515010D01*
X154730081Y-68515007D01*
X154733415Y-68512881D01*
X154738264Y-68509274D01*
X154760111Y-68494963D01*
X154760111Y-68494961D01*
X154773842Y-68485967D01*
X154773862Y-68485951D01*
X155399079Y-68076332D01*
X157159698Y-66922839D01*
X157168941Y-66916783D01*
X157170143Y-66916371D01*
X157191084Y-66902275D01*
X157212233Y-66888420D01*
X157212236Y-66888416D01*
X157215482Y-66886290D01*
X157220342Y-66882582D01*
X159513410Y-65339169D01*
X159514627Y-65338734D01*
X159535014Y-65324627D01*
X159555578Y-65310787D01*
X159555580Y-65310784D01*
X159558747Y-65308653D01*
X159563638Y-65304821D01*
X161612308Y-63887344D01*
X161612316Y-63887342D01*
X161636324Y-63870728D01*
X161641739Y-63867435D01*
X161644734Y-63865301D01*
X161644739Y-63865300D01*
X161663644Y-63851836D01*
X161664819Y-63851011D01*
X161683975Y-63837758D01*
X161683977Y-63837755D01*
X161686997Y-63835666D01*
X161691958Y-63831674D01*
X161715725Y-63814751D01*
X161715726Y-63814748D01*
X161724923Y-63808200D01*
X161724940Y-63808185D01*
X163411459Y-62607152D01*
X163412714Y-62606664D01*
X163431352Y-62592986D01*
X163450235Y-62579539D01*
X163450236Y-62579536D01*
X163453118Y-62577485D01*
X163458145Y-62573323D01*
X163533123Y-62518300D01*
X163533127Y-62518299D01*
X163568020Y-62492690D01*
X163575166Y-62487823D01*
X163697136Y-62410870D01*
X163765926Y-62367470D01*
X163781262Y-62359238D01*
X163982990Y-62268589D01*
X163999325Y-62262588D01*
X164211773Y-62201083D01*
X164228783Y-62197430D01*
X164447755Y-62166286D01*
X164465110Y-62165052D01*
X164686281Y-62164884D01*
X164703632Y-62166092D01*
G37*
%TD.AperFunction*%
%TD*%
M02*
